<?xml version="1.0" encoding="UTF-8"?>
<svg width="1440px" height="577px" viewBox="0 0 1440 577" version="1.1" xmlns="http://www.w3.org/2000/svg" xmlns:xlink="http://www.w3.org/1999/xlink">
    <!-- Generator: Sketch 47.1 (45422) - http://www.bohemiancoding.com/sketch -->
    <title>graph</title>
    <desc>Created with Sketch.</desc>
    <defs>
        <path d="M335.520515,32 C330.956501,32 327.256637,28.418278 327.256637,24 C327.256637,19.581722 330.956501,16 335.520515,16 C340.084529,16 343.784393,19.581722 343.784393,24 C343.784393,28.418278 340.084529,32 335.520515,32 Z M108.263878,108 C103.699864,108 100,104.418278 100,100 C100,95.581722 103.699864,92 108.263878,92 C112.827891,92 116.527755,95.581722 116.527755,100 C116.527755,104.418278 112.827891,108 108.263878,108 Z M610.294449,64 C605.730435,64 602.030571,60.418278 602.030571,56 C602.030571,51.581722 605.730435,48 610.294449,48 C614.858463,48 618.558327,51.581722 618.558327,56 C618.558327,60.418278 614.858463,64 610.294449,64 Z M784.868866,145 C780.304852,145 776.604988,141.418278 776.604988,137 C776.604988,132.581722 780.304852,129 784.868866,129 C789.432879,129 793.132743,132.581722 793.132743,137 C793.132743,141.418278 789.432879,145 784.868866,145 Z M921.222848,39 C916.658834,39 912.95897,35.418278 912.95897,31 C912.95897,26.581722 916.658834,23 921.222848,23 C925.786862,23 929.486726,26.581722 929.486726,31 C929.486726,35.418278 925.786862,39 921.222848,39 Z M1163.97426,16 C1159.41024,16 1155.71038,12.418278 1155.71038,8 C1155.71038,3.581722 1159.41024,0 1163.97426,0 C1168.53827,0 1172.23813,3.581722 1172.23813,8 C1172.23813,12.418278 1168.53827,16 1163.97426,16 Z M1375.73612,138 C1371.17211,138 1367.47224,134.418278 1367.47224,130 C1367.47224,125.581722 1371.17211,122 1375.73612,122 C1380.30014,122 1384,125.581722 1384,130 C1384,134.418278 1380.30014,138 1375.73612,138 Z" id="path-1"></path>
    </defs>
    <g id="Page-2" stroke="none" stroke-width="1" fill="none" fill-rule="evenodd">
        <g id="SL01-Pricing" transform="translate(0.000000, -1383.000000)">
            <g id="block-4" transform="translate(-3.000000, 1020.000000)">
                <g id="graph" transform="translate(0.000000, 367.000000)">
                    <rect id="Rectangle-8" fill="#FFFFFF" x="3" y="0" width="1440" height="573"></rect>
                    <path d="M0.371183036,144.946086 C0.371183036,144.946086 65.2040776,92.9675251 124.116345,100.105251 C167.282511,105.335202 171.688292,128.581401 215.310368,123.529037 C279.656964,116.076334 286.650457,22.1508763 339.624408,24.1570119 C381.281635,25.7345806 390.093198,90.3764176 444.419063,95.0410484 C498.744927,99.7056791 552.836786,45.9706721 630.946607,57.4102646 C709.056429,68.8498571 722.279824,143.189898 792.217567,138.125696 C860.47003,133.183524 879.897455,29.7954139 919.343722,30.3518546 C961.981231,30.953312 957.191521,59.9090035 1012.50259,62.1252118 C1068.93855,64.3864922 1099.10525,6.60249104 1164.07438,7.00206284 C1229.04352,7.40163463 1241.67487,103.653062 1327.55227,123.529037 C1403.30992,141.06284 1445.52795,118.879206 1445.52795,118.879206 L1446,573 L0,573 L0.371183036,144.946086 Z" id="Rectangle-2" fill="#FA5040"></path>
                    <g id="Combined-Shape">
                        <use fill="#E6243F" fill-rule="evenodd" xlink:href="#path-1"></use>
                        <path stroke="#FFFFFF" stroke-width="4" d="M335.520515,34 C329.866195,34 325.256637,29.5376321 325.256637,24 C325.256637,18.4623679 329.866195,14 335.520515,14 C341.174835,14 345.784393,18.4623679 345.784393,24 C345.784393,29.5376321 341.174835,34 335.520515,34 Z M108.263878,110 C102.609558,110 98,105.537632 98,100 C98,94.4623679 102.609558,90 108.263878,90 C113.918198,90 118.527755,94.4623679 118.527755,100 C118.527755,105.537632 113.918198,110 108.263878,110 Z M610.294449,66 C604.640129,66 600.030571,61.5376321 600.030571,56 C600.030571,50.4623679 604.640129,46 610.294449,46 C615.948769,46 620.558327,50.4623679 620.558327,56 C620.558327,61.5376321 615.948769,66 610.294449,66 Z M784.868866,147 C779.214546,147 774.604988,142.537632 774.604988,137 C774.604988,131.462368 779.214546,127 784.868866,127 C790.523186,127 795.132743,131.462368 795.132743,137 C795.132743,142.537632 790.523186,147 784.868866,147 Z M921.222848,41 C915.568528,41 910.95897,36.5376321 910.95897,31 C910.95897,25.4623679 915.568528,21 921.222848,21 C926.877168,21 931.486726,25.4623679 931.486726,31 C931.486726,36.5376321 926.877168,41 921.222848,41 Z M1163.97426,18 C1158.31994,18 1153.71038,13.5376321 1153.71038,8 C1153.71038,2.46236788 1158.31994,-2 1163.97426,-2 C1169.62858,-2 1174.23813,2.46236788 1174.23813,8 C1174.23813,13.5376321 1169.62858,18 1163.97426,18 Z M1375.73612,140 C1370.0818,140 1365.47224,135.537632 1365.47224,130 C1365.47224,124.462368 1370.0818,120 1375.73612,120 C1381.39044,120 1386,124.462368 1386,130 C1386,135.537632 1381.39044,140 1375.73612,140 Z"></path>
                    </g>
                </g>
            </g>
        </g>
    </g>
</svg>