<?xml version="1.0" encoding="UTF-8"?>
<svg width="60px" height="61px" viewBox="0 0 60 61" version="1.1" xmlns="http://www.w3.org/2000/svg" xmlns:xlink="http://www.w3.org/1999/xlink">
    <!-- Generator: Sketch 47.1 (45422) - http://www.bohemiancoding.com/sketch -->
    <title>banking-not-required</title>
    <desc>Created with Sketch.</desc>
    <defs></defs>
    <g id="Page-2" stroke="none" stroke-width="1" fill="none" fill-rule="evenodd">
        <g id="banking-not-required">
            <polygon id="Path" fill-opacity="0.5" fill="#1EC5A2" points="30.3925 34 5 56.0575 55.7125 56.0575"></polygon>
            <g id="bank" fill="#63594D">
                <path d="M58.6775,27.6825 C58.67125,27.68125 58.68375,27.635 58.675,27.63625 L53.6625,27.63625 L53.6625,50.145 L58.6525,50.145 C59.3425,50.145 59.9,50.70375 59.9,51.3925 L59.9,58.88125 C59.9,59.57 59.3425,60.12875 58.6525,60.12875 L1.27,60.12875 C0.58125,60.12875 0.0225,59.57 0.0225,58.88125 L0.0225,51.3925 C0.0225,50.70375 0.58125,50.145 1.27,50.145 L6.26,50.145 L6.26,27.63625 L1.175,27.63625 C0.655,27.63625 0.28375,27.35875 0.1025,26.87125 C-0.08125,26.3825 0.05875,25.83375 0.4525,25.4925 L29.185,0.53375 C29.65375,0.125 30.355,0.12625 30.82125,0.53375 L59.33375,25.3725 C59.6875,25.5925 59.92375,25.985 59.92375,26.435 C59.92375,27.12375 59.36625,27.6825 58.6775,27.6825 Z M31.17375,50.145 L39.94125,50.145 L39.94125,27.63625 L31.175,27.63625 L31.175,50.135 C31.175,50.13875 31.17375,50.14125 31.17375,50.145 Z M19.92375,50.145 L28.71375,50.145 L28.71375,27.63625 L19.925,27.63625 L19.925,50.135 C19.925,50.13875 19.92375,50.14125 19.92375,50.145 Z M42.43625,50.145 L51.1675,50.145 L51.1675,27.63625 L42.43625,27.63625 L42.43625,50.145 Z M2.5175,57.6325 L57.405,57.6325 L57.405,52.64 L2.5175,52.64 L2.5175,57.6325 Z M17.4875,50.145 L17.4875,27.63625 L8.675,27.63625 L8.675,50.135 C8.675,50.13875 8.67375,50.14125 8.67375,50.145 L17.4875,50.145 Z M30.00125,3.12875 L4.60875,25.18625 L55.32125,25.18625 L30.00125,3.12875 Z" id="Shape"></path>
            </g>
        </g>
    </g>
</svg>