<?xml version="1.0" encoding="UTF-8"?>
<svg width="712px" height="619px" viewBox="0 0 712 619" version="1.1" xmlns="http://www.w3.org/2000/svg" xmlns:xlink="http://www.w3.org/1999/xlink">
    <!-- Generator: Sketch 47.1 (45422) - http://www.bohemiancoding.com/sketch -->
    <title>ecommerce-for-all-illustration</title>
    <desc>Created with Sketch.</desc>
    <defs></defs>
    <g id="Page-2" stroke="none" stroke-width="1" fill="none" fill-rule="evenodd">
        <g id="ecommerce-for-all-illustration">
            <g id="Group-15" opacity="0.326313406" style="mix-blend-mode: multiply;" transform="translate(95.000000, 59.000000)" fill="#4A4A4A">
                <path d="M465.074205,418.355705 C526.170639,418.355705 576,368.284637 576,306.894777 C576,245.506113 526.170639,195.436242 465.074205,195.436242 C403.978961,195.436242 354.14841,245.506113 354.14841,306.894777 C354.14841,368.284637 403.978961,418.355705 465.074205,418.355705" id="Fill-3"></path>
                <path d="M227.448763,455 C352.721487,455 454.897527,352.801212 454.897527,227.500597 C454.897527,102.198788 352.721487,0 227.448763,0 C102.174846,0 0,102.198788 0,227.500597 C0,352.801212 102.174846,455 227.448763,455" id="Fill-4"></path>
            </g>
            <path d="M395.100168,398.088909 C372.4691,406.590173 370.404849,483.438157 386.49111,481.979502 L386.493513,481.979502 L392.569718,481.42803 L392.865297,478.323314 C415.340164,459.175775 428.572761,410.263072 407.150445,399.35061 L407.776449,396 C404.297982,396.494176 398.609876,396.7723 395.100168,398.088909" id="Fill-5" fill="#663B26"></path>
            <path d="M410.131731,396.179349 C379.615218,391.08658 372.738448,496.272322 395.367661,480.358918 C422.387324,461.357677 440.649475,401.270918 410.131731,396.179349" id="Fill-6" fill="#C77146"></path>
            <path d="M409.683444,396.182951 C394.269406,393.465899 385.109152,421.520073 383,446.570802 C390.255482,450.689217 398.6303,452.141983 406.877975,450.050342 C412.37484,448.655099 417.206283,445.838912 421.173865,442.011785 C427.986128,420.614389 426.593494,399.161917 409.683444,396.182951" id="Fill-7" fill="#BA663E"></path>
            <path d="M337.974132,438.167878 C360.918342,445.001335 368.497861,521.295572 352.522147,520.999138 L352.518581,520.999138 L346.483259,520.886041 L345.966149,517.819319 C322.408539,500.386861 305.821804,452.680046 326.173335,440.288155 L325.313863,437 C328.782658,437.242862 334.414991,437.110716 337.974132,438.167878" id="Fill-8" fill="#663B26"></path>
            <path d="M323.918168,437.35719 C353.332322,430.175404 367.685302,533.835766 344.44376,519.66765 C316.6929,502.751244 294.505219,444.538975 323.918168,437.35719" id="Fill-9" fill="#C77146"></path>
            <path d="M323.763561,437.36452 C338.986619,433.530413 350.125733,460.652491 354,485.31821 C347.034182,489.936649 338.763837,491.9978 330.367209,490.536146 C324.773825,489.562115 319.743949,487.128862 315.507512,483.631593 C307.185939,462.931309 307.064421,441.571944 323.763561,437.36452" id="Fill-10" fill="#BA663E"></path>
            <path d="M524.432935,251.447844 C531.611687,246.078561 533.141057,235.822178 527.847815,228.537452 C522.556954,221.256351 512.4481,219.704661 505.269348,225.072735 C505.056141,225.231046 431.879802,281.298545 367.219819,208.45249 C361.253606,201.704329 351.023259,201.143593 344.373355,207.196877 C337.723451,213.250161 337.170781,223.629809 343.134612,230.377969 C427.641873,325.584558 524.153027,251.656911 524.432935,251.447844" id="Fill-11" fill="#272225"></path>
            <path d="M530.452083,228.372883 C526.790827,220.940914 517.801113,217.887469 510.371608,221.547605 C502.940927,225.208917 499.887529,234.198766 503.547609,241.628384 C507.208866,249.058002 516.198579,252.113798 523.628084,248.45131 C531.05759,244.791174 534.11334,235.801325 530.452083,228.372883" id="Fill-12" fill="#FFFFFE"></path>
            <path d="M550.107332,204.037908 L550.106118,204.035468 C544.867528,198.703811 536.243761,198.647701 530.935987,203.91227 L514.016169,220.698878 C508.710822,225.963447 508.653775,234.631202 513.892365,239.964078 L513.893579,239.964078 C519.132168,245.296955 527.757149,245.351845 533.062495,240.087276 L549.982314,223.300668 C555.290088,218.036099 555.345921,209.369565 550.107332,204.037908" id="Fill-13" fill="#E6805D"></path>
            <path d="M546.782862,201.392159 C541.756819,198.918871 535.472751,199.738065 531.273686,203.873904 L514.395092,220.501839 C512.767772,222.103978 511.636882,224.027512 511,226.076704 C517.713903,229.682121 526.01759,230.106217 533.378062,226.4863 C543.029373,221.740295 548.145015,211.47742 546.782862,201.392159" id="Fill-14" fill="#CA6546"></path>
            <path d="M252.496513,38.584552 C256.755604,30.6690727 266.663747,27.6911735 274.620158,31.9283535 C282.576569,36.1679322 285.571072,46.0227038 281.310776,53.9381831 C281.182991,54.1720495 236.422152,135.057454 317.704123,189.151359 C325.228959,194.14051 327.265077,204.255533 322.250127,211.741657 C317.236383,219.227781 307.069054,221.253425 299.544218,216.264274 C193.31287,145.564653 252.331357,38.8939753 252.496513,38.584552" id="Fill-15" fill="#332E31"></path>
            <path d="M311.854132,315.159181 C303.950545,319.264016 294.722393,320.926207 285.332075,319.314061 L285.330891,319.312869 C262.303126,315.359358 246.677058,293.162265 250.604586,269.982156 L260.334627,212.560926 C263.767367,192.301267 281.044701,177.732377 300.720218,177.023414 C309.813427,169.927827 321.706095,166.518848 333.875749,168.608799 C350.847688,171.523292 363.798586,184.348967 367.863423,200.172543 C380.993061,206.154046 389.067101,220.550163 386.537527,235.475322 L374.113377,308.801153 C371.110322,326.528801 354.243733,338.558532 336.633778,335.534418 L336.632594,335.534418 C325.029934,333.542172 315.883458,325.490975 311.854132,315.159181" id="Fill-16" fill="#332E31"></path>
            <path d="M288.877361,319 C299.95283,318.70864 310.079382,312.754855 315.837337,303.554312 L316.376847,303.653422 L316.378041,303.654616 C327.430831,305.540101 338.259224,302.954873 347,297.22558 L324.810866,293.439087 L346.643112,165.37421 C346.265932,165.247636 345.883978,165.123449 345.498444,165.006428 C330.757411,164.749696 317.093011,172.202076 309.120917,184.089346 C294.643671,185.35151 282.182425,196.263199 279.63169,211.222888 L267.466458,282.585909 C264.753392,298.494908 274.133941,313.798499 288.877361,319" id="Fill-17" fill="#47313B"></path>
            <path d="M331.168414,333 C320.913537,329.081166 313.40622,320.170736 311.042893,309.658872 L310.506149,309.573525 L310.504967,309.573525 C299.558471,307.701825 290.28723,301.71689 284,293.471454 L305.978114,297.231449 L327.96214,168 C328.358195,168.004741 328.755432,168.01541 329.153852,168.032005 C343.013424,172.644281 353.336871,184.121037 356.886,197.878446 C370.000751,203.826634 378.063728,218.148279 375.538432,232.998599 L363.128304,305.943921 C360.442222,321.736611 346.651221,332.981034 331.168414,333" id="Fill-18" fill="#47313B"></path>
            <path d="M315.998205,282.563525 L316.00059,282.563525 C337.507336,286.221382 352.103541,306.769617 348.43541,328.223097 L347.775957,332.081987 C344.107826,353.536657 323.508573,368.096712 302.001828,364.436476 L302.000635,364.436476 C280.491505,360.77743 265.896492,340.230384 269.564623,318.775715 L270.225269,314.916824 C273.892207,293.463344 294.490267,278.903289 315.998205,282.563525" id="Fill-19" fill="#272225"></path>
            <path d="M338.894419,350.702749 C329.278492,354.637105 318.307203,349.991865 314.392113,340.329814 C310.478212,330.665373 315.099516,319.640097 324.715444,315.706936 C325.094707,315.551617 456.904724,260.739459 487.02821,295.599069 C519.577079,333.265178 427.607533,428.000354 427.345972,428.275149 C420.120948,435.750784 408.231819,435.928803 400.791602,428.669421 C393.350196,421.408844 393.174237,409.461211 400.398072,401.983187 C400.591865,401.783661 460.120734,339.293954 450.305069,327.934144 C438.064022,313.770225 339.19997,350.577299 338.894419,350.702749" id="Fill-20" fill="#272225"></path>
            <path d="M317.884031,268.504281 C336.935588,271.753188 349.746981,289.831425 346.495755,308.883052 C343.24686,327.935845 325.16869,340.74612 306.117133,337.496047 C287.064411,334.245975 274.253018,316.167738 277.504244,297.116111 C280.754304,278.063318 298.832475,265.253043 317.884031,268.504281" id="Fill-21" fill="#BA663E"></path>
            <path d="M351.078804,213.717083 C350.34124,213.996712 349.648305,214.34955 349,214.765994 C351.451109,219.64691 358.077444,234.708504 353.780075,247.539062 C356.95348,249.12563 360.415805,249.491669 363.606827,248.281941 C370.922573,245.515648 374.049,235.531791 370.591374,225.987181 C367.131398,216.441371 358.396898,210.94839 351.078804,213.717083" id="Fill-22" fill="#332E31"></path>
            <path d="M330.716114,194.49221 L330.717318,194.493394 C349.80322,197.692566 362.755185,215.654328 359.498525,234.41026 L347.902699,301.22361 C344.647244,319.978359 326.37069,332.707586 307.283584,329.50723 C288.196478,326.308057 275.245717,308.345112 278.501172,289.589179 L290.096998,222.778197 C293.352453,204.019897 311.630212,191.294221 330.716114,194.49221" id="Fill-23" fill="#FBE6E3"></path>
            <path d="M330.797293,194.498011 L330.800912,194.499209 C340.603106,196.158952 348.790097,201.74891 354,209.359061 C353.737032,211.253515 353.316042,213.151562 352.722554,215.034042 L332.06147,280.474152 C326.261698,298.842697 306.379868,309.161606 287.874397,303.403997 C284.274872,302.283132 280.984153,300.632968 278.057729,298.568468 C277.90815,295.991435 278.046872,293.361712 278.501638,290.717619 L290.115657,223.114812 C293.377426,204.137934 311.682654,191.26235 330.797293,194.498011" id="Fill-24" fill="#FFFFFE"></path>
            <path d="M352,203.773355 C350.185962,202.360931 348.214351,201.094342 346.102097,200 L342,221.210481 L346.853497,221.939659 C349.521813,222.341569 351.735643,220.692592 351.773408,218.278839 L352,203.773355" id="Fill-25" fill="#FBE6E3"></path>
            <path d="M310.843302,195.904396 C312.819738,195.073084 314.88001,194.429948 317,194 L313.381318,216 L309.101143,215.24372 C306.748023,214.826873 305.452602,212.542551 306.222045,210.167713 L310.843302,195.904396" id="Fill-26" fill="#FBE6E3"></path>
            <path d="M332.359583,199.289414 C342.45273,201.00523 349.353333,209.878141 347.775255,219.107758 C346.195965,228.336166 336.733564,234.425561 326.640417,232.710954 C316.54727,230.993928 309.646667,222.122226 311.224745,212.8914 C312.805248,203.662992 322.266436,197.573597 332.359583,199.289414" id="Fill-27" fill="#E15C5C"></path>
            <path d="M330.716723,231.9494 C329.172089,232.059991 327.582304,231.991308 325.973507,231.723562 C323.845477,231.367342 321.862404,230.692155 320.076569,229.76319 C319.981514,229.263784 319.972009,228.73644 320.064687,228.209095 L320.962951,223.052061 C321.3099,221.061423 323.252575,219.713376 325.283175,220.052134 L328.885737,220.655146 C330.916337,220.993904 332.293438,222.897234 331.94649,224.887872 L330.716723,231.9494" id="Fill-28" fill="#DF4E4E"></path>
            <path d="M332.473112,194.255274 C341.20101,195.770306 347.171543,203.597772 345.805324,211.741524 C344.440291,219.885275 336.257219,225.25851 327.526947,223.744685 C318.796675,222.230859 312.828516,214.400979 314.194736,206.258435 C315.559768,198.11589 323.74284,192.741449 332.473112,194.255274" id="Fill-29" fill="#FFFFFE"></path>
            <path d="M402.282614,92.3241009 C414.528782,94.4127976 422.764974,106.034886 420.676223,118.28192 C418.587471,130.528954 406.965077,138.764929 394.716533,136.676233 C382.470365,134.587536 374.234172,122.96426 376.324112,110.718414 C378.411676,98.4701919 390.035258,90.2342161 402.282614,92.3241009" id="Fill-30" fill="#5E2B31"></path>
            <path d="M460.79335,99.1142484 L543.679204,66 C534.082847,69.8367541 529.381108,80.7965358 533.227985,90.3552023 L556.127084,147.263495 L556.125893,147.263495 L560.657374,158.530549 C564.504251,168.089216 559.79775,179.054929 550.203774,182.885752 L467.320301,216 C476.917849,212.164432 481.621969,201.205837 477.77271,191.64717 L454.873612,134.737691 L454.875993,134.737691 L450.342132,123.467078 C446.497636,113.909598 451.198184,102.94863 460.79335,99.1142484" id="Fill-31" fill="#FFF4D3"></path>
            <path d="M491.503068,177.289566 L510.998169,169.405245 C511.971209,169.010552 513.088492,169.492292 513.479836,170.473659 L513.479836,170.474851 C513.869998,171.45741 513.393528,172.585445 512.419305,172.978946 L492.923022,180.862074 C491.948799,181.256767 490.831517,180.775027 490.442537,179.791275 L490.441355,179.791275 C490.05001,178.807524 490.528845,177.681874 491.503068,177.289566 Z M488.030626,168.555046 C487.056403,168.948546 486.57875,170.074196 486.967729,171.056755 L486.970094,171.05914 C487.360256,172.040507 488.477539,172.523439 489.450579,172.128746 L508.946862,164.244426 C509.921085,163.852118 510.398738,162.724083 510.008576,161.742716 L510.008576,161.740331 C509.616049,160.757772 508.499949,160.277225 507.525726,160.671917 L488.030626,168.555046 Z M484.558183,159.820525 L504.053283,151.937397 C505.028688,151.542704 506.143606,152.024444 506.534951,153.007003 L506.536133,153.009388 C506.926295,153.990755 506.448642,155.116405 505.474419,155.511098 L485.979319,163.395418 C485.005096,163.788919 483.887813,163.307179 483.498834,162.323427 L483.498834,162.322235 C483.105125,161.339676 483.58396,160.215218 484.558183,159.820525 Z M481.08574,151.086005 C480.111517,151.480698 479.633864,152.606348 480.025208,153.588907 L480.026391,153.5901 C480.416553,154.573851 481.532653,155.055591 482.506876,154.660898 L525.040458,137.461346 C526.013499,137.067845 526.493516,135.941003 526.102172,134.958444 L526.102172,134.957252 C525.709645,133.974693 524.592363,133.492952 523.619322,133.887645 L481.08574,151.086005 Z M512.562364,128.221237 C511.586959,128.614738 511.109306,129.739195 511.501833,130.724139 L511.501833,130.725332 C511.891995,131.706698 513.009277,132.188438 513.9835,131.794938 L516.542018,130.761105 C517.516241,130.366412 517.992711,129.239569 517.601367,128.25701 C517.211205,127.273259 516.095105,126.791518 515.119699,127.186211 L512.562364,128.221237 Z M503.60637,131.842635 L506.164888,130.807609 C507.139111,130.414109 508.254029,130.894656 508.646555,131.877215 L508.646555,131.878408 C509.0379,132.862159 508.560247,133.986617 507.584841,134.38131 L505.028688,135.416335 C504.053283,135.809836 502.936001,135.328096 502.545839,134.346729 L502.547021,134.343152 C502.154494,133.360593 502.632147,132.237328 503.60637,131.842635 Z M477.61448,142.352677 L497.10958,134.469549 C498.083803,134.076049 499.199903,134.556596 499.59243,135.539155 L499.59243,135.540348 C499.981409,136.522907 499.504939,137.648557 498.530716,138.04325 L479.034433,145.92757 C478.06021,146.322263 476.942928,145.839331 476.553948,144.856772 L476.551583,144.854387 C476.162604,143.87302 476.640257,142.74737 477.61448,142.352677 Z M474.142037,133.61935 C473.167814,134.014043 472.690161,135.137308 473.081505,136.121059 L473.080323,136.122252 C473.471667,137.104811 474.58895,137.587743 475.563173,137.194243 L518.097937,119.993498 C519.070978,119.599997 519.547448,118.473155 519.157286,117.490596 L519.156104,117.489403 C518.767124,116.506845 517.649842,116.026297 516.675619,116.42099 L474.142037,133.61935 Z M487.282224,108.029888 C486.308001,108.423389 485.830348,109.549039 486.222875,110.531598 L486.222875,110.533983 C486.611854,111.515349 487.729137,111.998282 488.70336,111.603589 L503.274141,105.71062 C504.249546,105.318312 504.724835,104.190277 504.335855,103.20891 L504.335855,103.206525 C503.944511,102.223966 502.827228,101.743419 501.853005,102.138112 L487.282224,108.029888 Z M467.197151,116.151502 C466.22411,116.546195 465.745275,117.670652 466.136619,118.654404 L466.137802,118.655596 C466.526782,119.636963 467.644064,120.119895 468.618287,119.726395 L483.189068,113.833425 C484.164474,113.438732 484.640944,112.314275 484.250782,111.330523 L484.250782,111.329331 C483.858256,110.346772 482.742156,109.866224 481.769115,110.258532 L467.197151,116.151502 Z M470.669594,124.884829 L513.203176,107.685277 C514.176217,107.291777 515.293499,107.773517 515.686026,108.756076 L515.686026,108.757268 C516.075005,109.738635 515.598535,110.865477 514.624312,111.26017 L472.09073,128.459722 C471.116507,128.853223 469.999224,128.372675 469.609062,127.390116 L469.609062,127.387731 C469.2189,126.405172 469.694189,125.279522 470.669594,124.884829 Z M524.16082,153.941865 L529.381898,151.832464 C530.356121,151.437771 531.474586,151.918318 531.863566,152.903262 L531.863566,152.904455 C532.253728,153.885821 531.778439,155.012664 530.803034,155.406164 L525.581956,157.516758 C524.608915,157.911451 523.491633,157.428519 523.102653,156.448345 L523.100288,156.44596 C522.710126,155.463401 523.188961,154.336558 524.16082,153.941865 L524.16082,153.941865 Z" id="Fill-32" fill="#D2C092"></path>
            <path d="M526.143827,178.982459 C525.782028,179.840134 524.816083,180.23279 523.98567,179.857928 C523.155256,179.485438 522.77508,178.486597 523.136879,177.630108 L526.380431,169.888495 C526.74223,169.03082 527.708174,168.636977 528.538588,169.010653 C528.944032,169.194525 529.243808,169.526681 529.400013,169.918151 L530.727756,173.243273 L535.894009,161.973685 C536.277631,161.126687 537.253912,160.763687 538.073989,161.161088 C538.657461,161.442235 539.003179,162.032999 539.016962,162.652233 L539.101956,166.388991 L543.118494,161.598823 C543.710006,160.890618 544.747161,160.815883 545.431707,161.424441 C546.11855,162.034185 546.192058,163.106575 545.601695,163.813594 L538.863054,171.849403 C538.571318,172.245618 538.111892,172.507784 537.591591,172.520833 C536.685372,172.539813 535.930763,171.796021 535.910089,170.861238 L535.889415,169.897985 L532.14279,178.070215 C531.984288,178.478293 531.669581,178.821126 531.244611,179.000253 C530.407306,179.356135 529.447104,178.943312 529.101386,178.077333 L527.844854,174.920662 L526.143827,178.982459" id="Fill-33" fill="#91928E"></path>
            <path d="M348.576353,82.3530975 L371.511104,86.2917293 C384.865063,88.5852619 393.927104,101.462667 391.649371,114.910453 L387.845198,137.367859 C385.567464,150.813243 372.778764,159.940542 359.424805,157.647009 L336.488861,153.708378 C323.136095,151.414845 314.072861,138.535039 316.350595,125.088454 L320.154768,102.629847 C322.432502,89.1832615 335.222394,80.059565 348.576353,82.3530975" id="Fill-34" fill="#673037"></path>
            <path d="M322.542796,91.0453568 C326.084898,90.6414221 328.490287,92.9804072 327.914985,96.2694287 C327.339682,99.5584501 324.000151,102.551855 320.458049,102.954661 C316.915947,103.358596 314.510559,101.018482 315.084703,97.7305892 C315.660005,94.4415677 318.999536,91.4492915 322.542796,91.0453568" id="Fill-35" fill="#673037"></path>
            <path d="M321.102682,82.6229495 C321.781814,78.0172206 325.643449,75.7949965 329.729395,77.6601874 C333.814103,79.5253783 336.576485,84.7713047 335.897353,89.3782646 C335.218221,93.9827623 331.355347,96.2049865 327.270639,94.3397956 C323.184693,92.4746047 320.423549,87.2286783 321.102682,82.6229495" id="Fill-36" fill="#673037"></path>
            <path d="M392.514184,54.2765062 C405.189052,56.6153491 416.129844,73.1629312 416.951185,91.2354819 C417.771324,109.306837 408.159349,122.062315 395.484481,119.723472 C382.809613,117.384629 371.868821,100.837047 371.048682,82.7656917 C370.229746,64.6943362 379.840519,51.9376634 392.514184,54.2765062" id="Fill-37" fill="#673037"></path>
            <path d="M358.391265,183.613123 L354.373617,182.911267 C349.970891,182.80007 346.012754,186.029564 345.251933,190.599399 L342.853947,205 L316,200.307011 L334.028657,92 L372.521298,98.7268168 C393.688925,102.426207 408.054672,123.199708 404.444273,144.890284 L403.444237,150.902093 C399.832671,172.593865 379.558892,187.312513 358.391265,183.613123" id="Fill-38" fill="#E6805D"></path>
            <path d="M362.735714,153.986866 L366.361472,143.95829 C366.828933,142.667459 368.334674,141.803777 369.708868,142.038473 L392.210414,145.872239 C393.584608,146.106935 394.326907,147.354346 393.860621,148.644003 L390.233688,158.67258 C387.773059,165.478775 379.82505,170.034232 372.571185,168.797382 L371.448339,168.606105 C364.194474,167.371602 360.27391,160.791888 362.735714,153.986866" id="Fill-39" fill="#B24251"></path>
            <path d="M373,143 L392.715773,146.952291 C393.26533,147.061057 393.706132,147.377839 394,147.814263 C390.777863,150.321324 386.830312,151.529988 383.091014,150.779501 L381.171616,150.394741 C377.200926,149.600748 374.296953,146.76195 373,143" id="Fill-40" fill="#FFFFFE"></path>
            <path d="M364.693306,154.010909 L366.116576,150 C366.386938,150.026667 366.654918,150.064242 366.922897,150.111515 L368.705856,150.420606 C375.138559,151.53697 378.559171,157.643636 376.306951,163.987879 L374.881299,168 C374.613319,167.972121 374.344148,167.933333 374.07736,167.888485 L372.293211,167.578182 C365.859316,166.461818 362.441086,160.356364 364.693306,154.010909" id="Fill-41" fill="#E15C5C"></path>
            <path d="M348.070627,88.2074434 L372.970152,92.499956 C378.149644,93.3939279 382.226152,97.01566 384,101.656834 L371.925658,99.5745187 C364.104493,98.2269255 356.617566,103.588344 355.285389,111.491731 L351.822446,132 L340.996722,130.133638 C333.175556,128.786044 327.871918,121.220461 329.205289,113.320693 L331.431551,100.124655 C332.764921,92.2212684 340.251849,86.8598502 348.070627,88.2074434" id="Fill-42" fill="#673037"></path>
            <path d="M334.562576,121.545998 C339.45663,123.246109 342.724833,128.4085 341.861774,133.077952 C340.997445,137.747403 336.331847,140.154724 331.436524,138.454612 C326.542469,136.755672 323.274266,131.59211 324.138595,126.921488 C325.001654,122.252036 329.668521,119.844716 334.562576,121.545998" id="Fill-43" fill="#E6805D"></path>
            <path d="M334.695508,125.272889 C336.86942,126.121772 338.323485,128.703678 337.938086,131.038784 C337.5553,133.373891 335.480677,134.576701 333.305459,133.727818 C331.130241,132.877579 329.677482,130.295673 330.061575,127.960566 C330.445667,125.62546 332.518984,124.42265 334.695508,125.272889" id="Fill-44" fill="#CA6546"></path>
            <path d="M340.981456,155 C340.981456,155 340.109962,171.370525 356,178 C356,178 332.09096,175.000103 340.981456,155" id="Fill-45" fill="#E3694B"></path>
            <path d="M347.363215,120.087443 L347.365741,120.088588 C351.037815,120.655609 353.530076,123.845818 352.903537,127.175777 L351.452139,134.890699 C350.826864,138.219513 347.308898,140.480724 343.638087,139.912557 L343.633034,139.912557 C339.96096,139.344391 337.469962,136.154182 338.096501,132.824223 L339.546635,125.109301 C340.173174,121.780487 343.689877,119.519276 347.363215,120.087443" id="Fill-46" fill="#673037"></path>
            <path d="M318.390768,190 L346,194.78811 L343.797308,207.919433 C342.584388,215.141844 335.780757,220.042156 328.675996,218.810371 L326.899206,218.501814 C319.794445,217.271248 314.973956,210.354954 316.186877,203.132543 L318.390768,190" id="Fill-47" fill="#E6805D"></path>
            <path d="M337.256774,192 L346,193.493587 L343.800806,206.410194 C342.810692,212.004291 338.334951,216.156058 333,217 L337.256774,192" id="Fill-48" fill="#E3694B"></path>
            <path d="M360.547193,183.567986 L356.456786,182.864649 C351.974328,182.753217 347.944511,185.989527 347.169911,190.569007 L344.728498,205 L336,203.499867 L338.442601,189.067676 C339.216013,184.486997 343.24583,181.250688 347.728288,181.363318 L351.818695,182.066655 C373.37085,185.773853 394.011782,171.022943 397.687565,149.286589 L398.706899,143.262093 C402.382682,121.525739 387.755586,100.708396 366.204619,97 L374.933117,98.5025295 C396.484084,102.209728 411.109992,123.02707 407.434209,144.763424 L406.416063,150.78792 C402.739092,172.525473 382.09816,187.275184 360.547193,183.567986" id="Fill-49" fill="#E3694B"></path>
            <path d="M372.111756,121.069211 L372.111756,121.069211 C374.646604,121.514745 376.366726,124.022232 375.933082,126.642461 L375.214284,131 C375.138068,128.711205 373.512559,126.700869 371.249724,126.304235 C368.984261,125.904885 366.805527,127.242845 366,129.376789 L366.720112,125.01925 C367.151128,122.397663 369.578222,120.620961 372.111756,121.069211" id="Fill-50" fill="#673037"></path>
            <path d="M400.501158,126.061784 L400.501158,126.061784 C402.782516,126.464618 404.329675,128.72021 403.939882,131.07927 L403.293786,135 C403.225706,132.941686 401.759976,131.133073 399.724241,130.773006 C397.687171,130.414319 395.72352,131.618681 395,133.537659 L395.646096,129.615549 C396.035889,127.257869 398.219799,125.66033 400.501158,126.061784" id="Fill-51" fill="#673037"></path>
            <path d="M357.681436,98.1439975 C363.124406,99.07134 366.784519,104.237451 365.856048,109.680808 C364.927576,115.125361 359.761833,118.78454 354.320058,117.856003 C348.875893,116.92866 345.214585,111.761354 346.144251,106.319192 C347.072723,100.874639 352.238466,97.2154598 357.681436,98.1439975" id="Fill-52" fill="#673037"></path>
            <path d="M347.316483,82.1875907 L403.093775,91.771589 C410.202973,92.9937983 415.026432,99.8518847 413.813103,107.013117 C412.602163,114.173147 405.793908,119.033114 398.68471,117.812107 L342.907418,108.228109 C335.797026,107.007103 330.973567,100.149016 332.186895,92.9877835 C333.397836,85.8265508 340.207284,80.9677873 347.316483,82.1875907" id="Fill-53" fill="#673037"></path>
            <path d="M369.335537,65.1245477 C374.779472,66.1638337 379.939345,73.4436468 380.859331,81.3826367 C381.77698,89.3216267 378.108724,94.9150059 372.66362,93.87572 C367.219685,92.8352311 362.059812,85.5566208 361.140995,77.616428 C360.222178,69.6774381 363.890433,64.0840589 369.335537,65.1245477" id="Fill-54" fill="#673037"></path>
            <path d="M318.810306,184.065409 L319,184.098478 L314.479931,211 L310.142574,210.247683 C307.758017,209.836685 306.445289,207.569105 307.225012,205.216492 L313.057809,187.59551 C313.837532,185.241716 316.426913,183.652048 318.810306,184.065409" id="Fill-55" fill="#FFFFFE"></path>
            <path d="M327.282506,221.055131 L330.884969,221.691989 C332.915512,222.051685 334.292575,224.066965 333.946824,226.17217 L332.582831,234.463645 C332.417679,235.466358 331.492112,236.143867 330.526148,235.973874 L325.787817,235.136227 C323.317659,234.700158 321.642371,232.247576 322.065352,229.686593 L322.961215,224.229567 C323.308154,222.124363 325.251963,220.696667 327.282506,221.055131" id="Fill-56" fill="#E15C5C"></path>
            <path d="M352.078694,207.7171 C351.342343,207.995533 350.649445,208.349575 350,208.766025 C352.452154,213.645811 359.078139,228.708819 354.779822,241.539559 C357.955409,243.126149 361.415202,243.490993 364.606056,242.282448 C371.922589,239.514916 375.050026,229.532118 371.590233,219.986172 C368.132789,210.441426 359.396402,204.948367 352.078694,207.7171" id="Fill-57" fill="#FFFFFE"></path>
            <path d="M275.635764,27.7388339 C283.512917,30.2994966 287.821838,38.7586189 285.261175,46.6345967 C282.700512,54.5129259 274.240214,58.8218464 266.364236,56.2611837 C258.487083,53.700521 254.178162,45.2390473 256.738825,37.3630695 C259.299488,29.4870917 267.759786,25.1781712 275.635764,27.7388339" id="Fill-58" fill="#FFFFFE"></path>
            <path d="M297.530401,6.61922158 L297.530401,6.62163756 C303.50275,11.0259692 304.784437,19.5120991 300.38128,25.4856098 L286.335872,44.5295725 C281.931507,50.5030831 273.442896,51.7847606 267.470548,47.3804289 L267.46934,47.3804289 C261.496991,42.9748893 260.215304,34.4875514 264.619669,28.5164567 L278.665077,9.47007804 C283.069442,3.49777536 291.556845,2.21488996 297.530401,6.61922158" id="Fill-59" fill="#E6805D"></path>
            <path d="M298.668231,10 C301.77424,14.5074135 301.85841,20.6885705 298.431131,25.3211899 L284.647329,43.9426191 C283.318384,45.7380249 281.608894,47.0999347 279.709724,48 C275.266471,42.0231886 273.693314,34.0655249 276.176935,26.452768 C279.433502,16.470548 288.68514,10.0968574 298.668231,10" id="Fill-60" fill="#CA6546"></path>
            <path d="M304.416997,1.1822246 C317.019734,5.27723358 323.914516,18.8157618 319.818358,31.4186281 C315.722201,44.020304 302.183811,50.9151563 289.583455,46.8177665 C276.980718,42.7215671 270.084746,29.1830389 274.182094,16.5825534 C278.279442,3.97968713 291.81545,-2.9151652 304.416997,1.1822246" id="Fill-61" fill="#E6805D"></path>
            <path d="M268.759363,337.969549 C276.404479,330.947953 288.321621,331.424436 295.374988,339.035115 C302.427164,346.645795 301.948526,358.508073 294.3046,365.530854 C294.060519,365.754872 212.765821,437.949062 220.456182,454.981529 C226.578466,468.537571 314.655064,442.4792 314.919387,442.386748 C324.760048,438.975514 335.518695,444.15163 338.945365,453.947965 C342.372034,463.745485 337.173688,474.454486 327.333027,477.866906 C326.975834,477.99136 202.670362,521.72936 182.261557,476.531096 C163.423209,434.811627 268.456939,338.246904 268.759363,337.969549" id="Fill-62" fill="#272225"></path>
            <path d="M503.088251,250.050285 C504.994186,250.374798 506.274215,252.182067 505.949719,254.088101 C505.62394,255.994134 503.816764,257.27423 501.910829,256.949716 C500.004893,256.623921 498.724864,254.816652 499.050643,252.910618 C499.375139,251.005867 501.182315,249.725772 503.088251,250.050285" id="Fill-63" fill="#332E30"></path>
            <path d="M491.087895,256.050237 C492.993852,256.375975 494.275179,258.182923 493.949396,260.088618 C493.624896,261.994313 491.8177,263.274181 489.913026,262.949725 C488.007069,262.623987 486.725742,260.81704 487.050242,258.911345 C487.374743,257.006932 489.181939,255.725782 491.087895,256.050237" id="Fill-64" fill="#332E30"></path>
            <path d="M481.089382,258.049918 C482.994133,258.37567 484.274228,260.182701 483.949715,262.088484 C483.625202,263.994267 481.817933,265.274193 479.911899,264.949723 C478.005866,264.62397 476.72577,262.816939 477.050284,260.911157 C477.376079,259.006656 479.183348,257.72673 481.089382,258.049918" id="Fill-65" fill="#332E30"></path>
            <path d="M257.923499,61.7772698 C257.524608,59.884195 255.66739,58.6772956 253.776825,59.0761752 C251.884978,59.4763374 250.675478,61.3322177 251.076934,63.22401 C251.475825,65.1158023 253.33176,66.3227016 255.223608,65.923822 C257.114173,65.5249424 258.323673,63.6690621 257.923499,61.7772698" id="Fill-66" fill="#272225"></path>
            <path d="M254.923517,72.7778217 C254.523421,70.8858721 252.667851,69.6763069 250.776374,70.0765024 C248.884898,70.4766979 247.6782,72.3314499 248.075731,74.2246822 C248.475826,76.1153492 250.332679,77.3236316 252.222873,76.9234362 C254.11435,76.5245234 255.323612,74.6684887 254.923517,72.7778217" id="Fill-67" fill="#272225"></path>
            <path d="M252.923902,85.7773361 C252.523852,83.8857172 250.668491,82.6763635 248.777229,83.076489 C246.887249,83.4766145 245.678123,85.3323247 246.075609,87.2239436 C246.476941,89.1142801 248.332301,90.3236337 250.223564,89.9235082 C252.114826,89.5246652 253.32267,87.6676725 252.923902,85.7773361" id="Fill-68" fill="#272225"></path>
            <path d="M325,229.997782 C378.997211,287.742728 389.21229,218.735478 435.542557,217.332877 C442.272338,203.461001 456,192.375356 456,192.375356 C427.334668,178.675396 404.042009,193.866879 390.245542,207.784995 C371.764446,226.425477 365.557815,252.809312 331.258827,229.352799 L325,229.997782" id="Fill-69" fill="#E15C5C"></path>
            <path d="M316.923423,330.394934 L307.965194,329.483516 C307.457241,329.433223 306.974506,329.60005 306.605849,329.907945 C306.237193,330.21216 305.981415,330.666029 305.929779,331.186138 L305.409818,336.525843 C305.360583,337.043499 305.523897,337.539074 305.825306,337.915663 C306.127917,338.292251 306.569824,338.553532 307.076577,338.605053 L316.036006,339.515244 C316.541558,339.566764 317.025494,339.39871 317.394151,339.092042 C317.764008,338.784147 318.018585,338.331505 318.070221,337.813849 L318.590182,332.474144 C318.641818,331.954035 318.478505,331.457232 318.178296,331.081871 C317.874485,330.707735 317.430176,330.446454 316.923423,330.394934 Z M308.301428,326.026753 L317.260858,326.938171 C318.70186,327.084145 319.954331,327.818922 320.806924,328.882447 C321.659517,329.954559 322.117035,331.350512 321.974135,332.817612 L321.454174,338.157317 C321.310074,339.630551 320.591974,340.90997 319.55085,341.780908 C318.509726,342.651845 317.140775,343.120434 315.698572,342.973233 L306.740343,342.063042 C305.29814,341.915842 304.045669,341.181065 303.193076,340.11754 C302.340483,339.054015 301.882965,337.655608 302.025865,336.183601 L302.545826,330.842669 C302.689926,329.375569 303.408026,328.098603 304.44915,327.226439 C305.491474,326.348142 306.859225,325.879553 308.301428,326.026753 L308.301428,326.026753 Z" id="Fill-70" fill="#FBE6E3"></path>
            <path d="M316.336567,289.028571 C317.425623,289.214423 318.156988,290.247599 317.971149,291.336731 C317.78531,292.424863 316.752207,293.15628 315.66415,292.971428 C314.575095,292.785576 313.84373,291.753399 314.028569,290.664267 C314.215407,289.575136 315.247512,288.843719 316.336567,289.028571" id="Fill-71" fill="#FBE6E3"></path>
            <path d="M321.337284,263.029108 C322.424544,263.213981 323.157046,264.24727 322.971172,265.33652 C322.786298,266.425771 321.754001,267.156268 320.663743,266.971395 C319.574485,266.785523 318.842983,265.753233 319.028856,264.663983 C319.21473,263.574732 320.248026,262.842236 321.337284,263.029108" id="Fill-72" fill="#FBE6E3"></path>
            <path d="M325.337103,238.028571 C326.426277,238.215422 327.157722,239.2476 326.970864,240.335732 C326.786004,241.424864 325.753787,242.156281 324.663614,241.971429 C323.57444,241.784578 322.842995,240.7524 323.028854,239.664268 C323.214713,238.575136 324.247929,237.843719 325.337103,238.028571" id="Fill-73" fill="#FBE6E3"></path>
            <path d="M347.242589,190.033368 L347.031487,190 L342,218.149383 L346.82686,218.935395 C349.480532,219.366714 351.680917,217.592006 351.71977,214.995446 L351.999513,195.545343 C352.037071,192.946311 349.896261,190.464687 347.242589,190.033368" id="Fill-74" fill="#FFFFFE"></path>
            <path d="M554.523202,194.394677 C548.666212,182.507811 534.280874,177.618541 522.39428,183.476855 C510.507687,189.332789 505.619719,203.719647 511.475518,215.605323 C517.333699,227.492189 531.719036,232.381459 543.60563,226.523145 C555.492224,220.667211 560.381382,206.281543 554.523202,194.394677" id="Fill-75" fill="#E6805D"></path>
            <path d="M111.050136,271.517424 L188,316.238107 C179.089416,311.062674 167.572796,314.128013 162.405796,323.049575 L131.639847,376.159544 L131.639847,376.158356 L125.548813,386.673181 C120.380627,395.592367 108.855703,398.658894 99.9510503,393.482273 L23,348.760403 C31.9093974,353.9394 43.4283907,350.875249 48.5930181,341.953687 L79.3589668,288.841342 L79.3613392,288.84253 L85.4547454,278.327704 C90.6217452,269.408518 102.13718,266.340803 111.050136,271.517424" id="Fill-76" fill="#FFF4D3"></path>
            <path d="M44,347.198027 C46.4155291,345.672908 48.5035885,343.576596 50.0317804,340.964931 L67.5719488,311 C73.2715646,314.266617 76.6624604,320.55788 75.8913221,327.944995 C74.7175956,339.08965 64.5167388,348.507931 53.10577,348.981404 C49.7453911,349.121003 46.6584905,348.469541 44,347.198027" id="Fill-77" fill="#EBDDBA"></path>
            <path d="M78.9482607,336.542171 L97.6486866,347.067251 C98.5832819,347.593741 98.9045491,348.764768 98.3618023,349.672551 L98.3618023,349.673731 C97.8202724,350.577972 96.6106529,350.890797 95.6760575,350.365487 L76.9756316,339.839227 C76.0422532,339.313917 75.720986,338.141709 76.2649497,337.235107 C76.8064796,336.327325 78.0136653,336.016861 78.9482607,336.542171 Z M83.7672681,328.485456 C82.8326727,327.958966 81.6267039,328.27061 81.0839571,329.176031 L81.0839571,329.179573 C80.5412103,330.083814 80.8612606,331.257202 81.7958559,331.782511 L122.593134,354.743854 C123.526513,355.270344 124.737349,354.9587 125.276445,354.052098 L125.278879,354.052098 C125.820409,353.143135 125.497925,351.972108 124.565763,351.446799 L83.7672681,328.485456 Z M122.1088,339.295029 L124.56333,340.676181 C125.496708,341.202671 125.819192,342.373698 125.276445,343.2803 L125.275228,343.2803 C124.733699,344.186901 123.525296,344.498546 122.590701,343.973236 L120.137388,342.592085 C119.202792,342.066775 118.882742,340.893387 119.423055,339.987966 L119.424272,339.987966 C119.967019,339.077823 121.174204,338.768539 122.1088,339.295029 Z M113.518554,334.461 L115.973084,335.840971 C116.907679,336.366281 117.227729,337.537308 116.6862,338.44509 L116.684983,338.44509 C116.142236,339.352872 114.93505,339.664517 114.000455,339.138027 L111.545925,337.758056 C110.61133,337.230385 110.291279,336.059358 110.834026,335.153937 L110.835243,335.152756 C111.376773,334.244974 112.583959,333.93333 113.518554,334.461 Z M88.5874924,320.428741 C87.652897,319.903431 86.4469282,320.212715 85.9029645,321.119316 L85.9029645,321.121677 C85.3602177,322.027099 85.680268,323.200487 86.6160803,323.725796 L105.315289,334.249696 C106.249885,334.776186 107.458287,334.463361 108.001034,333.556759 C108.542564,332.650158 108.221297,331.47795 107.287918,330.95264 L88.5874924,320.428741 Z M93.4077167,312.372026 C92.4719044,311.844355 91.2647187,312.154819 90.7244057,313.062601 L90.7231888,313.062601 C90.1792251,313.970384 90.4992754,315.141411 91.4350876,315.669081 L132.232366,338.630424 C133.166962,339.154553 134.375364,338.842909 134.916894,337.938668 L134.916894,337.936307 C135.458424,337.029705 135.138374,335.857498 134.203778,335.333368 L93.4077167,312.372026 Z M122.310809,307.100042 C121.376213,306.572371 120.169028,306.884016 119.626281,307.791798 C119.083534,308.697219 119.403584,309.869427 120.33818,310.397098 L134.313301,318.262576 C135.249113,318.787886 136.457516,318.475061 137.000263,317.57082 L137.000263,317.56964 C137.541793,316.663038 137.220526,315.49083 136.28593,314.96434 L122.310809,307.100042 Z M103.044515,296.255054 C102.111136,295.730925 100.90395,296.040208 100.359987,296.947991 L100.359987,296.949171 C99.8172399,297.854592 100.138507,299.027981 101.073102,299.55211 L115.049441,307.418769 C115.984036,307.94644 117.192439,307.633615 117.733969,306.727013 L117.735186,306.725833 C118.277932,305.81805 117.956665,304.648203 117.020853,304.121713 L103.044515,296.255054 Z M98.2255072,304.311769 L139.024003,327.274292 C139.957381,327.800783 140.278648,328.97181 139.735901,329.878412 L139.735901,329.880773 C139.194372,330.787374 137.983535,331.097838 137.051374,330.572529 L96.2528781,307.610005 C95.3194997,307.084696 94.9982325,305.911308 95.5397624,305.007067 L95.5421962,305.005886 C96.084943,304.098104 97.2909118,303.78646 98.2255072,304.311769 L98.2255072,304.311769 Z" id="Fill-78" fill="#D2C092"></path>
            <path d="M69.4569183,133.229236 L132.137318,70 C124.881921,77.3228395 124.858334,89.3256532 132.081888,96.6759728 L175.088275,140.430208 L175.085917,140.430208 L183.599686,149.094791 C190.822061,156.442721 190.797294,168.453898 183.541897,175.771959 L120.860318,239 C128.119253,231.677161 128.145199,219.674347 120.919286,212.326417 L77.9128991,168.570987 L77.9140784,168.568598 L69.4014886,159.904014 C62.1791139,152.554889 62.2015217,140.552076 69.4569183,133.229236" id="Fill-79" fill="#FFF4D3"></path>
            <path d="M123.214688,184.700321 L138.425981,169.695963 C139.187271,168.945446 140.427085,168.94784 141.18475,169.700751 L141.187166,169.703145 C141.941206,170.454859 141.939997,171.684175 141.178708,172.434692 L125.967415,187.440247 C125.207334,188.189567 123.965102,188.185976 123.208646,187.433065 L123.208646,187.430671 C122.449773,186.678957 122.453399,185.450838 123.214688,184.700321 Z M116.485129,178.00791 C115.72384,178.756034 115.722631,179.98535 116.479087,180.738261 L116.481504,180.739458 C117.236752,181.493566 118.478983,181.497157 119.237856,180.745443 L152.428877,148.011165 C153.18775,147.261845 153.191375,146.030135 152.433711,145.278421 L152.433711,145.277224 C151.674838,144.524313 150.433815,144.521919 149.673734,145.271239 L116.485129,178.00791 Z M137.026658,144.416583 L139.024137,142.446326 C139.78301,141.697006 141.024033,141.6994 141.781697,142.452311 L141.782906,142.453508 C142.539362,143.207616 142.538154,144.435735 141.776864,145.186252 L139.780593,147.154115 C139.020512,147.904632 137.779489,147.902238 137.023033,147.150524 L137.021824,147.14813 C136.26416,146.394022 136.266577,145.164706 137.026658,144.416583 Z M130.039711,151.307695 C129.278421,152.059409 129.276004,153.287528 130.033669,154.039242 L130.033669,154.042833 C130.791333,154.794547 132.032356,154.796941 132.792437,154.047621 L134.789916,152.078561 C135.548789,151.329241 135.551206,150.098728 134.793542,149.345817 C134.035877,148.591709 132.796063,148.589315 132.034773,149.339832 L130.039711,151.307695 Z M109.759196,171.313106 C108.997906,172.063623 108.993072,173.291742 109.750737,174.04585 L109.753154,174.04585 C110.508401,174.798761 111.750633,174.802352 112.511922,174.053032 L127.723215,159.048675 C128.483296,158.298157 128.485713,157.067645 127.729257,156.31593 L127.729257,156.314733 C126.970384,155.560625 125.730569,155.559428 124.970488,156.308748 L109.759196,171.313106 Z M103.028428,164.619499 C102.268347,165.370016 102.26593,166.598135 103.023595,167.351046 L103.023595,167.35344 C103.781259,168.106351 105.022282,168.108745 105.782363,167.358228 L138.972176,134.62395 C139.731049,133.87463 139.733466,132.64292 138.97701,131.891206 L138.975801,131.890009 C138.219345,131.138295 136.977114,131.134704 136.218241,131.884024 L103.028428,164.619499 Z M105.244627,135.774264 C104.484546,136.524782 104.48092,137.754098 105.238585,138.505812 L105.239793,138.508206 C105.996249,139.261117 107.238481,139.263511 107.998562,138.515388 L119.368363,127.300723 C120.127236,126.550205 120.130861,125.319692 119.374405,124.567978 L119.371988,124.566781 C118.615532,123.812673 117.374509,123.811476 116.613219,124.560796 L105.244627,135.774264 Z M89.5717269,151.233481 C88.8116456,151.982801 88.8092289,153.21092 89.5656849,153.966225 L89.5668933,153.967422 C90.3233494,154.719136 91.5655808,154.722727 92.3244537,153.973407 L103.695463,142.757545 C104.456753,142.008225 104.457961,140.777712 103.701505,140.024801 C102.941424,139.270693 101.702817,139.268299 100.942736,140.018816 L89.5717269,151.233481 Z M96.3012859,157.927088 L129.48989,125.191614 C130.249972,124.442294 131.489786,124.443491 132.248659,125.196402 L132.248659,125.197599 C133.005115,125.949313 133.002698,127.179826 132.243825,127.930343 L99.0540127,160.665818 C98.2939314,161.415138 97.0517,161.412744 96.2952439,160.659833 L96.2952439,160.657439 C95.5375795,159.905724 95.5399962,158.676409 96.3012859,157.927088 L96.3012859,157.927088 Z" id="Fill-80" fill="#D2C092"></path>
            <path d="M206.703542,121.644924 L206.703542,121.644924 C209.960211,120.09316 213.917291,121.438992 215.496917,124.638217 L231.343735,156.716482 C232.923361,159.914496 231.552132,163.802991 228.295464,165.354755 C225.040028,166.90773 221.082948,165.559476 219.502089,162.361462 L203.656504,130.283197 C202.076878,127.083971 203.446874,123.197899 206.703542,121.644924" id="Fill-81" fill="#FFFFFE"></path>
            <path d="M224.505601,153.46929 L224.507875,153.468091 C226.710562,152.341454 229.388583,153.319471 230.457518,155.641062 L243.126662,183.158572 L244.556078,186.259221 C245.625012,188.582011 244.695949,191.402199 242.494399,192.530034 L242.489851,192.532432 C240.288301,193.65787 237.61028,192.681052 236.541345,190.35946 L222.443922,159.740103 C221.374988,157.418512 222.304051,154.595927 224.505601,153.46929" id="Fill-82" fill="#CAE8EF"></path>
            <path d="M240.023738,190.172995 L240.026384,190.171744 C240.924771,189.758652 242.017655,190.116665 242.454279,190.967884 L245.817608,197.528527 C246.255556,198.379746 245.877148,199.413726 244.978761,199.826818 L244.974791,199.82807 C244.075081,200.241161 242.98352,199.8844 242.545573,199.030678 L239.180921,192.470034 C238.74562,191.618816 239.122704,190.587339 240.023738,190.172995" id="Fill-83" fill="#467888"></path>
            <path d="M203.975055,128.181986 L203.977315,128.180805 C204.833768,127.746324 205.873263,128.121772 206.290191,129.01907 L214.826477,147.400674 C215.243404,148.297971 214.882971,149.384172 214.024258,149.817472 L214.023128,149.818653 C213.165545,150.254315 212.12605,149.877686 211.710252,148.981569 L203.172837,130.598785 C202.757039,129.703849 203.117472,128.617647 203.975055,128.181986" id="Fill-84" fill="#5A9EB3"></path>
            <path d="M428.82218,145.5225 L440.584806,165.428828 C441.442423,166.880258 440.928092,168.754729 439.441317,169.592632 L439.441317,169.593801 C437.954542,170.431704 436.035969,169.931533 435.177156,168.477766 L423.415725,148.572606 C422.556912,147.120007 423.072439,145.244367 424.559214,144.406464 L424.56041,144.406464 C426.045989,143.567393 427.964563,144.069901 428.82218,145.5225" id="Fill-85" fill="#FFFFFE"></path>
            <path d="M423.359245,161.420681 C423.089178,160.951867 422.631531,160.583594 422.055236,160.429959 C421.48233,160.276324 420.901515,160.370086 420.426918,160.643467 C419.954582,160.917977 419.581685,161.373235 419.428006,161.945978 C419.275457,162.518722 419.365857,163.100502 419.633665,163.571575 L419.639315,163.581743 C419.912772,164.049427 420.371549,164.41657 420.944454,164.570205 C421.51736,164.72384 422.098175,164.631207 422.571642,164.357827 C423.047368,164.083317 423.418005,163.626929 423.571684,163.055316 C423.725363,162.479183 423.634963,161.899662 423.366025,161.430848 L423.359245,161.420681 Z M423.182967,156.223062 C424.907333,156.685098 426.285923,157.806862 427.119856,159.249452 L427.126636,159.259619 C427.958309,160.703339 428.240807,162.459979 427.778641,164.182728 C427.315344,165.915644 426.191003,167.296102 424.750265,168.12867 C423.309526,168.958979 421.55013,169.241397 419.816723,168.777102 C418.090097,168.313937 416.710377,167.191043 415.878704,165.752971 L415.871924,165.741674 C415.041381,164.301343 414.758883,162.544704 415.222179,160.818566 C415.685476,159.08565 416.809817,157.702932 418.250555,156.873753 C419.691294,156.040055 421.44843,155.758767 423.182967,156.223062 L423.182967,156.223062 Z" id="Fill-86" fill="#FFFFFE"></path>
            <path d="M447.357861,154.421035 C447.088922,153.952241 446.631274,153.583983 446.054977,153.429225 C445.4832,153.275596 444.901253,153.369354 444.427785,153.643853 C443.953187,153.917222 443.581419,154.373591 443.42887,154.945181 C443.274061,155.51903 443.36559,156.098527 443.633399,156.569581 L443.640179,156.580877 C443.913637,157.048542 444.371285,157.416799 444.945322,157.570428 C445.5171,157.724057 446.099047,157.630298 446.571385,157.356929 C447.045982,157.08356 447.41888,156.627192 447.5703,156.055602 C447.725109,155.478363 447.634709,154.899996 447.365771,154.431202 L447.357861,154.421035 Z M447.182712,149.223632 C448.907083,149.685649 450.285677,150.807366 451.120743,152.249897 L451.126393,152.260063 C451.959198,153.703723 452.240567,155.45803 451.778399,157.182967 C451.313972,158.915811 450.190757,160.296212 448.748884,161.127616 C447.310401,161.959019 445.551,162.241426 443.817588,161.77715 C442.090956,161.314004 440.710103,160.191157 439.877297,158.750886 L439.872777,158.740719 C439.042231,157.299318 438.758602,155.545011 439.2219,153.817815 C439.685198,152.084971 440.810673,150.703441 442.249156,149.872037 C443.691029,149.040633 445.44817,148.758227 447.182712,149.223632 L447.182712,149.223632 Z" id="Fill-87" fill="#FFFFFE"></path>
            <polyline id="Fill-88" fill="#FB8479" points="252 226.780297 233.920996 205.120307 230.300975 216.269245 204.650171 182.348707 207.763764 204.655964 163 169 218.418678 222.261154 215.541886 205.64328 237.103754 229 237.35814 215.19633 252 226.780297"></polyline>
            <polyline id="Fill-89" fill="#FB8479" points="231 324 181.162436 352.031866 202.044778 363.351922 124.972755 401.945031 170.581953 403.966939 83 480 209.603461 389.232822 175.42018 388.837283 229.928559 354.493527 202.513534 348.896236 231 324"></polyline>
            <path d="M390.998809,605 C516.027813,605 618,598.261219 618,590 C618,581.738781 516.027813,575 390.998809,575 C265.972187,575 164,581.738781 164,590 C164,598.261219 265.972187,605 390.998809,605" id="Fill-90" fill-opacity="0.616253397" fill="#C13D31"></path>
            <path d="M60.0300971,218.945438 L61.9446175,217.80496 C64.7999545,216.107879 68.451638,217.182656 70.0631239,220.197485 L86.2367109,250.485853 C87.8458478,253.500682 86.8263363,257.357233 83.9721738,259.055553 L82.0553043,260.194792 C79.2011419,261.893112 75.5482838,260.815856 73.9379724,257.801028 L57.7632109,227.512659 C56.154074,224.496591 57.1735855,220.643759 60.0300971,218.945438" id="Fill-91" fill="#C7C6C1"></path>
            <path d="M73.1958803,225 L86.2467926,248.273679 C87.8344723,251.103366 86.8288646,254.71927 84.0133947,256.313804 L82.8041197,257 L69.7532074,233.725158 C68.1655277,230.895471 69.1711354,227.279567 71.9866053,225.685033 L73.1958803,225" id="Fill-92" fill="#ACADA9"></path>
            <path d="M41.6584278,199.189201 C39.9877837,200.109466 39.3938312,202.195003 40.334867,203.827578 C41.2759029,205.460153 43.4072879,206.043386 45.077932,205.12312 L57.2148498,198.433866 C58.8806054,197.515991 59.4745579,195.429259 58.5335221,193.797879 C57.5924863,192.165304 55.4611013,191.582071 53.7953456,192.499946 L41.6584278,199.189201 Z M39.5282649,186.407071 L43.712819,184.101627 C51.7543978,179.670011 62.038575,182.479809 66.5702124,190.34031 L72.8507099,201.240078 C77.3811252,209.10297 74.5127992,219.161352 66.4712203,223.591773 L62.2866663,225.898413 C54.2487538,230.330029 43.9609103,227.520231 39.4292728,219.658535 L33.1487753,208.761157 C28.61836,200.898265 31.4891303,190.837492 39.5282649,186.407071 L39.5282649,186.407071 Z" id="Fill-93" fill="#332E30"></path>
            <path d="M56.5448713,209.644995 C58.9521768,208.289295 62.0004472,209.140152 63.354982,211.546378 C64.7106512,213.951469 63.8598128,216.999809 61.4547762,218.355509 C59.0486051,219.710075 56.0014691,218.860351 54.6457999,216.454126 C53.2889962,214.049034 54.1398347,211.000695 56.5448713,209.644995" id="Fill-94" fill="#50464C"></path>
            <path d="M251.109947,339.148981 C254.157158,342.162525 253.444062,347.224169 249.516942,350.455756 C245.589822,353.687343 239.937264,353.863795 236.890053,350.851512 C233.842842,347.837969 234.555938,342.777585 238.483058,339.544737 C242.408905,336.31315 248.062736,336.135438 251.109947,339.148981" id="Fill-95" fill="#EAAA2C"></path>
            <path d="M250.110378,338.148981 C253.15767,341.162525 252.443282,346.222908 248.516057,349.455756 C244.588831,352.687343 238.936123,352.863795 235.890103,349.851512 C232.842811,346.837969 233.555926,341.776325 237.483151,338.544737 C241.410376,335.31315 247.063085,335.135438 250.110378,338.148981" id="Fill-96" fill="#F8C73F"></path>
            <path d="M249.378491,338.018527 C250.203832,338.822368 250.741093,339.781293 251,340.812434 C250.449368,341.468292 249.819727,342.089818 249.109861,342.665173 C244.733976,346.208463 238.655142,346.924697 234.000902,344.830451 C233.963221,342.585855 235.107028,340.187357 237.325359,338.390259 C241.074034,335.354845 246.469743,335.187921 249.378491,338.018527" id="Fill-97" fill="#FBD65E"></path>
            <path d="M245.845231,340.343072 C247.706295,342.227008 247.272241,345.390131 244.872111,347.41108 C242.470814,349.428486 239.017054,349.540696 237.154824,347.65676 C235.292593,345.774005 235.728981,342.610882 238.129111,340.589932 C240.528074,338.570164 243.983001,338.460317 245.845231,340.343072" id="Fill-98" fill="#F4B827"></path>
            <path d="M245.840179,340.652448 C246.985447,342.073323 247.265324,344.081746 246.755925,346 C246.926896,344.436601 246.566218,342.895016 245.638761,341.743191 C243.768624,339.423543 240.30237,339.561704 237.893558,342.048599 C236.960246,343.011362 236.322034,344.189366 236,345.403727 C236.170971,343.818513 236.884129,342.210029 238.096147,340.957856 C240.504959,338.47096 243.972383,338.335708 245.840179,340.652448" id="Fill-99" fill="#EAAA2C"></path>
            <path d="M242.707376,347.250888 C240.117092,349.555993 237.503448,345.891182 238.080942,344.963857 C239.555171,342.607311 241.370706,347.544239 241.818426,345.756323 C241.974154,345.129301 238.973785,344.004555 241.478418,341.774526 C244.047939,339.484714 246.469517,342.911785 245.921872,343.833549 C244.55795,346.128922 242.811195,341.55903 242.380346,343.248236 C242.22332,343.865525 245.249644,344.984711 242.707376,347.250888" id="Fill-100" fill="#FBD65E"></path>
            <path d="M192.802905,276.178365 C199.704635,277.356782 205.163082,284.05185 204.996277,291.133011 C204.827105,298.214173 199.096563,303.000087 192.196016,301.821669 C185.294286,300.642068 179.834656,293.948185 180.003828,286.865839 C180.171816,279.784677 185.902358,274.999948 192.802905,276.178365" id="Fill-101" fill="#EAAA2C"></path>
            <path d="M194.804642,274.178659 C201.706698,275.355893 207.16422,282.052153 206.996223,289.133323 C206.828227,296.21331 201.097414,300.999229 194.195358,299.821994 C187.293302,298.642392 181.83578,291.946132 182.003777,284.864961 C182.17059,277.784975 187.901403,272.999056 194.804642,274.178659" id="Fill-102" fill="#F8C73F"></path>
            <path d="M194.404372,274.178908 C196.303446,274.513358 198.089057,275.294928 199.669518,276.403832 C199.91249,277.71554 200.025953,279.052155 199.995008,280.394699 C199.804757,288.670561 194.222143,294.749963 186.602923,296 C183.719356,293.139384 181.907385,289.077357 182.003656,284.880126 C182.165255,277.790258 187.716925,272.997659 194.404372,274.178908" id="Fill-103" fill="#FBD65E"></path>
            <path d="M195.219069,278.122947 C200.187409,278.9392 204.117378,283.574877 203.997321,288.477311 C203.875986,293.378516 199.750604,296.6927 194.780987,295.876447 C189.812647,295.060194 185.8814,290.423288 186.002735,285.522082 C186.12407,280.620877 190.249452,277.309153 195.219069,278.122947" id="Fill-104" fill="#F4B827"></path>
            <path d="M194.945903,278.129965 C197.899674,278.654668 200.474153,280.684985 202,283.36278 C200.460519,281.413883 198.313673,279.997443 195.918924,279.57096 C191.09596,278.712825 187.091077,282.194476 186.973323,287.349749 C186.92746,289.347756 187.474088,291.303115 188.439673,293 C186.880359,291.025255 185.942044,288.502545 186.00278,285.908754 C186.119295,280.753481 190.124178,277.27183 194.945903,278.129965" id="Fill-105" fill="#EAAA2C"></path>
            <path d="M197.997939,291.076652 C197.880763,295.756226 190.58654,293.770733 190.121656,292.267707 C188.93461,288.434567 196.865659,292.48778 195.221371,290.126227 C194.644405,289.29793 189.963723,290.469638 190.078352,285.947259 C190.194254,281.30396 196.985383,283.176999 197.480835,284.649795 C198.712459,288.323321 191.302334,284.624402 192.846004,286.865035 C193.410233,287.683659 198.112568,286.48414 197.997939,291.076652" id="Fill-106" fill="#FBD65E"></path>
            <path d="M595.234427,443.447017 L519,421.077094 C526.19432,423.187622 533.817045,419.061743 535.93992,411.911648 L557.238076,340.173947 C559.242482,333.424781 566.445179,329.527325 573.242208,331.522451 L624.760818,346.639965 C631.562634,348.635091 635.480499,355.792324 633.474897,362.54506 L612.176741,434.282761 C610.053866,441.434046 602.431141,445.558734 595.234427,443.447017" id="Fill-107" fill="#663B26"></path>
            <path d="M621.441906,348.100276 L509,314.332766 C519.610099,317.520475 530.657789,311.968539 533.547786,301.997254 L547.89579,252.497669 C550.625693,243.078952 561.057909,237.839701 571.083368,240.850778 L647.075962,263.671953 C657.10142,266.681838 663.068785,276.846462 660.337696,286.263986 L645.992064,335.764764 C643.100881,345.736049 632.054377,351.286791 621.441906,348.100276" id="Fill-108" fill="#7F4930"></path>
            <path d="M619.461465,350.085717 L563,332.868414 C582.884905,299.974573 618.603295,279.286919 658.095739,277 C659.174379,280.285024 659.328471,283.855912 658.33873,287.325052 L643.994004,337.567016 C641.107753,347.693416 630.065326,353.321078 619.461465,350.085717" id="Fill-109" fill="#663B26"></path>
            <polyline id="Fill-110" fill="#FCE19B" points="521.982912 279 611 319.251601 579.018286 390 490 349.748399 521.982912 279"></polyline>
            <polyline id="Fill-111" fill="#FFF4D3" points="554.583449 283 633 340.998526 587.416551 404 509 346.001474 554.583449 283"></polyline>
            <polyline id="Fill-112" fill="#98C07E" points="531.112265 334 546 343.496872 544.886456 345 530 335.504314 531.112265 334"></polyline>
            <polyline id="Fill-113" fill="#98C07E" points="534.132009 339 540 341.84054 538.866691 343 533 340.15946 534.132009 339"></polyline>
            <polyline id="Fill-114" fill="#A4CD8A" points="538.15197 289 568 339.197916 540.849226 355 511 304.803267 538.15197 289"></polyline>
            <polyline id="Fill-115" fill="#C6DEA7" points="567 336.526904 564.469709 338 538 293.471894 540.530291 292 567 336.526904"></polyline>
            <polyline id="Fill-116" fill="#C6DEA7" points="541 350.526943 538.470923 352 512 307.473057 514.529077 306 541 350.526943"></polyline>
            <path d="M546.47906,313.423412 C549.559531,318.658505 547.812537,325.400125 542.577363,328.479387 C537.341027,331.55981 530.600465,329.811682 527.521156,324.576588 C524.440685,319.341495 526.186517,312.601036 531.424015,309.520613 C536.659189,306.44019 543.399751,308.188318 546.47906,313.423412" id="Fill-117" fill="#98C07E"></path>
            <path d="M545.435402,314.96636 L545.460317,315.011965 C546.556568,316.905835 545.928715,319.367232 544.066334,320.482019 L543.859542,320.604899 L543.862033,320.609966 C544.065089,320.96087 543.949235,321.413119 543.604165,321.620874 L543.226706,321.846365 C542.881636,322.052854 542.434415,321.935042 542.232605,321.585404 L542.230114,321.580337 L542.024567,321.703217 C540.653007,322.522838 538.981225,322.393624 537.757908,321.514463 L536.500957,322.266944 L537.007973,323.144838 C538.094258,325.020973 537.472634,327.458301 535.627693,328.562953 L534.896444,329 C532.690239,328.175311 530.740656,326.599409 529.455053,324.378704 C528.240457,322.278345 527.810676,319.929693 528.074773,317.682385 L529.010324,317.124992 C530.855264,316.02034 533.252068,316.651208 534.338353,318.527342 L534.845369,319.406503 L536.10232,318.655289 C535.94162,317.138927 536.641725,315.590894 538.013285,314.771272 L538.220078,314.645859 L538.21634,314.643325 C538.013285,314.292421 538.129139,313.838906 538.474209,313.632417 L538.851668,313.405659 C539.196738,313.19917 539.643958,313.31825 539.847014,313.667887 L539.849505,313.672954 L540.055052,313.548808 C541.918679,312.434021 544.339151,313.07249 545.435402,314.96636" id="Fill-118" fill="#C6DEA7"></path>
            <path d="M531.446883,303.973199 C532.56759,305.876219 531.930951,308.327121 530.027969,309.44785 C528.123599,310.567193 525.674133,309.930541 524.553427,308.02752 C523.43272,306.123113 524.067972,303.672211 525.972341,302.551481 C527.875324,301.433526 530.326177,302.068791 531.446883,303.973199" id="Fill-119" fill="#C6DEA7"></path>
            <path d="M550.446573,334.972417 C551.56728,336.875472 550.932028,339.326419 549.027659,340.447169 C547.124676,341.566531 544.673823,340.932642 543.553117,339.0282 C542.43241,337.123757 543.069049,334.67281 544.972031,333.553448 C546.875014,332.432698 549.325867,333.067974 550.446573,334.972417" id="Fill-120" fill="#C6DEA7"></path>
            <polyline id="Fill-121" fill="#C6DEA7" points="541.159328 337 547 345.424032 543.842034 347 538 338.575968 541.159328 337"></polyline>
            <polyline id="Fill-122" fill="#98C07E" points="551.56066 324 560 339.038049 558.438163 340 550 324.961951 551.56066 324"></polyline>
            <polyline id="Fill-123" fill="#98C07E" points="551.291738 330 554 336.008726 552.708262 337 550 330.991274 551.291738 330"></polyline>
            <polyline id="Fill-124" fill="#7FA06A" points="516.676679 304 522 312.435107 517.32208 315 512 306.564893 516.676679 304"></polyline>
            <polyline id="Fill-125" fill="#7FA06A" points="538.675438 291 544 299.435107 539.32208 302 534 293.564893 538.675438 291"></polyline>
            <path d="M592.398616,437.442648 L580,433.758439 L604.564647,350 C602.498807,357.040693 606.532681,364.494344 613.528149,366.57354 L613.529342,366.57354 C620.526002,368.651535 627.93416,364.596383 630,357.55449 L609.283158,428.19311 C607.167223,435.40907 599.570611,439.572263 592.398616,437.442648" id="Fill-126" fill="#7F4930"></path>
            <path d="M467.690323,406.050335 L595.507473,444 C588.373239,441.881874 584.262809,434.280485 586.367254,427.108688 L607.480507,355.153249 C609.467511,348.385984 605.576542,341.198674 598.84564,339.199879 L495.52736,308.523442 C488.796458,306.524647 481.651547,310.427966 479.663357,317.203584 L458.55129,389.157829 C456.445659,396.330819 460.559647,403.933402 467.690323,406.050335" id="Fill-127" fill="#8D4F31"></path>
            <path d="M605,340.832556 C603.985833,340.180161 602.863519,339.658245 601.651085,339.300326 L496.997185,308.52525 C490.180394,306.518986 482.940633,310.43934 480.92792,317.230231 L462,381.114639 C471.378645,382.345211 481.185066,383 491.287086,383 C543.764239,383 588.40803,365.402101 605,340.832556" id="Fill-128" fill="#A45A37"></path>
            <path d="M498.954092,363.129397 L504.526482,364.645566 C506.346352,365.140329 507.397262,366.918639 506.858991,368.5954 L502.334949,382.720335 C501.797959,384.397095 499.86659,385.365365 498.046721,384.870603 L492.474331,383.354434 C490.65318,382.859671 489.603551,381.081361 490.14054,379.403419 L494.664583,365.279665 C495.202854,363.602905 497.134223,362.634635 498.954092,363.129397" id="Fill-129" fill="#7F4930"></path>
            <path d="M550.953113,380.129407 L556.525687,381.644441 C558.345617,382.139218 559.396562,383.918762 558.859554,385.595572 L554.334081,399.720925 C553.795792,401.397735 551.866923,402.366034 550.046993,401.870076 L544.473138,400.355042 C542.653208,399.860265 541.603545,398.080721 542.140552,396.405092 L546.664744,382.278558 C547.201751,380.602929 549.131902,379.63463 550.953113,380.129407" id="Fill-130" fill="#7F4930"></path>
            <path d="M494.481137,375.076847 L498.582011,376.23605 C499.62635,376.531211 500.227636,377.586982 499.919081,378.587251 L498.977594,381.64356 C498.66904,382.642568 497.564045,383.217755 496.518388,382.922594 L492.417514,381.764652 C491.373175,381.469491 490.773208,380.413721 491.080444,379.415974 L492.023249,376.357142 C492.331804,375.358134 493.43548,374.782947 494.481137,375.076847" id="Fill-131" fill="#FCE19B"></path>
            <path d="M547.480346,390.077413 L551.580289,391.235455 C552.625708,391.530642 553.226857,392.586504 552.919691,393.586861 L551.975782,396.644697 C551.667297,397.64253 550.562554,398.217767 549.518453,397.92258 L545.417191,396.764538 C544.37309,396.469351 543.773259,395.413489 544.080426,394.415655 L545.024335,391.356558 C545.33282,390.357463 546.436245,389.782226 547.480346,390.077413" id="Fill-132" fill="#FCE19B"></path>
            <path d="M529.574113,326.219758 L546.327487,331.426694 C549.029339,332.267767 550.588782,335.284928 549.79134,338.130391 L549.790158,338.132879 C548.992716,340.979586 546.127831,342.620673 543.42716,341.779601 L526.672605,336.57142 C523.969571,335.732836 522.41131,332.715675 523.208752,329.868968 L523.209933,329.86648 C524.007376,327.022261 526.871079,325.37993 529.574113,326.219758" id="Fill-133" fill="#FCE19B"></path>
            <path d="M589.932806,233.664123 L610.912076,228.296204 C615.858239,227.03113 620.964745,229.936865 622.264627,234.752731 L636.695525,288.279303 C637.995408,293.095169 635.011308,298.070808 630.06637,299.335881 L609.085876,304.703801 C604.142161,305.968875 599.034431,303.063139 597.735773,298.246082 L583.303651,244.720701 C582.006216,239.904836 584.987867,234.929197 589.932806,233.664123" id="Fill-134" fill="#332E30"></path>
            <path d="M586.931279,234.664279 L607.913025,229.296288 C612.856746,228.031198 617.964483,230.935779 619.264367,235.751709 L633.696509,289.278995 C634.993945,294.096117 632.009842,299.07063 627.06612,300.335721 L606.085598,305.703712 C601.140653,306.968802 596.035364,304.064221 594.73548,299.248291 L580.304563,245.721005 C579.004678,240.902691 581.987558,235.92937 586.931279,234.664279" id="Fill-135" fill="#272225"></path>
            <path d="M591.329512,238.405957 L607.456429,234.230236 C611.257245,233.246606 615.18217,235.506837 616.181003,239.253103 L626.766007,278.990108 C627.76484,282.73755 625.472417,286.608534 621.671601,287.592164 L605.545877,291.770239 C601.745061,292.752692 597.81775,290.492461 596.818917,286.746196 L586.233913,247.00919 C585.23508,243.261748 587.528696,239.390764 591.329512,238.405957" id="Fill-136" fill="#332E30"></path>
            <path d="M609.653051,293.043803 L616.22389,291.082735 C617.402895,290.730025 618.616876,291.538052 618.92714,292.87835 L618.92714,292.882198 C619.237405,294.222496 618.527745,295.602555 617.349868,295.955265 L610.779029,297.917615 C609.600024,298.269043 608.382659,297.463581 608.073523,296.122 L608.072394,296.119435 C607.763258,294.779137 608.472918,293.396513 609.653051,293.043803" id="Fill-137" fill="#332E30"></path>
            <polyline id="Fill-138" fill="#98C07E" points="652 200.45054 638.7874 217 637 215.548228 650.215042 199 652 200.45054"></polyline>
            <polyline id="Fill-139" fill="#98C07E" points="647 202.474014 641.066796 209 639 207.525986 644.933204 201 647 202.474014"></polyline>
            <polyline id="Fill-140" fill="#A4CD8A" points="706 211.436546 641.048826 243 624 208.563454 688.952378 177 706 211.436546"></polyline>
            <polyline id="Fill-141" fill="#C6DEA7" points="645.528582 240 644 236.914093 699.470241 210 701 213.084743 645.528582 240"></polyline>
            <polyline id="Fill-142" fill="#C6DEA7" points="630.528582 209 629 205.914093 684.470241 179 686 182.083579 630.528582 209"></polyline>
            <path d="M674.444272,219.617914 C667.751203,222.900304 659.665593,220.136186 656.38209,213.443005 C653.099755,206.750991 655.863827,198.665246 662.555728,195.382855 C669.248797,192.099298 677.335575,194.863416 680.61791,201.55543 C683.900245,208.248611 681.136173,216.335524 674.444272,219.617914" id="Fill-143" fill="#98C07E"></path>
            <path d="M673.390996,216.510425 L673.336491,216.537596 C671.032747,217.639809 668.223924,216.702987 667.093854,214.456032 L666.969098,214.206764 L666.961831,214.210308 C666.537903,214.413503 666.018289,214.241024 665.808747,213.825183 L665.581038,213.367995 C665.371496,212.953336 665.548335,212.447712 665.973474,212.244518 L665.97953,212.240974 L665.854774,211.992887 C665.023876,210.338977 665.324259,208.41926 666.456751,207.081955 L665.696104,205.563902 L664.626595,206.076614 C662.344653,207.168195 659.563687,206.240824 658.443307,204.013952 L658,203.132654 C659.157928,200.655333 661.168556,198.540691 663.869581,197.248278 C666.424048,196.026747 669.198957,195.732587 671.78855,196.231123 L672.356613,197.359326 C673.475782,199.583835 672.523761,202.297429 670.243031,203.38901 L669.173522,203.901722 L669.936591,205.416231 C671.715876,205.361889 673.455191,206.305799 674.286089,207.959709 L674.410845,208.207796 L674.416901,208.204251 C674.843251,208.001057 675.361654,208.173536 675.571196,208.589376 L675.800117,209.046564 C676.009658,209.460042 675.831608,209.966847 675.405258,210.170042 L675.401625,210.173586 L675.525169,210.421672 C676.65645,212.669809 675.695951,215.408212 673.390996,216.510425" id="Fill-144" fill="#C6DEA7"></path>
            <path d="M689.481743,202.538945 C687.249703,203.634012 684.555158,202.711446 683.460219,200.480423 C682.366558,198.250678 683.289015,195.554539 685.518499,194.46075 C687.749261,193.366961 690.445084,194.28697 691.538745,196.517993 C692.633684,198.750294 691.712505,201.445156 689.481743,202.538945" id="Fill-145" fill="#C6DEA7"></path>
            <path d="M650.479856,221.539302 C648.250219,222.633038 645.55421,221.713073 644.460474,219.480881 C643.366738,217.249966 644.287981,214.555235 646.518896,213.460221 C648.749811,212.366485 651.444542,213.289005 652.539556,215.51992 C653.633292,217.749558 652.712049,220.445566 650.479856,221.539302" id="Fill-146" fill="#C6DEA7"></path>
            <polyline id="Fill-147" fill="#C6DEA7" points="646 209.934383 634.754757 216 633 212.065617 644.246455 206 646 209.934383"></polyline>
            <polyline id="Fill-148" fill="#98C07E" points="661 223.998815 642.961701 233 642 231.003555 660.037135 222 661 223.998815"></polyline>
            <polyline id="Fill-149" fill="#98C07E" points="655 223.455644 647.087956 226 646 224.543492 653.912044 222 655 223.455644"></polyline>
            <polyline id="Fill-150" fill="#7FA06A" points="690 183.643652 678.033548 189 675 183.35517 686.965161 178 690 183.643652"></polyline>
            <polyline id="Fill-151" fill="#7FA06A" points="705 211.643652 693.032519 217 690 211.356348 701.966191 206 705 211.643652"></polyline>
            <polyline id="Fill-152" fill="#FFFFFF" opacity="0.300837862" points="564 219 613.837552 190.967919 592.955716 179.648972 670.025871 141.054372 624.417778 139.032449 712 63 585.397216 153.767873 619.580864 154.16222 565.073807 188.506239 592.489363 194.103573 564 219"></polyline>
            <path d="M293.030367,120.271634 C295.107459,119.375974 297.897842,120.76801 299.260307,123.377318 C300.625444,125.989054 300.047064,128.833807 297.969972,129.728254 C295.89288,130.623914 293.103834,129.233092 291.738697,126.621356 C290.374895,124.010834 290.953275,121.167295 293.030367,120.271634" id="Fill-153" fill="#FFFFFE"></path>
            <path d="M286.903058,109.190401 C287.825582,108.562884 289.065934,109.537381 289.671663,111.365301 C290.277393,113.193222 290.02148,115.183559 289.097923,115.809599 C288.175399,116.437116 286.934015,115.462619 286.328286,113.634699 C285.722557,111.806778 285.978469,109.817918 286.903058,109.190401" id="Fill-154" fill="#FFFFFE"></path>
            <path d="M146.082273,254.015171 C146.577454,251.670493 149.181569,250.433493 151.898599,251.253006 C154.614453,252.073924 156.414044,254.639294 155.917686,256.985377 C155.421329,259.33146 152.81839,260.567055 150.102536,259.746137 C147.386682,258.926624 145.585915,256.359849 146.082273,254.015171" id="Fill-155" fill="#FFFFFE"></path>
            <path d="M136.057673,251.005662 C136.403999,250.223035 138.228655,249.810954 140.127728,250.084589 C142.029663,250.358223 143.289033,251.213331 142.942706,251.995145 C142.596379,252.776958 140.771724,253.189038 138.872651,252.915404 C136.970716,252.642584 135.709915,251.787475 136.057673,251.005662" id="Fill-156" fill="#FFFFFE"></path>
            <path d="M330.239017,423.150396 C331.079202,421.032503 333.891888,420.364687 336.521087,421.66262 C339.150285,422.960553 340.6025,425.730105 339.761108,427.847998 C338.920924,429.968583 336.108237,430.635053 333.476625,429.33712 C330.848634,428.040533 329.397625,425.270981 330.239017,423.150396" id="Fill-157" fill="#FFFFFE"></path>
            <path d="M321.167418,419.955467 C321.755046,419.014062 323.72507,418.717598 325.564347,419.294923 C327.406562,419.871209 328.42169,421.101797 327.832592,422.044242 C327.244964,422.985647 325.27494,423.282111 323.434194,422.705826 C321.593449,422.12954 320.578321,420.897912 321.167418,419.955467" id="Fill-158" fill="#FFFFFE"></path>
            <path d="M377.599334,393.006925 C379.795955,392.862989 381.757041,394.980243 381.979775,397.737084 C382.199949,400.495087 380.597287,402.847978 378.400666,402.993075 C376.204045,403.137011 374.242959,401.019757 374.020225,398.261755 C373.800051,395.504913 375.402713,393.152022 377.599334,393.006925" id="Fill-159" fill="#FFFFFE"></path>
            <path d="M377.350465,383.004933 C378.174214,382.903237 378.909496,384.386293 378.992121,386.31709 C379.076415,388.246474 378.47467,389.893372 377.650921,389.995067 C376.826337,390.096763 376.091055,388.613707 376.007596,386.68291 C375.92497,384.753526 376.525881,383.106628 377.350465,383.004933" id="Fill-160" fill="#FFFFFE"></path>
            <path d="M91.9422933,581.267992 C92.6257549,587.61713 87.1592348,592.869611 79.7361156,592.997574 C72.311824,593.126733 65.7398079,588.082343 65.0575186,581.732008 C64.3752294,575.38287 69.8417494,570.130389 77.2648687,570.002426 C84.6879879,569.873267 91.2600041,574.917657 91.9422933,581.267992" id="Fill-161" fill="#EAAA2C"></path>
            <path d="M91.9424704,579.269165 C92.6247638,585.618316 87.1593823,590.86961 79.7350449,590.997574 C72.3118798,591.126734 65.739823,586.082334 65.0575296,579.733183 C64.3752362,573.382836 69.8406177,568.131542 77.2649551,568.002382 C84.6881202,567.874419 91.260177,572.917622 91.9424704,579.269165" id="Fill-162" fill="#F8C73F"></path>
            <path d="M91.942215,579.410655 C92.1368928,581.236748 91.8331485,582.973233 91.1294938,584.525655 C89.834769,584.810225 88.4767154,584.972491 87.0694059,584.996709 C78.4015523,585.148077 70.4783999,580.062139 67,572.841319 C69.1543563,569.973818 72.8626167,568.079912 77.2592861,568.002412 C84.6851891,567.872842 91.2596699,572.979365 91.942215,579.410655" id="Fill-163" fill="#FBD65E"></path>
            <path d="M87.961676,579.838474 C88.4163265,584.256437 84.773264,587.908554 79.8236673,587.99836 C74.8740706,588.086919 70.4939588,584.578243 70.0381366,580.161527 C69.5846579,575.744811 73.2277204,572.091447 78.1761453,572.001641 C83.125742,571.913082 87.5058538,575.420511 87.961676,579.838474" id="Fill-164" fill="#F4B827"></path>
            <path d="M88.9592825,580.135978 C89.2553235,582.944517 87.9162685,585.453944 85.6203886,587 C87.1705447,585.469482 88.0074541,583.387357 87.7663742,581.111003 C87.2817162,576.523334 82.611262,572.882204 77.3362344,572.975434 C75.2901782,573.01169 73.4527249,573.603438 72,574.583643 C73.570142,573.032407 75.8722675,572.049613 78.5278935,572.001703 C83.8041702,571.909769 88.4733753,575.550899 88.9592825,580.135978" id="Fill-165" fill="#EAAA2C"></path>
            <path d="M76.9689628,582.999066 C72.3225979,583.094446 72.4677613,575.852507 73.8354733,575.32861 C77.3227988,573.993295 75.2950466,581.952655 77.2173284,580.233057 C77.8921117,579.628987 75.5694963,575.093617 80.0638932,575.001002 C84.6762355,574.905622 84.5174629,581.651311 83.1849077,582.202854 C79.8654276,583.575491 81.6731663,576.142793 79.8450139,577.755952 C79.1781693,578.347582 81.5314051,582.905069 76.9689628,582.999066" id="Fill-166" fill="#FBD65E"></path>
            <path d="M99.4994021,619 C112.443025,619 123,616.979009 123,614.5 C123,612.020991 112.443025,610 99.4994021,610 C86.5557789,610 76,612.020991 76,614.5 C76,616.979009 86.5557789,619 99.4994021,619" id="Fill-167" fill="#D7ECE7"></path>
            <path d="M388.394273,74.1463217 C395.532195,75.3862898 400.69377,84.163201 399.923947,93.7459716 C399.152948,103.328742 392.74365,110.093403 385.605727,108.853435 C378.467805,107.613467 373.30623,98.8377553 374.076053,89.2549848 C374.844698,79.671015 381.25635,72.9075529 388.394273,74.1463217" id="Fill-168" fill="#7A3840"></path>
            <path d="M368.010253,87.0674389 C371.838724,87.6859874 376.729278,92.4116978 378.931704,97.6216433 C381.136615,102.830411 379.818637,106.552305 375.988925,105.932579 C372.161697,105.312852 367.271142,100.587142 365.067474,95.3783742 C362.863805,90.1684287 364.181783,86.4477122 368.010253,87.0674389" id="Fill-169" fill="#7A3840"></path>
            <path d="M408.278808,93.0861494 C404.60318,92.4433571 398.587649,95.4670422 394.845235,99.8385174 C391.100436,104.208773 391.045575,108.272879 394.720011,108.914451 C398.396831,109.554804 404.412362,106.531119 408.155969,102.160864 C411.899575,97.7893884 411.954435,93.7277219 408.278808,93.0861494" id="Fill-170" fill="#7A3840"></path>
            <path d="M348.059119,102.861902 C347.617543,105.376276 349.697412,109.49299 352.701537,112.053079 C355.705662,114.615454 358.499568,114.65317 358.941144,112.138797 C359.381545,109.623281 357.302851,105.507709 354.298726,102.945334 C351.293427,100.384102 348.500695,100.347529 348.059119,102.861902" id="Fill-171" fill="#7A3840"></path>
            <path d="M343.016016,95.4299442 C342.896171,96.0088907 343.461754,96.9599552 344.282795,97.5510172 C345.102785,98.1420791 345.864955,98.150733 345.983749,97.5700558 C346.104645,96.9893785 345.538011,96.0400448 344.716969,95.4489828 C343.898031,94.8579209 343.13586,94.849267 343.016016,95.4299442" id="Fill-172" fill="#7A3840"></path>
            <path d="M3.11592012,294.887133 C4.35357992,283.299406 15.1545227,273.50892 27.2403452,273.019093 C39.3274104,272.529267 48.1215052,281.523936 46.8838454,293.111662 C45.6461856,304.699389 34.8464854,314.491085 22.7619055,314.980912 C10.6748404,315.470738 1.87950295,306.47365 3.11592012,294.887133" id="Fill-173" fill="#EAAA2C"></path>
            <path d="M0.115711772,290.887084 C1.3533432,279.300591 12.1540383,269.510126 24.2395837,269.019091 C36.3251291,268.529265 45.1215075,277.525124 43.8838761,289.111617 C42.6474873,300.699319 31.8467921,310.489784 19.7600041,310.980819 C7.67445871,311.471855 -1.11943445,302.474786 0.115711772,290.887084" id="Fill-174" fill="#F8C73F"></path>
            <path d="M0.112214924,292.149286 C0.454449119,288.901286 1.54381431,285.795333 3.19834793,283.002124 C5.33610661,282.451838 7.52568243,282.116414 9.74658955,282.025695 C23.427522,281.461085 34.0849841,290.256112 37,303.009378 C32.6003625,308.192332 26.1003229,311.694587 19.1628501,311.98107 C7.44253398,312.465703 -1.08560476,303.585925 0.112214924,292.149286" id="Fill-175" fill="#FBD65E"></path>
            <path d="M8.07649971,290.07178 C8.89070025,282.622335 16.0109638,276.328196 23.9761292,276.012265 C31.9412947,275.697499 37.7389429,281.479854 36.9235143,288.929299 C36.1080857,296.378744 28.9890502,302.672883 21.0226567,302.987649 C13.0574912,303.30358 7.26107111,297.520059 8.07649971,290.07178" id="Fill-176" fill="#F4B827"></path>
            <path d="M8.0740027,289.714307 C8.55879934,285.380729 11.3341708,281.458131 15.1875298,279 C12.4264521,281.412713 10.5253823,284.657358 10.1323039,288.172298 C9.34257376,295.250919 14.9635942,300.746543 22.6905618,300.446339 C25.6874865,300.330023 28.5593408,299.360728 31,297.802103 C28.2019968,300.248049 24.5225452,301.837692 20.6322606,301.988348 C12.905293,302.287445 7.28427255,296.79182 8.0740027,289.714307" id="Fill-177" fill="#EAAA2C"></path>
            <path d="M24.822761,284.006057 C32.5223095,283.708441 30.0067729,294.47372 27.5854466,295.297274 C21.406721,297.398758 27.2587694,285.50663 23.544193,288.12383 C22.2411548,289.042803 24.647799,295.706212 17.2002936,295.993604 C9.55825002,296.288948 11.942871,286.262029 14.315257,285.398716 C20.2248103,283.247251 14.9025418,294.352174 18.4274741,291.891734 C19.7170537,290.992072 17.2626926,284.299129 24.822761,284.006057" id="Fill-178" fill="#FBD65E"></path>
            <path d="M173.706802,60.4076466 C176.475222,59.0638973 180.197061,61.1511549 182.015687,65.067542 C183.833104,68.9851641 183.062152,73.2486041 180.293732,74.5923534 C177.522896,75.9361027 173.804682,73.8488451 171.986056,69.932458 C170.166222,66.0160709 170.937174,61.7513959 173.706802,60.4076466" id="Fill-179" fill="#FFFFFF"></path>
            <path d="M166.804898,48.2446352 C168.650466,47.4383837 171.128959,48.690263 172.343001,51.0407565 C173.555642,53.39125 173.04174,55.9503901 171.196173,56.7553536 C169.347805,57.561605 166.869311,56.3097258 165.65667,53.9605202 C164.445429,51.6100267 164.95653,49.0508867 166.804898,48.2446352" id="Fill-180" fill="#FFFFFF"></path>
            <path d="M76.0556358,403.736166 C79.7345209,401.404641 84.2574233,401.424042 86.1606503,403.778392 C88.0625888,406.132741 86.6232492,409.931883 82.9443642,412.263409 C79.2667677,414.594934 74.7412881,414.576674 72.8393497,412.221183 C70.9374112,409.866833 72.3767508,406.068833 76.0556358,403.736166 Z" id="Fill-181" fill="#FFFFFF"></path>
            <path d="M59.503611,422.81472 C58.3627093,421.244989 59.2254406,418.712525 61.4333341,417.158663 C63.6398837,415.603479 66.3530528,415.615381 67.4966421,417.185112 C68.6375439,418.754843 67.7734687,421.288629 65.5669191,422.842491 C63.3590257,424.396353 60.6445127,424.384451 59.503611,422.81472" id="Fill-182" fill="#FFFFFF"></path>
            <path d="M484.452962,495.037758 C486.777068,493.158142 486.445053,489.156527 483.709536,486.09815 C480.975223,483.039773 476.873152,482.082815 474.54664,483.963574 C472.222533,485.842047 472.555751,489.842518 475.290065,492.902039 C478.025581,495.960416 482.127653,496.916231 484.452962,495.037758" id="Fill-183" fill="#FFFFFF"></path>
            <path d="M494.046478,507.334645 C495.478599,506.031637 495.27401,503.261887 493.590979,501.145704 C491.906661,499.028145 489.382114,498.364946 487.952567,499.666577 C486.521734,500.966833 486.726322,503.737959 488.408067,505.855518 C490.092385,507.973077 492.616931,508.633524 494.046478,507.334645" id="Fill-184" fill="#FFFFFF"></path>
            <path d="M381,136.589055 C381,136.589055 387.709017,133.616255 391.238239,135.802874 C394.767461,137.988599 385.11843,139.038033 381,136.589055" id="Fill-185" fill="#E3694B"></path>
            <path d="M441.255175,493 C474.055935,494.571405 467.465785,511.631858 424.985741,532.307733 C382.506888,552.983608 319.549285,569.772638 281,571 C318.861224,564.726286 367.158837,549.756277 403.221341,532.204164 C439.285034,514.65086 452.846269,499.512996 441.255175,493" id="Fill-186" fill-opacity="0.616253397" fill="#C13D31"></path>
            <path d="M451.954432,544 C474.377696,550.001755 467.356944,561.139639 435.030022,569.501635 C402.701908,577.862405 356.797082,580.412691 330,575.542625 C357.053314,576.725811 392.57062,573.284151 420.014837,566.185037 C447.459053,559.087149 459.015704,550.352419 451.954432,544" id="Fill-187" fill-opacity="0.616253397" fill="#C13D31"></path>
        </g>
    </g>
</svg>