<?xml version="1.0" encoding="UTF-8"?>
<svg width="59px" height="59px" viewBox="0 0 59 59" version="1.1" xmlns="http://www.w3.org/2000/svg" xmlns:xlink="http://www.w3.org/1999/xlink">
    <!-- Generator: Sketch 47.1 (45422) - http://www.bohemiancoding.com/sketch -->
    <title>electronic-payments</title>
    <desc>Created with Sketch.</desc>
    <defs></defs>
    <g id="Page-2" stroke="none" stroke-width="1" fill="none" fill-rule="evenodd">
        <g id="electronic-payments">
            <circle id="Oval-6" fill-opacity="0.5" fill="#1EC5A2" cx="28" cy="13" r="11"></circle>
            <rect id="Rectangle-18" fill="#1EC5A2" opacity="0.5" x="1" y="46" width="10" height="10"></rect>
            <g id="money-hierarchy" fill="#63594D">
                <path d="M57.5510204,58.997551 L45.3061224,58.997551 C44.6289796,58.997551 44.0816327,58.4502041 44.0816327,57.7742857 L44.0816327,45.5281633 C44.0816327,44.8510204 44.6289796,44.302449 45.3061224,44.302449 L50.2040816,44.302449 L50.2040816,36.9567347 L30.6122449,36.9567347 L30.6122449,44.302449 L35.5102041,44.302449 C36.1873469,44.302449 36.7346939,44.8510204 36.7346939,45.5281633 L36.7346939,57.7742857 C36.7346939,58.4502041 36.1873469,58.997551 35.5102041,58.997551 L23.2653061,58.997551 C22.5881633,58.997551 22.0408163,58.4502041 22.0408163,57.7742857 L22.0408163,45.5281633 C22.0408163,44.8510204 22.5881633,44.302449 23.2653061,44.302449 L28.1632653,44.302449 L28.1632653,36.9567347 L8.57142857,36.9567347 L8.57142857,44.302449 L13.4693878,44.302449 C14.1465306,44.302449 14.6938776,44.8510204 14.6938776,45.5281633 L14.6938776,57.7742857 C14.6938776,58.4502041 14.1465306,58.997551 13.4693878,58.997551 L1.2244898,58.997551 C0.547346939,58.997551 0,58.4502041 0,57.7742857 L0,45.5281633 C0,44.8510204 0.547346939,44.302449 1.2244898,44.302449 L6.12244898,44.302449 L6.12244898,35.7322449 C6.12244898,35.0563265 6.66979592,34.5077551 7.34693878,34.5077551 L28.1632653,34.5077551 L28.1632653,27.0983673 C21.3085714,26.477551 15.9183673,20.7053061 15.9183673,13.6914286 C15.9183673,6.26489796 21.9612245,0.222040816 29.3877551,0.222040816 C36.8142857,0.222040816 42.8571429,6.26489796 42.8571429,13.6914286 C42.8571429,20.7053061 37.4669388,26.477551 30.6122449,27.0983673 L30.6122449,34.5077551 L51.4285714,34.5077551 C52.1057143,34.5077551 52.6530612,35.0563265 52.6530612,35.7322449 L52.6530612,44.302449 L57.5510204,44.302449 C58.2281633,44.302449 58.7755102,44.8510204 58.7755102,45.5281633 L58.7755102,57.7742857 C58.7755102,58.4502041 58.2281633,58.997551 57.5510204,58.997551 Z M2.44897959,46.7526531 L2.44897959,56.5485714 L12.244898,56.5485714 L12.244898,46.7526531 L2.44897959,46.7526531 Z M40.4081633,13.6914286 C40.4081633,7.6155102 35.464898,2.6722449 29.3877551,2.6722449 C23.3106122,2.6722449 18.3673469,7.6155102 18.3673469,13.6914286 C18.3673469,19.7685714 23.3106122,24.7118367 29.3877551,24.7118367 C35.464898,24.7118367 40.4081633,19.7685714 40.4081633,13.6914286 Z M24.4897959,46.7526531 L24.4897959,56.5485714 L34.2857143,56.5485714 L34.2857143,46.7526531 L24.4897959,46.7526531 Z M56.3265306,46.7526531 L46.5306122,46.7526531 L46.5306122,56.5485714 L56.3265306,56.5485714 L56.3265306,46.7526531 Z M28.1632653,21.0383673 L28.1632653,19.815102 L26.9387755,19.815102 C26.2616327,19.815102 25.7142857,19.2653061 25.7142857,18.5893878 C25.7142857,17.9134694 26.2616327,17.364898 26.9387755,17.364898 L29.3877551,17.364898 C30.0636735,17.364898 30.6122449,16.8163265 30.6122449,16.1404082 C30.6122449,15.4657143 30.0636735,14.9159184 29.3877551,14.9159184 C27.362449,14.9159184 25.7142857,13.2677551 25.7142857,11.2436735 C25.7142857,9.64816327 26.7404082,8.30244898 28.1632653,7.7955102 L28.1632653,6.3444898 C28.1632653,5.66857143 28.7106122,5.12 29.3877551,5.12 C30.064898,5.12 30.6122449,5.66857143 30.6122449,6.3444898 L30.6122449,7.56897959 L31.8367347,7.56897959 C32.5138776,7.56897959 33.0612245,8.11755102 33.0612245,8.79469388 C33.0612245,9.47061224 32.5138776,10.0179592 31.8367347,10.0179592 L29.3877551,10.0179592 C28.7118367,10.0179592 28.1632653,10.5677551 28.1632653,11.2436735 C28.1632653,11.9183673 28.7118367,12.4669388 29.3877551,12.4669388 C31.4130612,12.4669388 33.0612245,14.115102 33.0612245,16.1404082 C33.0612245,17.7346939 32.0338776,19.0816327 30.6122449,19.5885714 L30.6122449,21.0383673 C30.6122449,21.7142857 30.064898,22.2628571 29.3877551,22.2628571 C28.7106122,22.2628571 28.1632653,21.7142857 28.1632653,21.0383673 Z" id="Shape"></path>
            </g>
        </g>
    </g>
</svg>