<?xml version="1.0" encoding="UTF-8"?>
<svg width="61px" height="61px" viewBox="0 0 61 61" version="1.1" xmlns="http://www.w3.org/2000/svg" xmlns:xlink="http://www.w3.org/1999/xlink">
    <!-- Generator: Sketch 47.1 (45422) - http://www.bohemiancoding.com/sketch -->
    <title>fast-access-funds</title>
    <desc>Created with Sketch.</desc>
    <defs></defs>
    <g id="Page-2" stroke="none" stroke-width="1" fill="none" fill-rule="evenodd">
        <g id="fast-access-funds">
            <rect id="Rectangle-20" fill="#1EC5A2" opacity="0.5" x="0" y="22" width="21" height="35" rx="3"></rect>
            <rect id="Rectangle-20-Copy" fill="#1EC5A2" opacity="0.5" x="42" y="28" width="15" height="29" rx="2"></rect>
            <g id="smartphone-tablet-desktop" fill="#63594D">
                <path d="M57.6143738,61.0032641 L46.2168578,61.0032641 C44.4719654,61.0032641 43.0524991,59.5280829 43.0524991,57.7122804 L43.0524991,31.3730147 C43.0524991,29.5584785 44.4719654,28.082031 46.2168578,28.082031 L57.6143738,28.082031 C59.3592663,28.082031 60.7799988,29.5584785 60.7799988,31.3730147 L60.7799988,57.7122804 C60.7799988,59.5280829 59.3592663,61.0032641 57.6143738,61.0032641 Z M58.2474988,31.3730147 C58.2474988,30.9627497 57.9575276,30.6145309 57.6143738,30.6145309 L46.2168578,30.6145309 C45.8737041,30.6145309 45.5849991,30.9627497 45.5849991,31.3730147 L45.5849991,57.7122804 C45.5849991,58.1238116 45.8737041,58.4720304 46.2168578,58.4720304 L57.6143738,58.4720304 C57.9575276,58.4720304 58.2474988,58.1238116 58.2474988,57.7122804 L58.2474988,31.3730147 Z M53.1824989,35.6782646 L50.649999,35.6782646 C49.951029,35.6782646 49.383749,35.1122509 49.383749,34.4120146 C49.383749,33.7130446 49.951029,33.1470309 50.649999,33.1470309 L53.1824989,33.1470309 C53.8814689,33.1470309 54.4487489,33.7130446 54.4487489,34.4120146 C54.4487489,35.1122509 53.8814689,35.6782646 53.1824989,35.6782646 Z M53.1824989,55.9395304 L50.649999,55.9395304 L50.649999,53.4057642 L53.1824989,53.4057642 L53.1824989,55.9395304 Z M59.5137488,24.2832811 C58.8147788,24.2832811 58.2474988,23.7160011 58.2474988,23.0157648 L58.2474988,3.43194274 C58.2474988,3.0659965 57.9575276,2.75576526 57.6143738,2.75576526 L8.23062483,2.75576526 C7.88747109,2.75576526 7.59749985,3.0659965 7.59749985,3.43194274 L7.59749985,15.4195313 C7.59749985,16.1197675 7.03021986,16.6857812 6.33124987,16.6857812 C5.63227989,16.6857812 5.0649999,16.1197675 5.0649999,15.4195313 L5.0649999,3.43194274 C5.0649999,1.66425778 6.48573237,0.223265306 8.23062483,0.223265306 L57.6143738,0.223265306 C59.3592663,0.223265306 60.7799988,1.66425778 60.7799988,3.43194274 L60.7799988,23.0157648 C60.7799988,23.7160011 60.2127188,24.2832811 59.5137488,24.2832811 Z M20.2587333,20.4845311 C23.0520808,20.4845311 25.3249995,22.8460874 25.3249995,25.7495985 L25.3249995,55.7381967 C25.3249995,58.6417079 23.0520808,61.0032641 20.2587333,61.0032641 L5.0649999,61.0032641 C2.27165245,61.0032641 0,58.6417079 0,55.7381967 L0,25.7495985 C0,22.8460874 2.27165245,20.4845311 5.0649999,20.4845311 L20.2587333,20.4845311 Z M2.53249995,25.7495985 L2.53249995,55.7381967 C2.53249995,57.2463004 3.66832618,58.4720304 5.0649999,58.4720304 L20.2587333,58.4720304 C21.6566733,58.4720304 22.7924995,57.2463004 22.7924995,55.7381967 L22.7924995,25.7495985 C22.7924995,24.2427611 21.6566733,23.0157648 20.2587333,23.0157648 L5.0649999,23.0157648 C3.66832618,23.0157648 2.53249995,24.2427611 2.53249995,25.7495985 Z M11.3962498,25.5482648 L13.9287497,25.5482648 C14.6277197,25.5482648 15.1949997,26.1155448 15.1949997,26.8145148 C15.1949997,27.5160173 14.6277197,28.082031 13.9287497,28.082031 L11.3962498,28.082031 C10.6972798,28.082031 10.1299998,27.5160173 10.1299998,26.8145148 C10.1299998,26.1155448 10.6972798,25.5482648 11.3962498,25.5482648 Z M13.9287497,55.9395304 L11.3962498,55.9395304 L11.3962498,53.4057642 L13.9287497,53.4057642 L13.9287497,55.9395304 Z M30.3899994,42.0107807 L37.9874992,42.0107807 C38.6864692,42.0107807 39.2537492,42.5767945 39.2537492,43.2757644 C39.2537492,43.9760007 38.6864692,44.5420144 37.9874992,44.5420144 L30.3899994,44.5420144 C29.6910294,44.5420144 29.1237494,43.9760007 29.1237494,43.2757644 C29.1237494,42.5767945 29.6910294,42.0107807 30.3899994,42.0107807 Z" id="Shape"></path>
            </g>
        </g>
    </g>
</svg>