<?xml version="1.0" encoding="UTF-8"?>
<svg width="60px" height="59px" viewBox="0 0 60 59" version="1.1" xmlns="http://www.w3.org/2000/svg" xmlns:xlink="http://www.w3.org/1999/xlink">
    <!-- Generator: Sketch 47.1 (45422) - http://www.bohemiancoding.com/sketch -->
    <title>open-software</title>
    <desc>Created with Sketch.</desc>
    <defs></defs>
    <g id="Page-2" stroke="none" stroke-width="1" fill="none" fill-rule="evenodd">
        <g id="open-software">
            <circle id="Oval-4" fill="#1EC5A2" opacity="0.5" cx="53" cy="47" r="6"></circle>
            <circle id="Oval-4-Copy" fill="#1EC5A2" opacity="0.5" cx="20" cy="28" r="6"></circle>
            <circle id="Oval-4-Copy-2" fill="#1EC5A2" opacity="0.5" cx="37" cy="28" r="6"></circle>
            <circle id="Oval-4-Copy-3" fill="#1EC5A2" opacity="0.5" cx="35" cy="7" r="6"></circle>
            <g id="Group-20" fill="#63594D">
                <path d="M54.375,58.72625 C50.95875,58.72625 48.75,55.51625 48.75,50.54625 C48.75,45.57875 50.95875,42.36875 54.375,42.36875 C57.79125,42.36875 60,45.57875 60,50.54625 C60,55.51625 57.79125,58.72625 54.375,58.72625 Z M54.375,44.865 C52.06875,44.865 51.25,47.92625 51.25,50.54625 C51.25,53.16875 52.06875,56.23 54.375,56.23 C56.68125,56.23 57.5,53.16875 57.5,50.54625 C57.5,47.92625 56.68125,44.865 54.375,44.865 Z M56.25,37.50375 C55.56,37.50375 55,36.945 55,36.25625 L55,25.02125 L52,27.2675 C51.4475,27.68375 50.665,27.57125 50.25,27.01625 C49.83625,26.46625 49.9475,25.68375 50.5,25.27 L55.5,21.525 C55.87875,21.24 56.385,21.19625 56.80875,21.4075 C57.2325,21.61875 57.5,22.05125 57.5,22.52375 L57.5,36.25625 C57.5,36.945 56.94,37.50375 56.25,37.50375 Z M56.25,16.2825 C55.56,16.2825 55,15.72375 55,15.03375 L55,3.79875 L52,6.045 C51.4475,6.46 50.665,6.34875 50.25,5.79375 C49.83625,5.24375 49.9475,4.46125 50.5,4.0475 L55.5,0.3025 C55.87875,0.0175 56.385,-0.02625 56.80875,0.185 C57.2325,0.39625 57.5,0.82875 57.5,1.30125 L57.5,15.03375 C57.5,15.72375 56.94,16.2825 56.25,16.2825 Z M38.125,37.50375 C34.70875,37.50375 32.5,34.29375 32.5,29.32375 C32.5,24.35625 34.70875,21.14625 38.125,21.14625 C41.54125,21.14625 43.75,24.35625 43.75,29.32375 C43.75,34.29375 41.54125,37.50375 38.125,37.50375 Z M38.125,23.6425 C35.81875,23.6425 35,26.70375 35,29.32375 C35,31.94625 35.81875,35.0075 38.125,35.0075 C40.43125,35.0075 41.25,31.94625 41.25,29.32375 C41.25,26.70375 40.43125,23.6425 38.125,23.6425 Z M38.125,16.41125 C34.70875,16.41125 32.5,13.20125 32.5,8.23125 C32.5,3.2625 34.70875,0.0525 38.125,0.0525 C41.54125,0.0525 43.75,3.2625 43.75,8.23125 C43.75,13.20125 41.54125,16.41125 38.125,16.41125 Z M38.125,2.55 C35.81875,2.55 35,5.61125 35,8.23125 C35,10.85375 35.81875,13.91375 38.125,13.91375 C40.43125,13.91375 41.25,10.85375 41.25,8.23125 C41.25,5.61125 40.43125,2.55 38.125,2.55 Z M21.875,37.50375 C18.45875,37.50375 16.25,34.29375 16.25,29.32375 C16.25,24.35625 18.45875,21.14625 21.875,21.14625 C25.29125,21.14625 27.5,24.35625 27.5,29.32375 C27.5,34.29375 25.29125,37.50375 21.875,37.50375 Z M21.875,23.6425 C19.56875,23.6425 18.75,26.70375 18.75,29.32375 C18.75,31.94625 19.56875,35.0075 21.875,35.0075 C24.18125,35.0075 25,31.94625 25,29.32375 C25,26.70375 24.18125,23.6425 21.875,23.6425 Z M23.75,16.2825 C23.06,16.2825 22.5,15.72375 22.5,15.03375 L22.5,3.79875 L19.5,6.045 C18.9475,6.46 18.165,6.34875 17.75,5.79375 C17.33625,5.24375 17.4475,4.46125 18,4.0475 L23,0.3025 C23.37875,0.0175 23.885,-0.02625 24.30875,0.185 C24.7325,0.39625 25,0.82875 25,1.30125 L25,15.03375 C25,15.72375 24.44,16.2825 23.75,16.2825 Z M5.625,58.72625 C2.20875,58.72625 0,55.51625 0,50.54625 C0,45.57875 2.20875,42.36875 5.625,42.36875 C9.04125,42.36875 11.25,45.57875 11.25,50.54625 C11.25,55.51625 9.04125,58.72625 5.625,58.72625 Z M5.625,44.865 C3.31875,44.865 2.5,47.92625 2.5,50.54625 C2.5,53.16875 3.31875,56.23 5.625,56.23 C7.93125,56.23 8.75,53.16875 8.75,50.54625 C8.75,47.92625 7.93125,44.865 5.625,44.865 Z M8.05875,21.4075 C8.4825,21.61875 8.75,22.05125 8.75,22.52375 L8.75,36.25625 C8.75,36.945 8.19,37.50375 7.5,37.50375 C6.81,37.50375 6.25,36.945 6.25,36.25625 L6.25,25.02125 L3.25,27.2675 C2.6975,27.68375 1.91375,27.57125 1.5,27.01625 C1.08625,26.46625 1.1975,25.68375 1.75,25.27 L6.75,21.525 C7.12875,21.24 7.635,21.19625 8.05875,21.4075 Z M5.625,16.41125 C2.20875,16.41125 0,13.20125 0,8.23125 C0,3.2625 2.20875,0.0525 5.625,0.0525 C9.04125,0.0525 11.25,3.2625 11.25,8.23125 C11.25,13.20125 9.04125,16.41125 5.625,16.41125 Z M5.625,2.55 C3.31875,2.55 2.5,5.61125 2.5,8.23125 C2.5,10.85375 3.31875,13.91375 5.625,13.91375 C7.93125,13.91375 8.75,10.85375 8.75,8.23125 C8.75,5.61125 7.93125,2.55 5.625,2.55 Z M23,42.7475 C23.37875,42.4625 23.885,42.4175 24.30875,42.63 C24.7325,42.8425 25,43.27375 25,43.74625 L25,57.4775 C25,58.1675 24.44,58.72625 23.75,58.72625 C23.06,58.72625 22.5,58.1675 22.5,57.4775 L22.5,46.24375 L19.5,48.49 C18.9475,48.905 18.165,48.79375 17.75,48.23875 C17.33625,47.68875 17.4475,46.90625 18,46.4925 L23,42.7475 Z M39.25,42.7475 C39.62875,42.4625 40.135,42.4175 40.55875,42.63 C40.9825,42.8425 41.25,43.27375 41.25,43.74625 L41.25,57.4775 C41.25,58.1675 40.69,58.72625 40,58.72625 C39.31,58.72625 38.75,58.1675 38.75,57.4775 L38.75,46.24375 L35.75,48.49 C35.1975,48.905 34.41375,48.79375 34,48.23875 C33.58625,47.68875 33.6975,46.90625 34.25,46.4925 L39.25,42.7475 Z" id="Shape"></path>
            </g>
        </g>
    </g>
</svg>