<?xml version="1.0" encoding="UTF-8"?>
<svg width="61px" height="59px" viewBox="0 0 61 59" version="1.1" xmlns="http://www.w3.org/2000/svg" xmlns:xlink="http://www.w3.org/1999/xlink">
    <!-- Generator: Sketch 47.1 (45422) - http://www.bohemiancoding.com/sketch -->
    <title>payment-options</title>
    <desc>Created with Sketch.</desc>
    <defs></defs>
    <g id="Page-2" stroke="none" stroke-width="1" fill="none" fill-rule="evenodd">
        <g id="payment-options">
            <path d="M27,56 C12.0883118,56 0,44.5832611 0,30.5 C0,16.4167389 12.0883118,5 27,5 C41.9116882,5 54,16.4167389 54,30.5 C54,44.5832611 41.9116882,56 27,56 Z M25.5,11 C22.4624339,11 20,13.4624339 20,16.5 L20,44.5 C20,47.5375661 22.4624339,50 25.5,50 C28.5375661,50 31,47.5375661 31,44.5 L31,16.5 C31,13.4624339 28.5375661,11 25.5,11 Z" id="Combined-Shape" fill-opacity="0.5" fill="#1EC5A2"></path>
            <g id="bitcoin-circle" transform="translate(2.000000, 0.000000)" fill="#63594D">
                <path d="M29.3877551,58.9987755 C13.1840816,58.9987755 0,45.8146939 0,29.6110204 C0,13.4061224 13.1840816,0.223265306 29.3877551,0.223265306 C45.5914286,0.223265306 58.7755102,13.4061224 58.7755102,29.6110204 C58.7755102,45.8146939 45.5914286,58.9987755 29.3877551,58.9987755 Z M29.3877551,2.6722449 C14.5334694,2.6722449 2.44897959,14.7567347 2.44897959,29.6110204 C2.44897959,44.4653061 14.5334694,56.5497959 29.3877551,56.5497959 C44.2420408,56.5497959 56.3265306,44.4653061 56.3265306,29.6110204 C56.3265306,14.7567347 44.2420408,2.6722449 29.3877551,2.6722449 Z M31.5306122,44.3036735 L30.6122449,44.3036735 L30.6122449,45.5293878 C30.6122449,46.2053061 30.064898,46.7538776 29.3877551,46.7538776 C28.7106122,46.7538776 28.1632653,46.2053061 28.1632653,45.5293878 L28.1632653,44.3036735 L24.4897959,44.3036735 L24.4897959,45.5293878 C24.4897959,46.2053061 23.942449,46.7538776 23.2653061,46.7538776 C22.5881633,46.7538776 22.0408163,46.2053061 22.0408163,45.5293878 L22.0408163,44.3036735 L20.8163265,44.3036735 C20.1391837,44.3036735 19.5918367,43.7563265 19.5918367,43.0791837 L19.5918367,16.1416327 C19.5918367,15.4657143 20.1391837,14.9171429 20.8163265,14.9171429 L22.0408163,14.9171429 L22.0408163,13.6926531 C22.0408163,13.0167347 22.5881633,12.4681633 23.2653061,12.4681633 C23.942449,12.4681633 24.4897959,13.0167347 24.4897959,13.6926531 L24.4897959,14.9171429 L28.1632653,14.9171429 L28.1632653,13.6926531 C28.1632653,13.0167347 28.7106122,12.4681633 29.3877551,12.4681633 C30.064898,12.4681633 30.6122449,13.0167347 30.6122449,13.6926531 L30.6122449,15.0518367 C34.08,15.6873469 36.7346939,18.9408163 36.7346939,22.875102 C36.7346939,25.2922449 35.7146939,27.4338776 34.14,28.8946939 C37.0726531,30.0102041 39.1836735,32.9134694 39.1836735,36.3457143 C39.1836735,40.7342857 35.7502041,44.3036735 31.5306122,44.3036735 Z M34.2857143,22.875102 C34.2857143,19.8371429 32.0889796,17.3661224 29.3877551,17.3661224 L22.0408163,17.3661224 L22.0408163,28.3865306 L29.3877551,28.3865306 C32.0889796,28.3865306 34.2857143,25.9142857 34.2857143,22.875102 Z M31.5306122,30.8355102 L22.0408163,30.8355102 L22.0408163,41.8559184 L31.5306122,41.8559184 C34.4008163,41.8559184 36.7346939,39.384898 36.7346939,36.3457143 C36.7346939,33.3065306 34.4008163,30.8355102 31.5306122,30.8355102 Z" id="Shape"></path>
            </g>
        </g>
    </g>
</svg>