<?xml version="1.0" encoding="UTF-8"?>
<svg width="630px" height="429px" viewBox="0 0 630 429" version="1.1" xmlns="http://www.w3.org/2000/svg" xmlns:xlink="http://www.w3.org/1999/xlink">
    <!-- Generator: Sketch 47.1 (45422) - http://www.bohemiancoding.com/sketch -->
    <title>products-hero-illustration@1.5x</title>
    <desc>Created with Sketch.</desc>
    <defs></defs>
    <g id="Page-2" stroke="none" stroke-width="1" fill="none" fill-rule="evenodd">
        <g id="SL01-Products" transform="translate(-690.000000, -199.000000)">
            <g id="Group-6">
                <g id="products-hero-illustration" transform="translate(690.000000, 199.000000)">
                    <path d="M414.916052,254.763608 L395.842833,254.763608 C395.39978,258.06423 392.554725,260.630159 389.141209,260.630159 L359.463111,260.630159 L359.463111,276.385752 L418.963939,335.929781 L414.916052,254.763608 Z M460.317015,257.875518 C459.93621,256.415293 459.947195,254.832313 460.43144,253.287809 C461.623287,249.520904 462.502069,245.949123 463.125454,242.555061 C461.675465,244.125216 459.603005,245.114578 457.312681,245.114578 L453.84424,245.114578 L453.84424,245.308786 C455.842553,245.898739 457.312681,247.752877 457.312681,249.937719 L457.312681,249.940467 C457.312681,252.592507 455.142274,254.763608 452.491283,254.763608 L451.874305,254.763608 L452.928843,260.508321 C455.522164,259.973332 458.006552,259.079242 460.317015,257.875518 Z M347.812849,292.876037 L294.425044,346.300679 C292.162182,348.565219 288.454822,348.567967 286.189214,346.299763 C283.923605,344.032474 283.924521,340.322366 286.189214,338.057826 L347.812849,276.386668 L347.812849,260.630159 L318.136582,260.630159 C314.722149,260.630159 311.87801,258.06423 311.434042,254.763608 L227.916849,254.763608 C225.264942,254.763608 223.095451,252.592507 223.095451,249.940467 L223.095451,249.937719 C223.095451,247.284762 225.264942,245.114578 227.916849,245.114578 L223.095451,245.114578 C218.73999,245.114578 215.173602,241.546462 215.173602,237.18594 L215.173602,136.304892 L175.900309,136.304892 C168.253995,136.304892 162,130.047176 162,122.395193 L162,119.386799 C162,111.735731 168.253995,105.4771 175.900309,105.4771 L191.302785,105.4771 L191.302785,51.7135099 L181.67372,51.7135099 C179.016322,51.7135099 176.843168,49.5387452 176.843168,46.8793764 L176.843168,45.8341335 C176.843168,43.1747646 179.016322,41 181.67372,41 L211.452512,41 C214.108995,41 216.283063,43.1747646 216.283063,45.8341335 L216.283063,46.8793764 C216.283063,49.5387452 214.108995,51.7135099 211.452512,51.7135099 L201.822531,51.7135099 L201.822531,70.9492756 L201.821616,70.8704931 L201.821616,86.3210324 L201.822531,86.243166 L201.822531,105.4771 L215.173602,105.4771 L215.173602,97.2415755 C215.173602,92.8810533 218.73999,89.313853 223.095451,89.313853 L227.916849,89.313853 C225.264942,89.313853 223.095451,87.1427527 223.095451,84.4897963 L223.095451,84.4879642 C223.095451,81.8350078 225.264942,79.6648236 227.916849,79.6648236 L452.491283,79.6648236 C455.142274,79.6648236 457.312681,81.8350078 457.312681,84.4879642 L457.312681,84.4897963 C457.312681,87.1427527 455.142274,89.313853 452.491283,89.313853 L457.312681,89.313853 C461.668142,89.313853 465.232699,92.8810533 465.232699,97.2415755 L465.232699,186.185235 C475.674637,198.323244 487.888784,221.645625 476.298022,258.273095 C475.92454,259.461246 475.310308,260.506489 474.524898,261.37218 C473.649778,264.513405 471.583726,267.322095 468.528129,269.058975 C464.724653,271.226411 460.279484,271.223663 456.616064,269.446475 C457.136925,268.951794 457.636732,268.439708 458.112738,267.910216 C456.58494,267.534624 455.181636,266.892455 453.944934,266.039588 L467.112925,337.76743 C472.235489,338.836491 476.324569,342.833331 477.656472,347.985343 L451.068756,347.985343 C451.541101,346.155939 452.361297,344.472191 453.453366,343.013798 L440.139826,270.500879 L440.139826,270.501795 L440.131588,270.447746 L440.017163,269.827563 C438.604705,262.939587 433.256038,262.626289 432.573152,262.61438 L429.931315,262.61438 L434.188828,347.985343 L417.372979,347.985343 C417.102936,348.003664 416.832894,348.003664 416.563767,347.985343 L395.944442,347.985343 C397.32303,343.711848 401.041374,340.753838 405.658639,339.104901 L359.463111,292.875121 L359.463111,342.157267 C359.463111,345.359869 356.842328,347.984427 353.638437,347.984427 L353.637522,347.984427 C350.433631,347.984427 347.812849,345.359869 347.812849,342.157267 L347.812849,292.876037 L347.812849,292.876037 Z" id="Fill-3" fill="#1CB292"></path>
                    <path d="M476.216477,273.849458 C476.855668,271.946029 475.883735,269.865122 474.045948,269.2031 C472.208162,268.542018 470.199924,269.547727 469.560734,271.451156 C468.676746,274.091729 468.885277,276.821511 469.854489,279.237655 C470.497307,280.837774 471.492812,282.322393 472.734021,283.553471 C473.977043,284.788305 475.476648,285.76866 477.122224,286.358376 C479.518509,287.220412 482.18951,287.275815 484.819712,286.143336 C486.623046,285.366752 487.47802,283.22199 486.728218,281.355184 C485.978415,279.487439 483.908525,278.601926 482.105192,279.37851 C481.182218,279.775723 480.257432,279.760698 479.43691,279.465841 C478.772333,279.227325 478.152182,278.817905 477.625417,278.2958 C477.096838,277.769939 476.667084,277.126698 476.386928,276.427116 C476.041493,275.566018 475.946294,274.655152 476.216477,273.849458" id="Fill-4" fill="#EA8A70"></path>
                    <path d="M474.2167,284.849422 C474.854978,282.946007 473.883961,280.865116 472.046191,280.203099 C470.208422,279.542021 468.199296,280.547723 467.561018,282.451138 C466.677039,285.092631 466.88466,287.821454 467.854771,290.237579 C468.497582,291.837688 469.493079,293.322295 470.734276,294.554303 C471.978193,295.788189 473.476878,296.768537 475.122439,297.359187 C477.519608,298.220278 480.189679,298.275681 482.819856,297.14321 C484.622267,296.367571 485.47814,294.221886 484.728344,292.356032 C483.978549,290.488301 481.908678,289.601856 480.10536,290.378434 C479.182396,290.776583 478.258524,290.760619 477.437104,290.465764 C476.772533,290.22725 476.151481,289.817833 475.625627,289.294793 C475.097052,288.769875 474.667303,288.126639 474.387149,287.427061 C474.040811,286.56597 473.94652,285.656049 474.2167,284.849422" id="Fill-5" fill="#EA8A70"></path>
                    <path d="M584.339952,335.698351 C589.766706,333.520339 592.410228,327.33387 590.242449,321.883797 C588.073756,316.433725 581.914668,313.778844 576.487001,315.955938 C576.371033,316.002708 535.668094,332.995782 500.072312,284.311037 C496.604229,279.594611 489.987662,278.594101 485.292328,282.075251 C480.596994,285.556401 479.599852,292.2014 483.066108,296.917826 C528.436987,358.9696 584.17924,335.762545 584.339952,335.698351" id="Fill-6" fill="#2E7A53"></path>
                    <path d="M489.819241,385 L608.179843,385 C620.180012,385 630,394.899284 630,406.999538 C630,419.099792 620.180012,429 608.179843,429 L489.819241,429 C477.818154,429 468,419.099792 468,406.999538 C468,394.899284 477.818154,385 489.819241,385" id="Fill-7" fill="#1CB292"></path>
                    <path d="M506.357497,224 L517.643411,224 C521.689853,224 525,220.668068 525,216.592051 L525,211.499543 C525,204.62452 519.414694,199 512.584678,199 L511.298205,199 C504.534465,199 499,204.572416 499,211.382537 L499,216.592051 C499,220.668068 502.310147,224 506.357497,224" id="Fill-8" fill="#1D1E1C"></path>
                    <path d="M519.810166,218 L527.189834,218 C529.836065,218 532,215.867327 532,213.258426 L532,209.99955 C532,205.599167 528.348074,202 523.883187,202 L523.040997,202 C518.618129,202 515,205.565858 515,209.92573 L515,213.258426 C515,215.867327 517.163935,218 519.810166,218" id="Fill-9" fill="#1D1E1C"></path>
                    <path d="M308.500915,359 C435.454757,359 539,352.037253 539,343.500455 C539,334.962747 435.454757,328 308.500915,328 C181.545243,328 78,334.962747 78,343.500455 C78,352.037253 181.545243,359 308.500915,359" id="Fill-10" fill="#1CB292"></path>
                    <path d="M353.999083,348 C437.718424,348 506,344.855131 506,340.999552 C506,337.144869 437.718424,334 353.999083,334 C270.281576,334 202,337.144869 202,340.999552 C202,344.855131 270.281576,348 353.999083,348" id="Fill-11" fill="#464644"></path>
                    <path d="M59.823523,309.905491 C62.9787805,314.32419 69.0847379,315.322787 73.4573854,312.134044 C77.830033,308.945302 78.819332,302.778144 75.6631693,298.359446 C75.5961903,298.265256 51.3407135,265.276816 86.7699294,222.123174 C90.1967237,217.92669 89.6092991,211.715638 85.4547862,208.25347 C81.3002732,204.790388 75.1544904,205.384791 71.7267909,209.582189 C26.5702219,264.584565 59.7302953,309.774722 59.823523,309.905491" id="Fill-12" fill="#FFFFFE"></path>
                    <path d="M116.295251,216 L94.7029279,216 C86.0659988,216 79,223.050703 79,231.669845 L79,248.557364 C79,263.101314 90.9244991,275 105.5,275 L105.746795,275 C120.185694,275 132,263.213085 132,248.804534 L132,231.669845 C132,223.050703 124.93309,216 116.295251,216" id="Fill-13" fill="#EA8A70"></path>
                    <path d="M85,265.779982 C89.8945779,271.414788 97.1572636,275 105.229152,275 L105.478137,275 C108.832118,275 112.043298,274.375113 115,273.238052 C110.151192,267.596934 102.914137,264 94.8660483,264 L94.6170628,264 C91.2301285,264 87.9859946,264.631199 85,265.779982" id="Fill-14" fill="#B75E4B"></path>
                    <path d="M90.1087234,246 L98.8912766,246 C103.351302,246 107,249.708072 107,254.2416 L107,285 L82,285 L82,254.2416 C82,249.708072 85.6477873,246 90.1087234,246" id="Fill-15" fill="#EA8A70"></path>
                    <path d="M319.110281,257.865246 L319.111201,257.865246 C321.630213,260.352999 321.628372,264.424364 319.113043,266.908479 L249.041969,336.135322 C246.52664,338.620346 242.406545,338.623075 239.889374,336.134413 L239.888454,336.133503 C237.369441,333.64666 237.372203,329.576205 239.886612,327.090271 L309.957686,257.864337 C312.473015,255.379312 316.59311,255.377493 319.110281,257.865246" id="Fill-16" fill="#2D2D2A"></path>
                    <path d="M309.888922,257.865246 L309.888001,257.865246 C307.369899,260.352999 307.37174,264.424364 309.88708,266.908479 L379.957525,336.135322 C382.473785,338.620346 386.593897,338.623075 389.111999,336.134413 L389.111999,336.133503 C391.630101,333.64666 391.62826,329.576205 389.11292,327.090271 L319.043396,257.864337 C316.528056,255.379312 312.407944,255.377493 309.888922,257.865246" id="Fill-17" fill="#2D2D2A"></path>
                    <path d="M314.499538,227 L314.501387,227 C318.077011,227 321,229.887879 321,233.411529 L321,331.588471 C321,335.112121 318.077011,338 314.501387,338 L314.499538,338 C310.923914,338 308,335.112121 308,331.588471 L308,233.411529 C308,229.887879 310.923914,227 314.499538,227" id="Fill-18" fill="#464644"></path>
                    <path d="M274.438651,227 L352.559526,227 C356.652106,227 360,230.374885 360,234.499541 L360,234.502297 C360,238.625115 356.652106,242 352.559526,242 L274.438651,242 C270.346983,242 267,238.625115 267,234.502297 L267,234.499541 C267,230.374885 270.346983,227 274.438651,227" id="Fill-19" fill="#2D2D2A"></path>
                    <path d="M169.74247,53 L428.25753,53 C433.0663,53 437,56.9356336 437,61.7508354 L437,216.249165 C437,221.061621 433.0663,225 428.25753,225 L169.74247,225 C164.932786,225 161,221.061621 161,216.249165 L161,61.7508354 C161,56.9356336 164.932786,53 169.74247,53" id="Fill-20" fill="#FFFFFE"></path>
                    <path d="M175.330847,54 L423.668237,54 C426.600707,54 429,51.5257325 429,48.5004725 C429,45.4752126 426.600707,43 423.668237,43 L175.330847,43 C172.398377,43 170,45.4752126 170,48.5004725 C170,51.5257325 172.398377,54 175.330847,54" id="Fill-21" fill="#464644"></path>
                    <path d="M175.330905,236 L416.668179,236 C419.600681,236 422,233.524787 422,230.499527 C422,227.475213 419.600681,225 416.668179,225 L175.330905,225 C172.397487,225 170,227.475213 170,230.499527 C170,233.524787 172.397487,236 175.330905,236" id="Fill-22" fill="#464644"></path>
                    <path d="M191.326678,236 L299.674237,236 C302.602995,236 305,233.524787 305,230.499527 C305,227.475213 302.602995,225 299.674237,225 L191.326678,225 C188.39609,225 186,227.475213 186,230.499527 C186,233.524787 188.39609,236 191.326678,236" id="Fill-23" fill="#565451"></path>
                    <path d="M209.210851,236 L218.790044,236 C221.656012,236 224,233.524787 224,230.499527 C224,227.475213 221.656012,225 218.790044,225 L209.210851,225 C206.344883,225 204,227.475213 204,230.499527 C204,233.524787 206.344883,236 209.210851,236" id="Fill-24" fill="#676561"></path>
                    <path d="M262.325804,54 L370.674196,54 C373.603892,54 376,51.5257325 376,48.5004725 C376,45.4752126 373.603892,43 370.674196,43 L262.325804,43 C259.395193,43 257,45.4752126 257,48.5004725 C257,51.5257325 259.395193,54 262.325804,54" id="Fill-25" fill="#565451"></path>
                    <path d="M280.209956,54 L289.790044,54 C292.656012,54 295,51.5257325 295,48.5004725 C295,45.4752126 292.656012,43 289.790044,43 L280.209956,43 C277.343988,43 275,45.4752126 275,48.5004725 C275,51.5257325 277.343988,54 280.209956,54" id="Fill-26" fill="#676561"></path>
                    <path d="M308,242 L321,242 L321,258 C321,251.984815 315.908341,247.063868 309.682429,247.063868 L308,247.063868 L308,242" id="Fill-27" fill="#2D2D2A"></path>
                    <polyline id="Fill-28" fill="#34312F" points="381 227 397.368556 227 403 338 386.632371 338 381 227"></polyline>
                    <path d="M403,339 L361,339 C365.929189,323 398.070811,323 403,339" id="Fill-29" fill="#34312F"></path>
                    <path d="M365.000445,115 C368.304432,115 371,112.304632 371,109 C371,105.696259 368.304432,103 365.000445,103 C361.695568,103 359,105.696259 359,109 C359,112.304632 361.695568,115 365.000445,115" id="Fill-30" fill="#B75E4B"></path>
                    <path d="M352.556173,124.686499 C350.533069,123.672491 349.147003,121.582187 349.147003,119.171285 C349.147003,117.393336 349.898783,115.790343 351.105853,114.665499 C349.25899,111.718739 348.189608,108.244365 348.189608,104.531832 C348.189608,103.874147 348.223572,103.221958 348.289662,102.581676 C347.252408,101.154554 346.638317,99.4050012 346.638317,97.5171329 L346.638317,88.860052 C346.638317,82.8621083 351.510658,78 357.521225,78 C360.876238,78 363.87785,79.5159739 365.872499,81.8984802 C366.662831,81.6117734 367.515583,81.455138 368.404134,81.455138 C372.500829,81.455138 375.824632,84.7701286 375.824632,88.860052 L397.935589,88.860052 C398.646062,88.860052 399.339095,88.9461556 400,89.110119 L400,225 L355.296177,225 C351.592353,218.250939 349.435231,210.159028 349.435231,201.456147 C349.435231,195.203557 350.549591,189.266985 352.549748,183.914819 C305.697065,180.301213 290.912979,143.837233 290.861575,143.716322 L290.840463,143.663194 C284.612347,142.171952 279.984174,136.58071 279.984174,129.911342 C279.984174,125.296552 282.199125,121.201133 285.6239,118.618939 L275.642393,101.366149 C275.0026,100.259626 275.198117,98.8947913 276.029757,98.0053589 L274.1269,94.7160162 C273.865292,94.266262 274.021339,93.6864364 274.473875,93.4262935 L274.473875,93.4253775 C274.926412,93.1652345 275.50654,93.3209539 275.768148,93.7707081 L277.712312,97.1314984 C278.826672,96.9757791 279.98142,97.493317 280.576235,98.5238128 L290.787223,116.172313 C291.866702,115.909422 292.995748,115.770191 294.156005,115.770191 C301.982226,115.770191 308.326917,122.100641 308.326917,129.911342 C308.326917,131.836766 307.939553,133.671506 307.241931,135.345031 C307.482427,135.73891 307.696303,136.154772 307.879888,136.592618 C307.918441,136.687882 320.682176,168.25403 365.547554,165.640693 C367.681727,163.963503 369.976538,162.556533 372.396186,161.462834 L370.071084,155.058188 L375.862267,155.058188 L375.862267,151.300771 C362.78093,149.732585 352.556173,138.544607 352.556173,125.085873 L352.556173,124.686499" id="Fill-31" fill="#E7E1DD"></path>
                    <path d="M301.716262,133.708062 C299.756984,129.042365 301.955355,123.67212 306.626779,121.715244 C311.298203,119.758367 316.675041,121.954954 318.634319,126.620651 C318.675385,126.719087 332.961602,162.109658 384.549858,154.648553 C389.557106,153.936713 394.196591,157.414795 394.90748,162.417727 C395.620194,167.418836 392.137842,172.052631 387.129681,172.762649 C321.378405,182.272685 301.772841,133.846602 301.716262,133.708062" id="Fill-32" fill="#413936"></path>
                    <path d="M284.501857,83.1264897 L284.503805,83.1264897 C284.982144,82.8658615 285.598822,83.0213239 285.874524,83.4703359 L290.866396,91.5854729 C291.142098,92.0344849 290.977456,92.6142682 290.498143,92.8730674 L290.497169,92.8739819 C290.017856,93.1336955 289.401178,92.9791476 289.125476,92.5283066 L284.133604,84.4149986 C283.857902,83.9641576 284.022544,83.3862033 284.501857,83.1264897" id="Fill-33" fill="#676561"></path>
                    <path d="M392,234 C374.093638,232.277738 360,213.910904 360,191.500457 C360,169.090926 374.093638,150.721348 392,149 L392,234" id="Fill-34" fill="#34312F"></path>
                    <polyline id="Fill-35" fill="#FFFFFE" points="380 145 401 145 401 156 383.879474 156 380 145"></polyline>
                    <path d="M381,208 L420.594103,208 L420.594103,227.743809 L441,339 L424.887055,339 L409.213172,253.546812 L409.213172,253.54864 L409.204044,253.48921 L409.078076,252.806213 C407.521733,245.209135 401.628623,244.863522 400.876466,244.849807 L396.066863,244.849807 C387.77945,244.849807 381,238.060073 381,229.758969 L381,208" id="Fill-36" fill="#413936"></path>
                    <path d="M436.500904,327 C443.450458,327 449.295819,332.091024 451,339 L422,339 C423.704181,332.091024 429.549542,327 436.500904,327" id="Fill-37" fill="#34312F"></path>
                    <path d="M364.941107,81 C372.321279,82.2139523 378,88.7239084 378,96.5125245 L378,113.999089 L377.916145,114 C367.510868,114 359,105.396614 359,94.8802508 C359,89.4284018 361.28844,84.49148 364.941107,81" id="Fill-38" fill="#52262C"></path>
                    <polygon id="Fill-39" fill="#EA8A70" points="386 155 413 155 413 124 386 124"></polygon>
                    <path d="M386,124 L413,124 L413,130.993963 C408.889785,140.394848 399.537692,147 388.727579,147 L386,147 L386,124" id="Fill-40" fill="#B75E4B"></path>
                    <path d="M378.703198,82 L400.295892,82 C408.932969,82 416,89.0515032 416,97.670512 L416,130.961604 C416,136.482858 411.472911,141 405.938588,141 L389.252745,141 C374.811777,141 363,129.212358 363,114.804029 L363,97.670512 C363,89.0515032 370.06612,82 378.703198,82" id="Fill-41" fill="#EA8A70"></path>
                    <path d="M402.941389,81 C410.321912,82.2139523 416,88.7239084 416,96.5125245 L416,113.999089 L415.917042,114 C405.512173,114 397,105.396614 397,94.8802508 C397,89.4284018 399.288548,84.49148 402.941389,81" id="Fill-42" fill="#5C2A30"></path>
                    <path d="M387.998047,105 L388.001953,105 C389.100586,105 390,105.898584 390,106.997395 L390,109.001628 C390,110.10044 389.100586,111 388.001953,111 L387.998047,111 C386.898438,111 386,110.10044 386,109.001628 L386,106.997395 C386,105.898584 386.898438,105 387.998047,105" id="Fill-43" fill="#673037"></path>
                    <path d="M414,117 C417.304632,117 420,114.304632 420,111 C420,107.695368 417.304632,105 414,105 C410.695368,105 408,107.695368 408,111 C408,114.304632 410.695368,117 414,117" id="Fill-44" fill="#EA8A70"></path>
                    <path d="M414.499497,113 C415.876935,113 417,111.87671 417,110.5 C417,109.12329 415.876935,108 414.499497,108 C413.122059,108 412,109.12329 412,110.5 C412,111.87671 413.122059,113 414.499497,113" id="Fill-45" fill="#B75E4B"></path>
                    <path d="M357,79 L408.321384,79 C413.096919,79 417,82.8245503 417,87.5 L417,96 L365.678616,96 C360.904918,96 357,92.1763492 357,87.5008995 L357,79" id="Fill-46" fill="#673037"></path>
                    <path d="M368,90 C374.058536,90 379,85.0592552 379,79.0004639 C379,72.9407448 374.058536,68 368,68 C361.941464,68 357,72.9407448 357,79.0004639 C357,85.0592552 361.941464,90 368,90" id="Fill-47" fill="#673037"></path>
                    <path d="M378.5,86 C382.629964,86 386,82.630892 386,78.5 C386,74.3700359 382.629964,71 378.5,71 C374.369108,71 371,74.3700359 371,78.5 C371,82.630892 374.369108,86 378.5,86" id="Fill-48" fill="#673037"></path>
                    <path d="M393,119 C391.477878,124.191138 386.46065,128 380.499542,128 C374.53935,128 369.520289,124.191138 368,119 L393,119" id="Fill-49" fill="#C95251"></path>
                    <path d="M391,124.074396 C388.561442,126.483158 385.010345,128 381.053918,128 C380.355172,128 379.670533,127.952056 379,127.861128 C381.880564,125.443273 385.506897,124 389.447335,124 C389.97116,124 390.487461,124.024799 391,124.074396" id="Fill-50" fill="#D95E5D"></path>
                    <path d="M374,119 L388,119 C386.127688,120.86747 383.680978,122 381.00046,122 C378.320863,122 375.872312,120.86747 374,119" id="Fill-51" fill="#FFFFFE"></path>
                    <path d="M398.167086,153 C402.88755,153 407.389879,153.94163 411.502486,155.644303 L421,155.644303 L421,221.355697 L411.505224,221.355697 C407.391704,223.05837 402.888462,224 398.167086,224 C378.744005,224 363,208.10654 363,188.5 C363,168.89346 378.744005,153 398.167086,153" id="Fill-52" fill="#FFFFFE"></path>
                    <path d="M424,234 C406.093241,232.277738 392,213.910904 392,191.500457 C392,169.090926 406.093241,150.721348 424,149 L424,234" id="Fill-53" fill="#49413E"></path>
                    <polyline id="Fill-54" fill="#FFFFFE" points="394 145 415 145 415 156 397.879644 156 394 145"></polyline>
                    <path d="M415.304104,164.040933 C411.009366,161.335517 409.710532,155.641111 412.403192,151.326027 C415.095852,147.010026 420.764322,145.704121 425.059973,148.409537 C425.186934,148.490296 469.892582,175.850974 449.816371,239.546639 C448.301065,244.399503 443.153225,247.097577 438.322329,245.575092 C433.492347,244.052607 430.806994,238.881298 432.322301,234.028435 C448.073632,184.054405 415.397269,164.099666 415.304104,164.040933" id="Fill-55" fill="#413936"></path>
                    <path d="M412.416775,143 C412.416775,143 418.945584,143.685478 424,148.677207 C424,148.677207 408.009896,155.678157 401.664933,168.359947 L408.572303,172.988509 C408.572303,172.988509 397.114962,184.046942 394.49402,207 C394.49402,207 379.25832,169.165269 412.416775,143" id="Fill-56" fill="#413936"></path>
                    <path d="M383.168261,160 C383.909312,160 384.211039,160.671727 383.843463,161.500407 C383.47392,162.328273 382.574634,163 381.8326,163 C381.09155,163 380.787856,162.328273 381.157399,161.500407 C381.524976,160.671727 382.426227,160 383.168261,160" id="Fill-57" fill="#E7E1DD"></path>
                    <path d="M407,200 L421,200 L421,209.690121 C421,213.709857 417.851313,217 414.000445,217 L413.999555,217 C410.148687,217 407,213.709857 407,209.690121 L407,200" id="Fill-58" fill="#413936"></path>
                    <path d="M141,6 L141,6 C144.300567,6 147,8.626334 147,11.8384435 L147,76.1624761 C147,79.3745856 144.300567,82 141,82 C137.698488,82 135,79.3745856 135,76.1624761 L135,11.8384435 C135,8.626334 137.698488,6 141,6" id="Fill-59" fill="#464644"></path>
                    <path d="M149.416233,71 L193.584686,71 C202.062787,71 209,77.9042356 209,86.340917 L209,89.659083 C209,98.0966788 202.062787,105 193.584686,105 L149.416233,105 C140.937213,105 134,98.0966788 134,89.659083 L134,86.340917 C134,77.9042356 140.937213,71 149.416233,71" id="Fill-60" fill="#565451"></path>
                    <path d="M117.416611,71 L161.585227,71 C170.064455,71 177,77.9042356 177,86.340917 L177,89.659083 C177,98.0966788 170.064455,105 161.585227,105 L117.416611,105 C108.937383,105 102,98.0966788 102,89.659083 L102,86.340917 C102,77.9042356 108.937383,71 117.416611,71" id="Fill-61" fill="#464644"></path>
                    <path d="M115.46579,79 L122.53421,79 C123.890571,79 125,80.2178122 125,81.7057115 L125,82.2933204 C125,83.7821878 123.890571,85 122.53421,85 L115.46579,85 C114.109429,85 113,83.7821878 113,82.2933204 L113,81.7057115 C113,80.2178122 114.109429,79 115.46579,79" id="Fill-62" fill="#2D2D2A"></path>
                    <path d="M115.46579,87 L122.53421,87 C123.890571,87 125,88.2176157 125,89.7062429 L125,90.2937571 C125,91.7823843 123.890571,93 122.53421,93 L115.46579,93 C114.109429,93 113,91.7823843 113,90.2937571 L113,89.7062429 C113,88.2176157 114.109429,87 115.46579,87" id="Fill-63" fill="#2D2D2A"></path>
                    <path d="M149.465971,79 L150.534029,79 C151.890489,79 153,80.2178122 153,81.7057115 L153,82.2933204 C153,83.7821878 151.890489,85 150.534029,85 L149.465971,85 C148.109511,85 147,83.7821878 147,82.2933204 L147,81.7057115 C147,80.2178122 148.109511,79 149.465971,79" id="Fill-64" fill="#92C691"></path>
                    <path d="M159.465089,79 L160.534029,79 C161.890489,79 163,80.2178122 163,81.7057115 L163,82.2933204 C163,83.7821878 161.890489,85 160.534029,85 L159.465089,85 C158.109511,85 157,83.7821878 157,82.2933204 L157,81.7057115 C157,80.2178122 158.109511,79 159.465089,79" id="Fill-65" fill="#E15C5C"></path>
                    <path d="M124.389094,0 L157.610906,0 C160.575786,0 163,2.4363974 163,5.41504178 L163,6.58588672 C163,9.5645311 160.575786,12 157.610906,12 L124.389094,12 C121.424214,12 119,9.5645311 119,6.58588672 L119,5.41504178 C119,2.4363974 121.424214,0 124.389094,0" id="Fill-66" fill="#464644"></path>
                    <path d="M124.295636,0 L134.705272,0 C137.617826,0 140,2.4363974 140,5.41504178 L140,6.58588672 C140,9.5645311 137.617826,12 134.705272,12 L124.295636,12 C121.382174,12 119,9.5645311 119,6.58588672 L119,5.41504178 C119,2.4363974 121.382174,0 124.295636,0" id="Fill-67" fill="#565451"></path>
                    <path d="M135,12 L147,12 L147,33 C147,27.4974569 142.298677,22.9942241 136.551985,22.9942241 L135,22.9942241 L135,12" id="Fill-68" fill="#2D2D2A"></path>
                    <path d="M135,71 L147,71 L147,50 C147,55.5027803 142.298677,60.005302 136.551985,60.005302 L135,60.005302 L135,71" id="Fill-69" fill="#565451"></path>
                    <path d="M257.168794,283 L257.832125,283 C280.475421,283 299,301.395695 299,323.880335 L299,402 L216,402 L216,323.880335 C216,301.395695 234.526417,283 257.168794,283" id="Fill-70" fill="#FFFFFE"></path>
                    <path d="M82.2363794,277 L106.760869,277 C109.643675,277 112,279.334904 112,282.190392 L112,293 L77,293 L77,282.190392 C77,279.334904 79.3563249,277 82.2363794,277" id="Fill-71" fill="#FFFFFE"></path>
                    <path d="M107.295892,205 L85.7031978,205 C77.0661202,205 70,212.051503 70,220.669603 L70,237.557772 C70,252.101497 81.9237933,264 96.501366,264 L96.747255,264 C111.187312,264 123,252.212358 123,237.804938 L123,220.669603 C123,212.051503 115.932969,205 107.295892,205" id="Fill-72" fill="#673037"></path>
                    <path d="M131.02598,205 L91.9749304,205 C88.1382178,205 85,208.198948 85,212.111971 L85,217.000929 C85,223.600325 90.2956287,229 96.7687721,229 L126.341421,229 C132.754459,229 138,223.651397 138,217.112358 L138,212.111971 C138,208.198948 134.863604,205 131.02598,205" id="Fill-73" fill="#673037"></path>
                    <path d="M122.000445,252 C125.305323,252 128,249.304232 128,245.999109 C128,242.694878 125.305323,240 122.000445,240 C118.695568,240 116,242.694878 116,245.999109 C116,249.304232 118.695568,252 122.000445,252" id="Fill-74" fill="#EA8A70"></path>
                    <path d="M122.500503,249 C123.877941,249 125,247.876156 125,246.498995 C125,245.121834 123.877941,244 122.500503,244 C121.123065,244 120,245.121834 120,246.498995 C120,247.876156 121.123065,249 122.500503,249" id="Fill-75" fill="#B75E4B"></path>
                    <path d="M99.1544646,205 L85.6758999,205 C77.0538368,205 70,212.034057 70,220.628821 L70,237.473037 C70,245.194095 73.3710049,252.166521 78.7193386,257 C91.7697094,255.537177 102,244.421898 102,231.038066 L102,213.949141 C102,210.627427 100.945425,207.540454 99.1544646,205" id="Fill-76" fill="#582B31"></path>
                    <path d="M94.1683381,283 L94.8325806,283 C117.473788,283 136,301.395695 136,323.880335 L136,402 L53,402 L53,323.880335 C53,301.395695 71.5262115,283 94.1683381,283" id="Fill-77" fill="#335E5B"></path>
                    <path d="M514.565351,241.435056 C513.653572,240.522466 512.39188,239.957922 511.000457,239.957922 C509.609947,239.957922 508.347342,240.522466 507.435562,241.435056 C506.522869,242.346731 505.95826,243.608279 505.95826,244.999543 C505.95826,246.392635 506.522869,247.652355 507.435562,248.565858 C508.347342,249.47662 509.609947,250.041165 511.000457,250.041165 C512.39188,250.041165 513.653572,249.47662 514.565351,248.565858 C515.477131,247.652355 516.042654,246.392635 516.042654,244.999543 C516.042654,243.608279 515.477131,242.346731 514.565351,241.435056 Z M511.000457,237 C513.210472,237 515.212185,237.89706 516.657512,239.342221 C518.104665,240.789209 519,242.792521 519,244.999543 C519,247.209306 518.104665,249.210791 516.657512,250.657779 C515.212185,252.10294 513.210472,253 511.000457,253 C508.791355,253 506.788728,252.10294 505.342488,250.657779 C503.896249,249.210791 503,247.209306 503,244.999543 C503,242.792521 503.896249,240.789209 505.342488,239.342221 C506.788728,237.89706 508.791355,237 511.000457,237 L511.000457,237 Z" id="Fill-78" fill="#2D2E2C"></path>
                    <path d="M196.70095,262.133756 C198.612298,262.224429 200.087419,263.833884 199.995967,265.728961 C199.904515,267.623131 198.280327,269.087508 196.369894,268.995928 C193.718699,268.867172 191.391244,267.721058 189.618903,265.994634 C188.445573,264.851241 187.502703,263.428574 186.874427,261.873523 C186.243408,260.314845 185.930642,258.614716 186.012949,256.919121 C186.13458,254.448267 187.065562,252.012776 189.029037,250.03156 C190.375212,248.674177 192.577377,248.653322 193.947329,249.98713 C195.316366,251.320937 195.3374,253.506169 193.991226,254.863552 C193.303506,255.559018 192.976108,256.400468 192.934954,257.246452 C192.902032,257.931038 193.033723,258.636478 193.301677,259.296581 C193.569632,259.959404 193.979337,260.573264 194.492383,261.073782 C195.123402,261.688549 195.891599,262.093859 196.70095,262.133756" id="Fill-79" fill="#EA8A70"></path>
                    <path d="M206.624242,252.089306 C198.389438,251.19323 190.986441,257.141727 190.089464,265.376575 C189.192488,273.610518 195.141858,281.013554 203.376663,281.910535 C211.611467,282.807516 219.014464,276.858115 219.910535,268.623267 C220.807512,260.389324 214.858142,252.986288 206.624242,252.089306" id="Fill-80" fill="#EA8A70"></path>
                    <path d="M207.758181,281.535255 C210.408944,276.804684 208.676672,270.845418 203.888583,268.226498 C199.100494,265.608486 193.068769,267.319042 190.418925,272.049612 C190.36106,272.151247 170.874374,308.099227 116.342699,294.210606 C111.047603,292.875738 105.65974,296.035501 104.30956,301.266988 C102.958461,306.498474 106.155725,311.823429 111.451739,313.156482 C180.954803,330.859143 207.68011,281.675003 207.758181,281.535255" id="Fill-81" fill="#FFFFFE"></path>
                    <path d="M220.966311,246.637738 L220.966311,246.638578 C221.104431,247.098671 220.805172,247.575557 220.300575,247.701494 L211.199418,249.969218 C210.694821,250.095155 210.171808,249.823129 210.033689,249.363876 L210.033689,249.362197 C209.895569,248.901264 210.194828,248.424378 210.699425,248.29844 L219.800582,246.030717 C220.305179,245.904779 220.827271,246.177645 220.966311,246.637738" id="Fill-82" fill="#345E88"></path>
                    <path d="M216.89909,248.07115 L216.89909,248.074777 C217.313285,249.567689 216.414178,251.122276 214.902504,251.530424 L187.600522,258.900655 C186.088848,259.308802 184.514722,258.421762 184.101446,256.92885 L184.100527,256.925223 C183.68725,255.432311 184.586357,253.877724 186.098031,253.469576 L213.399095,246.099345 C214.910769,245.691198 216.485813,246.578238 216.89909,248.07115" id="Fill-83" fill="#FFFFFE"></path>
                    <path d="M199.647426,262.327472 C198.235283,264.180481 195.567077,264.550531 193.692271,263.152052 C191.816536,261.757245 191.443991,259.120978 192.857063,257.26797 L206.353247,239.673573 C207.767248,237.819646 210.433597,237.449596 212.308403,238.847157 C214.183208,240.244718 214.555754,242.880067 213.143611,244.733994 L199.647426,262.327472" id="Fill-84" fill="#EA8A70"></path>
                    <path d="M192.887523,254.52691 L192.887523,254.527871 C193.349167,256.348679 192.347452,258.243512 190.657726,258.742456 L180.020293,261.878399 C178.330567,262.377343 176.574892,261.294856 176.112356,259.474047 L176.112356,259.472125 C175.650711,257.651317 176.654209,255.756484 178.342153,255.25754 L188.980477,252.121597 C190.669312,251.622653 192.425878,252.70514 192.887523,254.52691" id="Fill-85" fill="#345E88"></path>
                    <path d="M527.703569,219 L549.296431,219 C557.933212,219 565,226.051503 565,234.670512 L565,251.557772 C565,266.102406 553.075706,278 538.499545,278 L538.251843,278 C523.813193,278 512,266.213267 512,251.804029 L512,234.670512 C512,226.051503 519.066788,219 527.703569,219" id="Fill-86" fill="#EA8A70"></path>
                    <path d="M559,269.780738 C554.107104,275.41418 546.842365,279 538.770231,279 L538.521238,279 C535.167155,279 531.957708,278.374262 529,277.238197 C533.848956,271.597541 541.085317,268 549.133651,268 L549.383559,268 C552.769681,268 556.013914,268.631148 559,269.780738" id="Fill-87" fill="#B75E4B"></path>
                    <path d="M552.890661,250 L544.109339,250 C539.648565,250 536,253.708998 536,258.242526 L536,289 L561,289 L561,258.242526 C561,253.708998 557.351435,250 552.890661,250" id="Fill-88" fill="#EA8A70"></path>
                    <path d="M535.704749,208 L557.297072,208 C565.93309,208 573,215.051612 573,223.669845 L573,240.557364 C573,255.102222 561.075501,267 546.5,267 L546.252294,267 C531.813396,267 520,255.212177 520,240.804534 L520,223.669845 C520,215.051612 527.06691,208 535.704749,208" id="Fill-89" fill="#2D2E2C"></path>
                    <path d="M549.000464,305 C558.914786,305 567,298.487102 567,290.5 C567,282.512898 558.914786,276 549.000464,276 C539.085214,276 531,282.512898 531,290.5 C531,298.487102 539.085214,305 549.000464,305" id="Fill-90" fill="#FFFFFE"></path>
                    <path d="M506.016766,208 L548.982318,208 C552.842547,208 556,211.198948 556,215.111042 L556,220 C556,226.600325 550.671912,232 544.159093,232 L510.730039,232 C504.277693,232 499,226.651397 499,220.112358 L499,215.111042 C499,211.198948 502.156537,208 506.016766,208" id="Fill-91" fill="#2D2E2C"></path>
                    <path d="M543.845535,208 L557.3241,208 C565.945254,208 573,215.034057 573,223.628821 L573,240.47213 C573,248.194095 569.628086,255.165615 564.279752,260 C551.229382,258.537177 541,247.421898 541,234.038066 L541,216.949141 C541,213.627427 542.054575,210.539548 543.845535,208" id="Fill-92" fill="#1D1E1C"></path>
                    <path d="M548.118373,283 L548.879795,283 C574.795633,283 596,304.112535 596,329.914312 L596,402 L501,402 L501,329.914312 C501,304.112535 522.202535,283 548.118373,283" id="Fill-93" fill="#31905F"></path>
                    <path d="M549.324253,283 C575.004596,283.043791 596,304.136417 596,329.91376 L596,402 L581.188753,402 L581.188753,329.91376 C581.188753,306.6918 564.151865,287.276001 542,283.621284 C544.385655,283.227165 546.833134,283.013685 549.324253,283" id="Fill-94" fill="#2E7A53"></path>
                    <path d="M541.854747,307 L554.144339,307 C583.215638,307 607,330.849725 607,360 L607,394.325319 C607,404.596623 598.618739,413 588.375586,413 L507.623501,413 C497.379433,413 489,404.596623 489,394.325319 L489,360 C489,330.849725 512.784362,307 541.854747,307" id="Fill-95" fill="#2D2D2A"></path>
                    <path d="M542.999068,367 L552.999068,367 C556.849953,367 560,370.064987 560,373.810982 L560,414.189018 C560,417.935919 556.849953,421 552.999068,421 L542.999068,421 C539.149115,421 536,417.935919 536,414.189018 L536,373.810982 C536,370.064987 539.149115,367 542.999068,367" id="Fill-96" fill="#464644"></path>
                    <path d="M547.999548,362 C552.405581,362 556,358.405581 556,353.999548 C556,349.592611 552.405581,346 547.999548,346 C543.592611,346 540,349.592611 540,353.999548 C540,358.405581 543.592611,362 547.999548,362" id="Fill-97" fill="#464644"></path>
                    <path d="M489,363 L489,360.910048 C489,336.992835 504.963963,316.637643 526.743934,310 C527.078925,311.496895 527.095446,313.089414 526.73292,314.684692 C526.706305,314.806062 520.290065,344.799122 489,363" id="Fill-98" fill="#161715"></path>
                    <path d="M504.394449,243 L523.604649,243 C524.372227,243 525,243.676043 525,244.501455 L525,244.502425 C525,245.326867 524.372227,246 523.604649,246 L504.394449,246 C503.626871,246 503,245.326867 503,244.502425 L503,244.501455 C503,243.676043 503.626871,243 504.394449,243" id="Fill-99" fill="#2D2E2C"></path>
                    <path d="M521.999555,255 C525.304432,255 528,252.305323 528,249.000445 C528,245.695568 525.304432,243 521.999555,243 C518.694677,243 516,245.695568 516,249.000445 C516,252.305323 518.694677,255 521.999555,255" id="Fill-100" fill="#EA8A70"></path>
                    <path d="M522.499497,252 C523.876935,252 525,250.876156 525,249.498995 C525,248.121834 523.876935,247 522.499497,247 C521.122059,247 520,248.121834 520,249.498995 C520,250.876156 521.122059,252 522.499497,252" id="Fill-101" fill="#B75E4B"></path>
                    <path d="M86.2758325,191.017746 C78.0017618,191.417816 71.6185711,198.450718 72.0177468,206.723656 C72.4178276,214.998404 79.4500184,221.381418 87.724089,220.982254 C95.9990649,220.581279 102.382256,213.549282 101.982175,205.276344 C101.582999,197.001596 94.5499032,190.618582 86.2758325,191.017746" id="Fill-102" fill="#EA8A70"></path>
                    <path d="M43.7924396,385 L320.208476,385 C332.194318,385 342,394.899284 342,406.999538 C342,419.099792 332.194318,429 320.208476,429 L43.7924396,429 C31.8047665,429 22,419.099792 22,406.999538 C22,394.899284 31.8047665,385 43.7924396,385" id="Fill-103" fill="#1CB292"></path>
                    <path d="M556.809253,219 L564.189834,219 C566.836065,219 569,216.867327 569,214.258426 L569,210.99955 C569,206.599167 565.348987,203 560.882274,203 L560.040997,203 C555.619043,203 552,206.565858 552,210.92573 L552,214.258426 C552,216.867327 554.163935,219 556.809253,219" id="Fill-104" fill="#1D1E1C"></path>
                    <path d="M566.962998,232 L571.037953,232 C572.667364,232 574,230.691877 574,229.091503 L574,214.907563 C574,212.206349 571.751355,210 569.000476,210 L568.953867,210 C566.22962,210 564,212.187675 564,214.861811 L564,229.091503 C564,230.691877 565.332636,232 566.962998,232" id="Fill-105" fill="#1D1E1C"></path>
                    <path d="M428.454147,392.928586 L428.4533,392.928586 C428.006754,393.131216 427.496658,392.88768 427.315329,392.387291 L424.063256,383.348887 C423.883621,382.847546 424.099692,382.274857 424.54539,382.072228 L424.547085,382.071276 C424.992783,381.868647 425.503726,382.113134 425.685056,382.613524 L428.936281,391.650976 C429.116763,392.152317 428.900693,392.725957 428.454147,392.928586" id="Fill-106" fill="#345E88"></path>
                    <path d="M427.252326,388.792326 L427.249622,388.793246 C425.822614,389.381197 424.185566,388.671791 423.609534,387.215256 L413.202201,360.924923 C412.62707,359.468387 413.321193,357.795625 414.7473,357.207674 L414.750906,357.206754 C416.177012,356.618803 417.814962,357.328209 418.390993,358.784744 L428.797425,385.075077 C429.373457,386.531613 428.678433,388.202535 427.252326,388.792326" id="Fill-107" fill="#FFFFFE"></path>
                    <path d="M417.91531,365.763927 L417.914375,365.763927 C416.213729,366.435323 414.260788,365.62508 413.573989,363.961661 L409.242011,353.481479 C408.554277,351.817146 409.383109,349.908918 411.08469,349.237521 L411.086559,349.235694 C412.78814,348.565211 414.740146,349.374541 415.42788,351.03796 L419.757989,361.519056 C420.445723,363.182475 419.616891,365.091617 417.91531,365.763927" id="Fill-108" fill="#345E88"></path>
                    <path d="M420.715999,331.017423 C412.440823,330.621859 405.412988,337.00973 405.017423,345.284001 C404.621859,353.559177 411.00973,360.587012 419.284906,360.982577 C427.558272,361.378141 434.587917,354.99027 434.982577,346.715094 C435.378141,338.441728 428.99027,331.412083 420.715999,331.017423" id="Fill-109" fill="#EA8A70"></path>
                    <path d="M92.8551564,307 L105.14393,307 C134.21454,307 158,330.849725 158,360 L158,394.325319 C158,404.596623 149.619588,413 139.376355,413 L58.6236451,413 C48.3794983,413 40,404.596623 40,394.325319 L40,360 C40,330.849725 63.7845463,307 92.8551564,307" id="Fill-110" fill="#2D2D2A"></path>
                    <path d="M92.9997282,367 L102.99934,367 C106.849144,367 110,370.064987 110,373.810982 L110,414.189018 C110,417.935919 106.849144,421 102.99934,421 L92.9997282,421 C89.1499243,421 86,417.935919 86,414.189018 L86,373.810982 C86,370.064987 89.1499243,367 92.9997282,367" id="Fill-111" fill="#464644"></path>
                    <path d="M98,362 C102.406688,362 106,358.405581 106,353.999548 C106,349.592611 102.406688,346 98,346 C93.594216,346 90,349.592611 90,353.999548 C90,358.405581 93.594216,362 98,362" id="Fill-112" fill="#464644"></path>
                    <path d="M250.855156,307 L263.14393,307 C292.215454,307 316,330.849725 316,360 L316,394.325319 C316,404.596623 307.619588,413 297.375441,413 L216.622731,413 C206.379498,413 198,404.596623 198,394.325319 L198,360 C198,330.849725 221.784546,307 250.855156,307" id="Fill-113" fill="#2D2D2A"></path>
                    <path d="M251.998136,367 L261.999068,367 C265.849021,367 269,370.064987 269,373.810982 L269,414.189018 C269,417.935919 265.849021,421 261.999068,421 L251.998136,421 C248.149115,421 245,417.935919 245,414.189018 L245,373.810982 C245,370.064987 248.149115,367 251.998136,367" id="Fill-114" fill="#464644"></path>
                    <path d="M257.000904,362 C261.406688,362 265,358.405581 265,353.999548 C265,349.592611 261.406688,346 257.000904,346 C252.594216,346 249,349.592611 249,353.999548 C249,358.405581 252.594216,362 257.000904,362" id="Fill-115" fill="#464644"></path>
                    <path d="M257.999542,205 L258.000458,205 C273.950573,205 287,217.983592 287,233.854148 L287,310.146764 C287,326.01732 273.950573,339 258.000458,339 L234.923229,339 C231.665224,339 229,336.348222 229,333.106655 L229,233.854148 C229,217.983592 242.048511,205 257.999542,205" id="Fill-116" fill="#F9CA64"></path>
                    <path d="M229.223189,334.618988 C229.07807,334.108541 229,333.572571 229,333.018372 L229,233.773789 C229,220.602432 238.012048,209.420907 250.218542,206 C257.918094,211.204737 263,219.970754 263,229.861577 L263,306.148803 C263,322.017326 249.918202,335 233.927603,335 L233.926684,335 C232.326706,335 230.7552,334.869654 229.223189,334.618988" id="Fill-117" fill="#F9D990"></path>
                    <path d="M41.5004553,184 C64.3574414,184 83,165.357646 83,142.5 C83,119.642354 64.3574414,101 41.5004553,101 C18.6425586,101 0,119.642354 0,142.5 C0,165.357646 18.6425586,184 41.5004553,184" id="Fill-118" fill="#FFFFFE"></path>
                    <path d="M63.0004556,189 C70.7104552,189 77,182.71066 77,175.000911 C77,167.290251 70.7104552,161 63.0004556,161 C55.2895448,161 49,167.290251 49,175.000911 C49,182.71066 55.2895448,189 63.0004556,189" id="Fill-119" fill="#FFFFFE"></path>
                    <path d="M539.499541,108 C568.965998,108 593,83.9669171 593,54.5013781 C593,25.0349204 568.965998,1 539.499541,1 C510.033083,1 486,25.0349204 486,54.5013781 C486,83.9669171 510.033083,108 539.499541,108" id="Fill-120" fill="#FFFFFE"></path>
                    <path d="M492.000458,97 C501.914738,97 510,88.9138208 510,78.9995416 C510,69.0852624 501.914738,61 492.000458,61 C482.085262,61 474,69.0852624 474,78.9995416 C474,88.9138208 482.085262,97 492.000458,97" id="Fill-121" fill="#FFFFFE"></path>
                    <path d="M463.999074,103 C467.854536,103 471,99.8552536 471,96.0004629 C471,92.1447464 467.854536,89 463.999074,89 C460.144538,89 457,92.1447464 457,96.0004629 C457,99.8552536 460.144538,103 463.999074,103" id="Fill-122" fill="#FFFFFE"></path>
                    <path d="M25.0439467,127 L55.9569782,127 C57.6311027,127 59,128.349134 59,130.000912 L59,130.001823 C59,131.650866 57.6311027,133 55.9569782,133 L25.0439467,133 C23.3688973,133 22,131.650866 22,130.001823 L22,130.000912 C22,128.349134 23.3688973,127 25.0439467,127" id="Fill-123" fill="#A2A089"></path>
                    <path d="M25.0439467,138 L55.9569782,138 C57.6311027,138 59,139.349134 59,141 L59,141.000912 C59,142.649954 57.6311027,144 55.9569782,144 L25.0439467,144 C23.3688973,144 22,142.649954 22,141.000912 L22,141 C22,139.349134 23.3688973,138 25.0439467,138" id="Fill-124" fill="#A2A089"></path>
                    <path d="M24.9389984,148 L32.0601085,148 C33.6774061,148 35,149.349134 35,151.000912 L35,151.001823 C35,152.651778 33.6774061,154 32.0601085,154 L24.9389984,154 C23.3217009,154 22,152.651778 22,151.001823 L22,151.000912 C22,149.349134 23.3217009,148 24.9389984,148" id="Fill-125" fill="#A2A089"></path>
                    <path d="M41.9421701,148 L45.0569356,148 C46.6764706,148 48,149.349134 48,151.000912 L48,151.001823 C48,152.651778 46.6764706,154 45.0569356,154 L41.9421701,154 C40.3235294,154 39,152.651778 39,151.001823 L39,151.000912 C39,149.349134 40.3235294,148 41.9421701,148" id="Fill-126" fill="#A2A089"></path>
                    <path d="M503.043098,55 L533.957827,55 C535.631993,55 537,56.349134 537,58 L537,58.0009116 C537,59.650866 535.631993,61 533.957827,61 L503.043098,61 C501.368932,61 500,59.650866 500,58.0009116 L500,58 C500,56.349134 501.368932,55 503.043098,55" id="Fill-127" fill="#A2A089"></path>
                    <path d="M503.043098,65 L533.957827,65 C535.631993,65 537,66.3500456 537,68.0009116 L537,68.0018232 C537,69.650866 535.631993,71 533.957827,71 L503.043098,71 C501.368932,71 500,69.650866 500,68.0018232 L500,68.0009116 C500,66.3500456 501.368932,65 503.043098,65" id="Fill-128" fill="#E7E1DD"></path>
                    <path d="M502.938105,76 L510.061002,76 C511.678299,76 513,77.349134 513,79 L513,79.0009116 C513,80.650866 511.678299,82 510.061002,82 L502.938105,82 C501.321701,82 500,80.650866 500,79.0009116 L500,79 C500,77.349134 501.321701,76 502.938105,76" id="Fill-129" fill="#E15C5C"></path>
                    <path d="M519.942772,76 L523.057228,76 C524.676602,76 526,77.349134 526,79 L526,79.0009116 C526,80.650866 524.676602,82 523.057228,82 L519.942772,82 C518.324292,82 517,80.650866 517,79.0009116 L517,79 C517,77.349134 518.324292,76 519.942772,76" id="Fill-130" fill="#F9CA64"></path>
                    <path d="M512,31 L512,31 C513.099704,31 514,31.8083756 514,32.7997462 L514,43.1993655 C514,44.190736 513.099704,45 512,45 C510.900296,45 510,44.190736 510,43.1993655 L510,32.7997462 C510,31.8083756 510.900296,31 512,31" id="Fill-131" fill="#E5E5E0"></path>
                    <path d="M538.000494,31 L538.000494,31 C539.101456,31 540,31.8083756 540,32.7997462 L540,43.1993655 C540,44.190736 539.101456,45 538.000494,45 C536.899531,45 536,44.190736 536,43.1993655 L536,32.7997462 C536,31.8083756 536.899531,31 538.000494,31" id="Fill-132" fill="#E5E5E0"></path>
                    <path d="M567,44.0004937 L567,44.0004937 C567,45.100469 566.165355,46 565.1308,46 L511.870121,46 C510.835566,46 510,45.100469 510,44.0004937 C510,42.899531 510.835566,42 511.870121,42 L565.1308,42 C566.165355,42 567,42.899531 567,44.0004937" id="Fill-133" fill="#E5E5E0"></path>
                    <path d="M506.670766,25 L515.329234,25 C517.898605,25 520,27.0233096 520,29.4973993 L520,29.5008669 C520,31.9758235 517.898605,34 515.329234,34 L506.670766,34 C504.101395,34 502,31.9758235 502,29.5008669 L502,29.4973993 C502,27.0233096 504.101395,25 506.670766,25" id="Fill-134" fill="#F9CA64"></path>
                    <path d="M533.670766,25 L542.329234,25 C544.898605,25 547,27.0233096 547,29.4973993 L547,29.5008669 C547,31.9758235 544.898605,34 542.329234,34 L533.670766,34 C531.101395,34 529,31.9758235 529,29.5008669 L529,29.4973993 C529,27.0233096 531.101395,25 533.670766,25" id="Fill-135" fill="#E15C5C"></path>
                    <path d="M565,31 L565,31 C566.100691,31 567,31.8083756 567,32.7997462 L567,43.1993655 C567,44.190736 566.100691,45 565,45 C563.899309,45 563,44.190736 563,43.1993655 L563,32.7997462 C563,31.8083756 563.899309,31 565,31" id="Fill-136" fill="#E5E5E0"></path>
                    <path d="M559.669867,25 L568.329234,25 C570.897705,25 573,27.0233096 573,29.4973993 L573,29.5008669 C573,31.9758235 570.897705,34 568.329234,34 L559.669867,34 C557.101395,34 555,31.9758235 555,29.5008669 L555,29.4973993 C555,27.0233096 557.101395,25 559.669867,25" id="Fill-137" fill="#97C7C0"></path>
                    <path d="M558.99909,83 C567.26083,83 574,76.2624458 574,68.0013652 C574,59.7393745 567.26083,53 558.99909,53 C550.73735,53 544,59.7393745 544,68.0013652 C544,76.2624458 550.73735,83 558.99909,83" id="Fill-138" fill="#E15C5C"></path>
                    <path d="M558.999102,60 C563.418004,60 567,63.5806017 567,68 C567,72.4185002 563.418004,76 558.999102,76 C554.581098,76 551,72.4185002 551,68 C551,63.5806017 554.581098,60 558.999102,60" id="Fill-139" fill="#97C7C0"></path>
                    <path d="M578,68 C578,78.4940459 569.493949,87 559,87 L559,68 L578,68" id="Fill-140" fill="#F9CA64"></path>
                    <path d="M225.113635,68 L232.885419,68 C234.599338,68 236,69.349134 236,71 L236,71.0009116 C236,72.650866 234.599338,74 232.885419,74 L225.113635,74 C223.400662,74 222,72.650866 222,71.0009116 L222,71 C222,69.349134 223.400662,68 225.113635,68" id="Fill-141" fill="#676561"></path>
                    <path d="M225.043098,79 L255.957827,79 C257.631993,79 259,80.3489291 259,81.9995443 L259,82.0004557 C259,83.6510709 257.631993,85 255.957827,85 L225.043098,85 C223.368932,85 222,83.6510709 222,82.0004557 L222,81.9995443 C222,80.3489291 223.368932,79 225.043098,79" id="Fill-142" fill="#E5E5E0"></path>
                    <path d="M224.938105,89 L232.061002,89 C233.678299,89 235,90.349134 235,92 L235,92.0009116 C235,93.650866 233.678299,95 232.061002,95 L224.938105,95 C223.321701,95 222,93.650866 222,92.0009116 L222,92 C222,90.349134 223.321701,89 224.938105,89" id="Fill-143" fill="#E15C5C"></path>
                    <path d="M241.942772,89 L245.057228,89 C246.676602,89 248,90.349134 248,92 L248,92.0009116 C248,93.650866 246.676602,95 245.057228,95 L241.942772,95 C240.323398,95 239,93.650866 239,92.0009116 L239,92 C239,90.349134 240.323398,89 241.942772,89" id="Fill-144" fill="#F9CA64"></path>
                    <path d="M230.500461,191 C250.052549,191 266,175.277161 266,156.000455 C266,136.723748 250.052549,121 230.500461,121 C210.948373,121 195,136.723748 195,156.000455 C195,175.277161 210.948373,191 230.500461,191" id="Fill-145" fill="#E15C5C"></path>
                    <path d="M195,156 C195,136.669905 210.669905,121 230,121 L230,156 L195,156" id="Fill-146" fill="#B23E3F"></path>
                    <path d="M231.000457,137 C241.493668,137 250,145.505418 250,155.999543 C250,166.493668 241.493668,175 231.000457,175 C220.506332,175 212,166.493668 212,155.999543 L231.000457,155.999543 L231.000457,137" id="Fill-147" fill="#97C7C0"></path>
                    <path d="M218,157 C218,149.819845 223.819419,144 231,144 L231,157 L218,157" id="Fill-148" fill="#F9CA64"></path>
                    <path d="M259,156 C259,171.463676 246.463168,184 231,184 L231,156 L259,156" id="Fill-149" fill="#F9CA64"></path>
                    <path d="M176.132496,142 L179.867504,142 C181.591281,142 183,143.349134 183,144.999088 L183,145.000912 C183,146.651778 181.591281,148 179.867504,148 L176.132496,148 C174.408719,148 173,146.651778 173,145.000912 L173,144.999088 C173,143.349134 174.408719,142 176.132496,142" id="Fill-150" fill="#E15C5C"></path>
                    <path d="M176.132496,152 L179.867504,152 C181.591281,152 183,153.349339 183,155.000456 L183,155.001368 C183,156.650661 181.591281,158 179.867504,158 L176.132496,158 C174.408719,158 173,156.650661 173,155.001368 L173,155.000456 C173,153.349339 174.408719,152 176.132496,152" id="Fill-151" fill="#97C7C0"></path>
                    <path d="M176.132496,163 L179.867504,163 C181.591281,163 183,164.349134 183,166 L183,166.000912 C183,167.650866 181.591281,169 179.867504,169 L176.132496,169 C174.408719,169 173,167.650866 173,166.000912 L173,166 C173,164.349134 174.408719,163 176.132496,163" id="Fill-152" fill="#F9CA64"></path>
                    <path d="M177.025261,193 L195.975658,193 C197.639506,193 199,194.349134 199,195.999088 L199,196 C199,197.649954 197.639506,199 195.975658,199 L177.025261,199 C175.360494,199 174,197.649954 174,196 L174,195.999088 C174,194.349134 175.360494,193 177.025261,193" id="Fill-153" fill="#A2A089"></path>
                    <path d="M177.025261,204 L195.975658,204 C197.639506,204 199,205.350046 199,207 L199,207.001823 C199,208.650866 197.639506,210 195.975658,210 L177.025261,210 C175.360494,210 174,208.650866 174,207.001823 L174,207 C174,205.350046 175.360494,204 177.025261,204" id="Fill-154" fill="#E5E5E0"></path>
                    <path d="M205.990909,204 L207.01,204 C208.655455,204 210,205.350046 210,207 L210,207.001823 C210,208.650866 208.655455,210 207.01,210 L205.990909,210 C204.344545,210 203,208.650866 203,207.001823 L203,207 C203,205.350046 204.344545,204 205.990909,204" id="Fill-155" fill="#E5E5E0"></path>
                    <path d="M306.917788,68 L312.083098,68 C313.687838,68 315,69.349134 315,71 L315,71.0009116 C315,72.650866 313.687838,74 312.083098,74 L306.917788,74 C305.312162,74 304,72.650866 304,71.0009116 L304,71 C304,69.349134 305.312162,68 306.917788,68" id="Fill-156" fill="#A2A089"></path>
                    <path d="M306.917788,79 L312.083098,79 C313.687838,79 315,80.3489291 315,81.9995443 L315,82.0004557 C315,83.6510709 313.687838,85 312.083098,85 L306.917788,85 C305.312162,85 304,83.6510709 304,82.0004557 L304,81.9995443 C304,80.3489291 305.312162,79 306.917788,79" id="Fill-157" fill="#A2A089"></path>
                    <path d="M321,65.4795541 L321,90.5204459 C321,91.3353249 320.32614,92 319.499088,92 C318.67386,92 318,91.3353249 318,90.5204459 L318,65.4795541 C318,64.6646751 318.67386,64 319.499088,64 C320.32614,64 321,64.6646751 321,65.4795541" id="Fill-158" fill="#A2A089"></path>
                    <path d="M325.917553,68 L331.082447,68 C332.687943,68 334,69.349134 334,71 L334,71.0009116 C334,72.650866 332.687943,74 331.082447,74 L325.917553,74 C324.312057,74 323,72.650866 323,71.0009116 L323,71 C323,69.349134 324.312057,68 325.917553,68" id="Fill-159" fill="#E5E5E0"></path>
                    <path d="M325.917553,79 L331.082447,79 C332.687943,79 334,80.3489291 334,81.9995443 L334,82.0004557 C334,83.6510709 332.687943,85 331.082447,85 L325.917553,85 C324.312057,85 323,83.6510709 323,82.0004557 L323,81.9995443 C323,80.3489291 324.312057,79 325.917553,79" id="Fill-160" fill="#F9CA64"></path>
                    <path d="M340,65.4795541 L340,90.5204459 C340,91.3353249 339.325433,92 338.498633,92 C337.673655,92 337,91.3353249 337,90.5204459 L337,65.4795541 C337,64.6646751 337.673655,64 338.498633,64 C339.325433,64 340,64.6646751 340,65.4795541" id="Fill-161" fill="#E5E5E0"></path>
                    <path d="M283.024453,175 L301.975547,175 C303.640375,175 305,176.348929 305,177.999544 L305,178.000456 C305,179.65016 303.640375,181 301.975547,181 L283.024453,181 C281.360544,181 280,179.65016 280,178.000456 L280,177.999544 C280,176.348929 281.360544,175 283.024453,175" id="Fill-162" fill="#E5E5E0"></path>
                    <path d="M283.024453,185 L301.975547,185 C303.640375,185 305,186.350046 305,188.000912 L305,188.001823 C305,189.651778 303.640375,191 301.975547,191 L283.024453,191 C281.360544,191 280,189.651778 280,188.001823 L280,188.000912 C280,186.350046 281.360544,185 283.024453,185" id="Fill-163" fill="#E5E5E0"></path>
                    <path d="M298.025261,197 L316.975658,197 C318.639506,197 320,198.349134 320,200 L320,200.000912 C320,201.650866 318.639506,203 316.975658,203 L298.025261,203 C296.360494,203 295,201.650866 295,200.000912 L295,200 C295,198.349134 296.360494,197 298.025261,197" id="Fill-164" fill="#676561"></path>
                    <path d="M298.025261,208 L316.975658,208 C318.639506,208 320,209.350046 320,211.000912 L320,211.001823 C320,212.650866 318.639506,214 316.975658,214 L298.025261,214 C296.360494,214 295,212.650866 295,211.001823 L295,211.000912 C295,209.350046 296.360494,208 298.025261,208" id="Fill-165" fill="#E5E5E0"></path>
                    <path d="M326.869581,197 L328.130419,197 C329.709517,197 331,198.349134 331,200 L331,200.000912 C331,201.650866 329.709517,203 328.130419,203 L326.869581,203 C325.290483,203 324,201.650866 324,200.000912 L324,200 C324,198.349134 325.290483,197 326.869581,197" id="Fill-166" fill="#676561"></path>
                    <path d="M57.3851255,163 L62.6148745,163 C65.0276947,163 67,165.023039 67,167.5 C67,169.976027 65.0276947,172 62.6148745,172 L57.3851255,172 C54.9741256,172 53,169.976027 53,167.5 C53,165.023039 54.9741256,163 57.3851255,163" id="Fill-167" fill="#97C7C0"></path>
                    <path d="M31.3835901,163 L36.6136792,163 C39.0275665,163 41,165.023039 41,167.5 C41,169.976027 39.0275665,172 36.6136792,172 L31.3835901,172 C28.9724335,172 27,169.976027 27,167.5 C27,165.023039 28.9724335,163 31.3835901,163" id="Fill-168" fill="#F9CA64"></path>
                    <path d="M50.8036248,164.269354 L45.7527326,173.244769 C45.3466172,173.965892 44.4402537,174.214239 43.7373961,173.798489 L43.7364996,173.797569 C43.033642,173.380899 42.79069,172.451901 43.1968054,171.730777 L48.2468011,162.755362 C48.653813,162.034238 49.5583835,161.784972 50.2621376,162.202562 L50.2630341,162.202562 C50.9667881,162.618312 51.2088437,163.54823 50.8036248,164.269354" id="Fill-169" fill="#E5E5E0"></path>
                    <path d="M275.089818,175 L273.910182,175 C272.308742,175 271,176.348929 271,177.999544 L271,178.000456 C271,179.65016 272.308742,181 273.910182,181 L275.089818,181 C276.691258,181 278,179.65016 278,178.000456 L278,177.999544 C278,176.348929 276.691258,175 275.089818,175" id="Fill-170" fill="#E5E5E0"></path>
                    <path d="M268.950409,113 L251.048664,113 C249.370925,113 248,114.350752 248,116.000456 L248,116.001367 C248,117.651071 249.370925,119 251.048664,119 L268.950409,119 C270.628148,119 272,117.651071 272,116.001367 L272,116.000456 C272,114.350752 270.628148,113 268.950409,113" id="Fill-171" fill="#E5E5E0"></path>
                    <path d="M268.948556,123 L263.050518,123 C261.370925,123 260,124.349134 260,126 L260,126.001823 C260,127.650866 261.370925,129 263.050518,129 L268.948556,129 C270.628148,129 272,127.650866 272,126.001823 L272,126 C272,124.349134 270.628148,123 268.948556,123" id="Fill-172" fill="#676561"></path>
                    <path d="M490.499541,304 C499.036598,304 506,297.03731 506,288.5 C506,279.96269 499.036598,273 490.499541,273 C481.962483,273 475,279.96269 475,288.5 C475,297.03731 481.962483,304 490.499541,304" id="Fill-173" fill="#EA8A70"></path>
                    <path d="M475.717759,246 L493.283172,246 C495.878591,246 498,248.080576 498,250.624923 L498,287.37599 C498,289.918511 495.878591,292 493.283172,292 L475.717759,292 C473.12234,292 471,289.918511 471,287.37599 L471,250.624923 C471,248.080576 473.12234,246 475.717759,246" id="Fill-174" fill="#464644"></path>
                    <path d="M476.647831,251 L492.353069,251 C493.259331,251 494,251.763633 494,252.698921 L494,284.301079 C494,285.236367 493.259331,286 492.353069,286 L476.647831,286 C475.740669,286 475,285.236367 475,284.301079 L475,252.698921 C475,251.763633 475.740669,251 476.647831,251" id="Fill-175" fill="#FFFFFE"></path>
                    <path d="M484.999536,270 C488.85411,270 492,266.85483 492,263 C492,259.144241 488.85411,256 484.999536,256 C481.144032,256 478,259.144241 478,263 C478,266.85483 481.144032,270 484.999536,270" id="Fill-176" fill="#E15C5C"></path>
                    <path d="M484.50043,260 C486.432797,260 488,261.567203 488,263.50043 C488,265.433657 486.432797,267 484.50043,267 C482.567203,267 481,265.433657 481,263.50043 C481,261.567203 482.567203,260 484.50043,260" id="Fill-177" fill="#97C7C0"></path>
                    <path d="M494,263 C494,267.969691 489.971712,272 485,272 L485,263 L494,263" id="Fill-178" fill="#F9CA64"></path>
                    <path d="M490.855154,282.171835 C489.459217,283.545974 487.26075,283.478761 485.945245,282.020605 C484.630633,280.563384 484.694979,278.265996 486.090022,276.892791 C488.027532,274.988414 490.482487,274.0745 492.971401,274.004486 C494.620251,273.956876 496.311104,274.289209 497.880416,274.955741 C499.453303,275.622273 500.909117,276.632339 502.085207,277.939264 C503.798403,279.840841 504.922659,282.327733 504.998622,285.25898 C505.052244,287.268844 503.533872,288.943576 501.609766,288.998653 C499.686555,289.052797 498.082389,287.467684 498.030556,285.458753 C498.002851,284.430016 497.617673,283.566511 497.031415,282.914916 C496.555974,282.388412 495.950055,281.971129 495.28426,281.69014 C494.614889,281.405417 493.882961,281.263522 493.161756,281.28406 C492.276114,281.308331 491.44588,281.591187 490.855154,282.171835" id="Fill-179" fill="#EA8A70"></path>
                    <path d="M446,240.736463 C444.139248,247.512835 437.473206,251.949993 430.401083,250.826191 C425.69235,250.079711 421.910385,247.039369 420,243.018534 C427.377135,242.378175 434.167708,239.098379 439.259961,234 L446,240.736463" id="Fill-180" fill="#B75E4B"></path>
                    <path d="M437.444009,226 C441.009061,226.906631 444.21896,229.245462 446.177711,232.763374 C449.977129,239.584735 447.643394,248.261697 440.962188,252.141341 C436.82204,254.544603 431.985107,254.541841 428,252.568424 C435.102161,245.677109 438.532003,235.770442 437.444009,226" id="Fill-181" fill="#EA8A70"></path>
                    <path d="M287.433212,87.3783675 L287.435988,87.3774554 C288.802862,86.5985106 290.567674,87.0646005 291.357998,88.412704 L305.618087,112.757008 C306.406561,114.1042 305.934587,115.8436 304.566788,116.621632 L304.564012,116.622545 C303.196213,117.401489 301.432326,116.935399 300.642002,115.587296 L286.381913,91.2439037 C285.593439,89.8958003 286.065413,88.1573123 287.433212,87.3783675" id="Fill-182" fill="#F9CA64"></path>
                    <path d="M304.000453,134 C311.711676,134 318,127.710973 318,120 C318,112.289027 311.711676,106 304.000453,106 C296.289231,106 290,112.289027 290,120 C290,127.710973 296.289231,134 304.000453,134" id="Fill-183" fill="#EA8A70"></path>
                    <path d="M309.326532,120.459162 L315.364269,131.10415 C317.759645,135.325358 312.779927,138.081592 310.45758,133.987651 L304.418931,123.342663 C302.545717,120.041128 307.452405,117.157627 309.326532,120.459162" id="Fill-184" fill="#F9CA64"></path>
                    <path d="M312.894186,131.237644 L312.894186,131.237644 C313.747882,130.747231 314.848419,131.040897 315.340148,131.887975 L316.761675,134.333257 C317.253404,135.180334 316.959732,136.273588 316.106036,136.763032 C315.251364,137.252476 314.152778,136.958809 313.659098,136.111732 L312.238547,133.66645 C311.745842,132.819372 312.041465,131.726119 312.894186,131.237644" id="Fill-185" fill="#C95251"></path>
                    <path d="M537.49954,174 C559.255096,174 577,156.256729 577,134.5 C577,112.744191 559.255096,95 537.49954,95 C515.743065,95 498,112.744191 498,134.5 C498,156.256729 515.743065,174 537.49954,174" id="Fill-186" fill="#FFFFFE"></path>
                    <path d="M549.950765,136.705631 L547.351822,136.705631 C546.857308,136.705631 546.433309,136.461674 546.186052,136.036569 C545.938795,135.611463 545.938795,135.124459 546.186052,134.698443 L554.334535,120.669063 C554.581792,120.243047 555.005791,120 555.500305,120 C555.994818,120 556.418818,120.243047 556.665159,120.669063 L564.814557,134.698443 C565.061814,135.124459 565.061814,135.611463 564.814557,136.036569 C564.566385,136.461674 564.144217,136.705631 563.647872,136.705631 L560.347452,136.705631 C558.512258,143.883263 551.97186,149 544.418624,149 C542.534894,149 540.668564,148.683219 538.89381,148.053299 C538.304973,147.844843 537.946908,147.283194 538.006433,146.665108 C538.066874,146.046111 538.525672,145.562747 539.14473,145.470808 C544.110927,144.718909 548.237367,141.309875 549.950765,136.705631" id="Fill-187" fill="#E15C5C"></path>
                    <path d="M552.769017,156 L521.230056,156 C520.002783,156 519,155.100208 519,154.000832 C519,152.900624 520.002783,152 521.230056,152 L552.769017,152 C553.997217,152 555,152.900624 555,154.000832 C555,155.100208 553.997217,156 552.769017,156" id="Fill-188" fill="#E5E5E0"></path>
                    <path d="M522.798963,149 L521.200122,149 C519.990238,149 519,148.100395 519,147.000416 C519,145.900436 519.990238,145 521.200122,145 L522.798963,145 C524.009762,145 525,145.900436 525,147.000416 C525,148.100395 524.009762,149 522.798963,149" id="Fill-189" fill="#F9CA64"></path>
                    <path d="M522.798963,142 L521.200122,142 C519.990238,142 519,141.100208 519,140 C519,138.899792 519.990238,138 521.200122,138 L522.798963,138 C524.009762,138 525,138.899792 525,140 C525,141.100208 524.009762,142 522.798963,142" id="Fill-190" fill="#F9CA64"></path>
                    <path d="M522.798963,135 L521.200122,135 C519.990238,135 519,134.101684 519,133.000416 C519,131.900811 519.990238,131 521.200122,131 L522.798963,131 C524.009762,131 525,131.900811 525,133.000416 C525,134.101684 524.009762,135 522.798963,135" id="Fill-191" fill="#F9CA64"></path>
                    <path d="M522.798963,128 L521.200122,128 C519.990238,128 519,127.100208 519,126 C519,124.899792 519.990238,124 521.200122,124 L522.798963,124 C524.009762,124 525,124.899792 525,126 C525,127.100208 524.009762,128 522.798963,128" id="Fill-192" fill="#97C7C0"></path>
                    <path d="M522.798963,121 L521.200122,121 C519.990238,121 519,120.099376 519,119 C519,117.899792 519.990238,117 521.200122,117 L522.798963,117 C524.009762,117 525,117.899792 525,119 C525,120.099376 524.009762,121 522.798963,121" id="Fill-193" fill="#97C7C0"></path>
                    <path d="M532.640325,142.216991 L531.195089,142.216991 C530.920412,142.216991 530.684845,142.083216 530.547507,141.847988 C530.410168,141.613658 530.410168,141.344313 530.547507,141.109983 L535.074215,133.369901 C535.212462,133.134673 535.44712,133 535.722706,133 C535.997383,133 536.23295,133.134673 536.370288,133.369901 L540.896996,141.109983 C541.034335,141.344313 541.034335,141.613658 540.896996,141.847988 C540.759658,142.083216 540.524091,142.216991 540.250324,142.216991 L538.415811,142.216991 C537.396233,146.177263 533.761769,149 529.566129,149 C528.519265,149 527.481496,148.824926 526.49648,148.47747 C526.169051,148.36255 525.970775,148.053701 526.003518,147.711632 C526.03717,147.370462 526.292747,147.104708 526.635638,147.052635 C529.395138,146.638741 531.688051,144.757814 532.640325,142.216991" id="Fill-194" fill="#F9CA64"></path>
                    <path d="M544.762011,114 L521.237989,114 C520.007281,114 519,113.100021 519,111.999584 C519,110.899979 520.007281,110 521.237989,110 L544.762011,110 C545.99365,110 547,110.899979 547,111.999584 C547,113.100021 545.99365,114 544.762011,114" id="Fill-195" fill="#E15C5C"></path>
                    <path d="M412.315521,338.938452 L412.315521,338.938452 C413.63609,333.96429 418.750704,330.985429 423.682331,332.318053 L432.122256,334.599696 C437.052982,335.93232 440.006009,341.090105 438.684538,346.063358 C437.363068,351.035702 432.249355,354.014564 427.317728,352.681939 L418.877803,350.400297 C413.946176,349.067672 410.99405,343.910797 412.315521,338.938452" id="Fill-196" fill="#FFFFFE"></path>
                    <path d="M528.96001,313.14754 C531.492895,307.870022 529.240522,301.548328 523.926429,299.03244 C518.611417,296.517466 512.247934,298.754724 509.715048,304.033156 C509.660785,304.147348 491.113885,344.214281 431.647183,332.758495 C425.873234,331.662247 420.296104,335.421463 419.191531,341.15575 C418.086957,346.890952 421.87249,352.430656 427.646438,353.527817 C503.440777,368.127093 528.885513,313.304669 528.96001,313.14754" id="Fill-197" fill="#31905F"></path>
                    <path d="M469.68054,355 C478.1415,353.540552 485.553117,351.077848 492,348.052476 C491.959535,347.724788 491.890559,347.397101 491.791235,347.074003 C490.467831,342.770007 484.349269,340.824994 478.124946,342.733292 C471.900623,344.638835 467.930409,349.675309 469.254733,353.980222 C469.365094,354.336364 469.507642,354.676902 469.68054,355" id="Fill-198" fill="#2E7A53"></path>
                    <path d="M370.998047,105 L371.000977,105 C372.100586,105 373,105.898584 373,106.997395 L373,109.001628 C373,110.10044 372.100586,111 371.000977,111 L370.998047,111 C369.898438,111 369,110.10044 369,109.001628 L369,106.997395 C369,105.898584 369.898438,105 370.998047,105" id="Fill-199" fill="#673037"></path>
                    <path d="M386,79 L408.271378,79 C413.072582,79 417,82.8245503 417,87.5 L417,96 L394.728622,96 C389.927418,96 386,92.1763492 386,87.5008995 L386,79" id="Fill-200" fill="#5C2A30"></path>
                    <path d="M375.161803,173.02787 C375.706284,172.845144 376.075965,173.580087 375.986706,174.670386 C375.896703,175.758666 375.382719,176.789403 374.838238,176.972129 C374.292269,177.154855 373.924075,176.419912 374.013334,175.330623 C374.10185,174.241333 374.615834,173.211606 375.161803,173.02787" id="Fill-201" fill="#E7E1DD"></path>
                    <path d="M372.640347,189.138107 C373.155768,188.735427 373.734801,189.243154 373.932977,190.273199 C374.131153,191.302271 373.875074,192.461678 373.359653,192.862413 C372.844232,193.264121 372.26683,192.756394 372.067023,191.727322 C371.868847,190.697278 372.124926,189.538842 372.640347,189.138107" id="Fill-202" fill="#E7E1DD"></path>
                </g>
            </g>
        </g>
    </g>
</svg>