<?xml version="1.0" encoding="UTF-8"?>
<svg width="60px" height="49px" viewBox="0 0 60 49" version="1.1" xmlns="http://www.w3.org/2000/svg" xmlns:xlink="http://www.w3.org/1999/xlink">
    <!-- Generator: Sketch 47.1 (45422) - http://www.bohemiancoding.com/sketch -->
    <title>reduce-cash</title>
    <desc>Created with Sketch.</desc>
    <defs></defs>
    <g id="Page-2" stroke="none" stroke-width="1" fill="none" fill-rule="evenodd">
        <g id="reduce-cash">
            <g id="Group-18" opacity="0.5" transform="translate(26.000000, 22.000000)" fill="#1EC5A2">
                <polygon id="Path" points="24.25 0.780964798 5.5 0.780964798 5.5 4.53585398 20.5 4.53585398 24.25 4.53585398"></polygon>
                <polygon id="Path" points="23 17.0521512 23 13.2960104 20.5 13.2960104 4.25 13.2960104 4.25 17.0521512 21.75 17.0521512"></polygon>
                <polygon id="Path" points="1.75 23.3102999 20.5 23.3102999 20.5 19.5541591 3 19.5541591 1.75 19.5541591"></polygon>
                <polygon id="Path" points="0.5 10.792751 3 10.792751 19.25 10.792751 19.25 7.03911343 4.25 7.03911343 0.5 7.03911343"></polygon>
            </g>
            <g id="banknote-coins" fill="#63594D">
                <path d="M8.75,30.0391134 C8.05875,30.0391134 7.5,29.4783833 7.5,28.7874837 C7.5,28.0953325 8.05875,27.535854 8.75,27.535854 L11.25,27.535854 C11.94125,27.535854 12.5,28.0953325 12.5,28.7874837 C12.5,29.4783833 11.94125,30.0391134 11.25,30.0391134 L8.75,30.0391134 Z M58.75,36.2960104 L57.5,36.2960104 C56.80875,36.2960104 56.25,35.7365319 56.25,35.0456323 C56.25,34.3547327 56.80875,33.792751 57.5,33.792751 L57.5,2.50200782 L2.5,2.50200782 L2.5,33.792751 L20,33.792751 C20.69125,33.792751 21.25,34.3547327 21.25,35.0456323 C21.25,35.7365319 20.69125,36.2960104 20,36.2960104 L1.25,36.2960104 C0.55875,36.2960104 0,35.7365319 0,35.0456323 L0,1.25162973 C0,0.560730117 0.55875,0 1.25,0 L58.75,0 C59.44125,0 60,0.560730117 60,1.25162973 L60,35.0456323 C60,35.7365319 59.44125,36.2960104 58.75,36.2960104 Z M30,7.50977836 C34.10625,7.50977836 37.6725,11.1307432 38.4775,16.1222425 C38.5875,16.8043807 38.125,17.4477184 37.4425,17.5578618 C36.76125,17.665502 36.12,17.2036506 36.01,16.5215124 C35.4,12.750352 32.87375,10.0130378 30,10.0130378 C26.55625,10.0130378 23.64625,13.7766884 23.64625,18.2324902 C23.64625,19.9822686 24.0925,21.6531943 24.94,23.063781 C25.295,23.6570535 25.10375,24.4255541 24.51125,24.7822686 C24.31,24.9036767 24.0875,24.9612516 23.87,24.9612516 C23.445,24.9612516 23.03125,24.7447197 22.79625,24.3542112 C21.7175,22.553116 21.14625,20.4378618 21.14625,18.2324902 C21.14625,12.4199218 25.2,7.50977836 30,7.50977836 Z M48.75,8.76140808 C48.05875,8.76140808 47.5,8.20067797 47.5,7.50977836 C47.5,6.81762712 48.05875,6.25814863 48.75,6.25814863 L51.25,6.25814863 C51.94125,6.25814863 52.5,6.81762712 52.5,7.50977836 C52.5,8.20067797 51.94125,8.76140808 51.25,8.76140808 L48.75,8.76140808 Z M26.25,27.535854 L30,27.535854 L30,22.5293351 C30,21.8384355 30.55875,21.2777053 31.25,21.2777053 L52.5,21.2777053 C53.19125,21.2777053 53.75,21.8384355 53.75,22.5293351 L53.75,28.7874837 C53.75,29.4783833 53.19125,30.0391134 52.5,30.0391134 L48.75,30.0391134 L48.75,33.792751 L51.25,33.792751 C51.94125,33.792751 52.5,34.3547327 52.5,35.0456323 L52.5,41.303781 C52.5,41.9946806 51.94125,42.5541591 51.25,42.5541591 L50,42.5541591 L50,47.5619296 C50,48.2528292 49.44125,48.8135593 48.75,48.8135593 L27.5,48.8135593 C26.80875,48.8135593 26.25,48.2528292 26.25,47.5619296 L26.25,41.303781 C26.25,40.6116297 26.80875,40.0521512 27.5,40.0521512 L28.75,40.0521512 L28.75,36.2960104 L26.25,36.2960104 C25.55875,36.2960104 25,35.7365319 25,35.0456323 L25,28.7874837 C25,28.0953325 25.55875,27.535854 26.25,27.535854 Z M51.25,23.7809648 L32.5,23.7809648 L32.5,27.535854 L47.5,27.535854 L51.25,27.535854 L51.25,23.7809648 Z M50,40.0521512 L50,36.2960104 L47.5,36.2960104 L31.25,36.2960104 L31.25,40.0521512 L48.75,40.0521512 L50,40.0521512 Z M28.75,46.3102999 L47.5,46.3102999 L47.5,42.5541591 L30,42.5541591 L28.75,42.5541591 L28.75,46.3102999 Z M27.5,33.792751 L30,33.792751 L46.25,33.792751 L46.25,30.0391134 L31.25,30.0391134 L27.5,30.0391134 L27.5,33.792751 Z" id="Shape"></path>
            </g>
        </g>
    </g>
</svg>