<?xml version="1.0" standalone="no"?>
<!DOCTYPE svg PUBLIC "-//W3C//DTD SVG 20010904//EN"
 "http://www.w3.org/TR/2001/REC-SVG-20010904/DTD/svg10.dtd">
<svg version="1.0" xmlns="http://www.w3.org/2000/svg"
 width="260.000000pt" height="260.000000pt" viewBox="0 0 260.000000 260.000000"
 preserveAspectRatio="xMidYMid meet">
<metadata>
Created by potrace 1.11, written by Peter Selinger 2001-2013
</metadata>
<g transform="translate(0.000000,260.000000) scale(0.100000,-0.100000)"
fill="#000000" stroke="none">
<path d="M106 2228 c-14 -19 -16 -64 -16 -285 0 -250 1 -264 20 -283 27 -27
56 -25 85 6 l25 27 0 252 c0 240 -1 254 -21 279 -26 33 -71 35 -93 4z"/>
<path d="M1254 2229 c-17 -19 -19 -42 -22 -264 -3 -198 -1 -249 12 -278 21
-50 58 -59 94 -23 l27 26 3 248 c2 233 1 249 -18 280 -24 39 -66 44 -96 11z"/>
<path d="M2401 2224 c-20 -25 -21 -39 -21 -281 l0 -254 25 -24 c31 -32 58 -32
84 1 20 25 21 39 21 283 0 216 -2 260 -16 279 -22 31 -67 29 -93 -4z"/>
<path d="M396 1854 c-14 -13 -16 -58 -16 -337 0 -357 2 -367 60 -367 58 0 60
11 60 366 0 298 -1 322 -18 337 -23 21 -66 22 -86 1z"/>
<path d="M976 1854 c-14 -13 -16 -59 -16 -343 0 -305 1 -329 18 -344 25 -23
47 -21 72 5 19 21 20 34 20 338 0 269 -2 319 -16 338 -18 26 -56 29 -78 6z"/>
<path d="M1546 1848 c-14 -19 -16 -69 -16 -338 0 -343 3 -360 55 -360 52 0 55
17 55 366 0 298 -1 322 -18 337 -26 23 -58 21 -76 -5z"/>
<path d="M2119 1853 c-19 -22 -26 -622 -8 -665 17 -42 56 -48 86 -14 23 27 23
27 23 332 0 301 -3 336 -34 356 -19 13 -53 9 -67 -9z"/>
<path d="M684 1686 c-18 -14 -19 -30 -19 -466 0 -436 1 -452 19 -466 29 -21
59 -17 84 9 22 23 22 26 22 454 0 420 0 431 -21 457 -23 29 -55 33 -85 12z"/>
<path d="M1832 1680 c-22 -21 -22 -21 -22 -460 0 -439 0 -439 22 -460 29 -27
54 -25 83 5 l25 24 0 429 c0 419 0 430 -21 456 -25 31 -57 33 -87 6z"/>
<path d="M116 1495 c-22 -21 -26 -32 -26 -82 0 -78 7 -98 36 -112 33 -15 37
-14 62 9 19 18 22 32 22 91 0 61 -3 73 -25 94 -30 31 -36 31 -69 0z"/>
<path d="M1259 1494 c-21 -22 -24 -35 -24 -101 0 -82 13 -103 65 -103 46 0 65
33 65 110 0 59 -3 72 -24 94 -31 33 -51 33 -82 0z"/>
<path d="M2405 1495 c-22 -21 -25 -33 -25 -95 0 -80 19 -110 68 -110 47 0 62
27 62 107 0 56 -4 76 -21 97 -26 33 -53 33 -84 1z"/>
<path d="M110 1140 c-16 -16 -20 -33 -20 -95 0 -67 3 -79 25 -100 31 -32 40
-31 76 4 27 27 29 35 29 100 0 63 -2 71 -26 90 -33 26 -58 27 -84 1z"/>
<path d="M1262 1137 c-18 -19 -22 -35 -22 -94 0 -65 2 -73 26 -92 34 -27 40
-26 69 4 22 21 25 33 25 94 0 63 -2 71 -26 90 -34 27 -46 26 -72 -2z"/>
<path d="M2412 1140 c-19 -18 -22 -32 -22 -94 0 -63 3 -75 23 -94 30 -28 42
-28 72 3 22 21 25 33 25 90 0 57 -3 69 -25 90 -29 30 -45 31 -73 5z"/>
<path d="M401 1004 c-19 -24 -21 -40 -21 -185 0 -199 11 -231 73 -215 39 9 47
45 47 215 0 145 -2 161 -21 185 -11 14 -29 26 -39 26 -10 0 -28 -12 -39 -26z"/>
<path d="M969 1013 c-10 -12 -15 -61 -17 -192 -3 -168 -2 -178 18 -204 26 -33
63 -35 84 -5 13 18 16 55 16 198 0 143 -3 180 -16 198 -18 26 -65 30 -85 5z"/>
<path d="M1544 1009 c-17 -19 -19 -40 -22 -188 -2 -152 -1 -169 18 -198 25
-41 60 -44 89 -7 19 25 21 40 21 191 0 159 -6 197 -34 215 -21 14 -53 8 -72
-13z"/>
<path d="M2116 1008 c-24 -33 -23 -358 0 -393 21 -33 57 -32 83 1 19 25 21 40
21 198 0 192 -7 216 -60 216 -18 0 -34 -8 -44 -22z"/>
<path d="M680 580 c-17 -17 -20 -33 -20 -98 0 -83 13 -115 50 -125 13 -3 31 4
50 20 29 24 30 29 30 102 0 68 -3 80 -23 99 -29 27 -61 28 -87 2z"/>
<path d="M1835 575 c-22 -21 -25 -33 -25 -95 0 -62 3 -74 25 -95 29 -30 45
-31 73 -5 19 18 22 31 22 98 0 83 -4 93 -37 111 -29 15 -30 15 -58 -14z"/>
</g>
</svg>
